<svg width="24" height="24" viewBox="0 0 24 24" fill="none" xmlns="http://www.w3.org/2000/svg">
<path fill-rule="evenodd" clip-rule="evenodd" d="M10.0645 17.0323C6.22297 17.0323 3.09677 13.9061 3.09677 10.0645C3.09677 6.22297 6.22297 3.09677 10.0645 3.09677C13.9061 3.09677 17.0323 6.22297 17.0323 10.0645C17.0323 13.9061 13.9061 17.0323 10.0645 17.0323M23.5463 21.3569L18.1812 15.9917C19.3997 14.3257 20.129 12.2818 20.129 10.0645C20.129 4.5151 15.6139 0 10.0645 0C4.5151 0 0 4.5151 0 10.0645C0 15.6139 4.5151 20.129 10.0645 20.129C12.2818 20.129 14.3257 19.3997 15.9917 18.1812L21.3569 23.5463C21.6588 23.8483 22.0552 24 22.4516 24C22.848 24 23.2444 23.8483 23.5463 23.5463C24.1517 22.9409 24.1517 21.9623 23.5463 21.3569" fill="#FFB428"/>
</svg>
