<?xml version="1.0" encoding="utf-8"?>
<!-- Generator: Adobe Illustrator 28.3.0, SVG Export Plug-In . SVG Version: 6.00 Build 0)  -->
<svg version="1.1" id="Capa_1" xmlns="http://www.w3.org/2000/svg" xmlns:xlink="http://www.w3.org/1999/xlink" x="0px" y="0px"
	 viewBox="0 0 24 24" style="enable-background:new 0 0 24 24;" xml:space="preserve">
<style type="text/css">
	.st0{fill:#FFB428;}
</style>
<g>
	<g>
		<path class="st0" d="M17.3,0H6.7C5.2,0,4,1.2,4,2.7v18.7C4,22.8,5.2,24,6.7,24h10.7c1.5,0,2.7-1.2,2.7-2.7V2.7
			C20,1.2,18.8,0,17.3,0z M17.3,21.3H6.7V2.7h2.7C9.3,3.4,9.9,4,10.7,4h2.7c0.7,0,1.3-0.6,1.3-1.3h2.7v18.6H17.3z"/>
		<g>
			<path class="st0" d="M12,20c-0.7,0-1.3-0.6-1.3-1.3c0-0.7,0.6-1.3,1.3-1.3s1.3,0.6,1.3,1.3l0,0C13.3,19.4,12.7,20,12,20z"/>
		</g>
	</g>
</g>
</svg>
