<?xml version="1.0" encoding="utf-8"?>
<!-- Generator: Adobe Illustrator 28.3.0, SVG Export Plug-In . SVG Version: 6.00 Build 0)  -->
<svg version="1.1" id="Capa_1" xmlns="http://www.w3.org/2000/svg" xmlns:xlink="http://www.w3.org/1999/xlink" x="0px" y="0px"
	 viewBox="0 0 24 24" style="enable-background:new 0 0 24 24;" xml:space="preserve">
<style type="text/css">
	.st0{fill:#8C00FF;}
</style>
<g>
	<path class="st0" d="M20,5.3h-1.3V4c0-1.1-0.4-2.1-1.2-2.8C16.7,0.4,15.7,0,14.7,0H4C2.9,0,1.9,0.4,1.2,1.2C0.4,1.9,0,2.9,0,4v10.7
		c0,1.1,0.4,2.1,1.2,2.8c0.8,0.8,1.8,1.2,2.8,1.2h1.3V20c0,2.2,1.8,4,4,4H20c2.2,0,4-1.8,4-4V9.3C24,7.1,22.2,5.3,20,5.3z M4,16
		c-0.4,0-0.7-0.1-0.9-0.4c-0.2-0.2-0.4-0.6-0.4-0.9V4c0-0.4,0.1-0.7,0.4-0.9C3.3,2.8,3.6,2.7,4,2.7h10.7c0.4,0,0.7,0.1,0.9,0.4
		C15.9,3.3,16,3.6,16,4v1.3H9.3c-2.2,0-4,1.8-4,4V16H4z M21.3,20c0,0.7-0.6,1.3-1.3,1.3H9.3C8.6,21.3,8,20.7,8,20V9.3
		C8,8.6,8.6,8,9.3,8H20c0.7,0,1.3,0.6,1.3,1.3V20z"/>
</g>
</svg>
