<svg width="423" height="386" viewBox="0 0 423 386" fill="none" xmlns="http://www.w3.org/2000/svg">
<circle cx="208.5" cy="210.5" r="175.5" fill="#F3F3F3"/>
<circle cx="44" cy="92" r="11" fill="#EED8FF"/>
<circle cx="333.5" cy="20.5" r="20.5" fill="#EED8FF"/>
<circle cx="47.5" cy="323.5" r="19.5" fill="#EED8FF"/>
<circle cx="396.5" cy="304.5" r="19.5" fill="#EED8FF"/>
<circle cx="358.5" cy="326.5" r="9.5" fill="#EED8FF"/>
<path d="M405.659 244.331L408.721 258.798L422.982 261.905L408.721 265.011L405.659 279.479L402.596 265.011L388.336 261.905L402.596 258.798L405.659 244.331Z" fill="#FFA400"/>
<path d="M387.345 96.6219C387.568 95.5647 389.078 95.5647 389.301 96.6219L391.251 105.835C391.333 106.22 391.633 106.521 392.017 106.605L401.161 108.597C402.21 108.826 402.21 110.323 401.161 110.551L392.017 112.543C391.633 112.627 391.333 112.928 391.251 113.313L389.301 122.526C389.078 123.583 387.568 123.583 387.345 122.526L385.395 113.313C385.313 112.928 385.014 112.627 384.629 112.543L375.485 110.551C374.436 110.323 374.436 108.826 375.485 108.597L384.629 106.605C385.014 106.521 385.313 106.22 385.395 105.835L387.345 96.6219Z" fill="#FFA400"/>
<path d="M24.2229 217.622C24.4467 216.565 25.9558 216.565 26.1796 217.622L29.5224 233.415C29.6038 233.799 29.9034 234.101 30.2878 234.185L45.9173 237.589C46.9669 237.818 46.9668 239.315 45.9173 239.544L30.2878 242.948C29.9034 243.032 29.6038 243.334 29.5224 243.718L26.1796 259.511C25.9558 260.568 24.4467 260.568 24.2229 259.511L20.8801 243.718C20.7986 243.334 20.499 243.032 20.1146 242.948L4.48513 239.544C3.4356 239.315 3.43561 237.818 4.48513 237.589L20.1146 234.185C20.499 234.101 20.7986 233.799 20.8801 233.415L24.2229 217.622Z" fill="#FFA400"/>
<path d="M86.5252 49.537C85.9454 49.4137 85.9454 48.5863 86.5252 48.463L95.2909 46.5989C95.5021 46.554 95.6674 46.3894 95.7132 46.1783L97.6006 37.4744C97.7257 36.8975 98.5486 36.8975 98.6737 37.4744L100.561 46.1783C100.607 46.3894 100.772 46.554 100.983 46.5989L109.749 48.463C110.329 48.5863 110.329 49.4137 109.749 49.537L100.983 51.4011C100.772 51.446 100.607 51.6106 100.561 51.8217L98.6737 60.5256C98.5486 61.1025 97.7257 61.1025 97.6006 60.5256L95.7132 51.8217C95.6674 51.6106 95.5021 51.446 95.2909 51.4011L86.5252 49.537Z" fill="#FFA400"/>
<circle cx="245" cy="146" r="111" fill="#F3F3F3" stroke="#FFA400" stroke-width="4"/>
<circle cx="245" cy="146" r="93" fill="#F3F3F3" stroke="#FFA400" stroke-width="4"/>
<path d="M100.243 351.626L160.236 268.303L162.902 266.304L168.901 264.97H177.567L182.233 268.303L186.899 270.303L190.899 274.969L194.232 282.302L142.238 380.289L136.239 383.622H128.906L118.908 380.289L110.909 376.956L103.576 366.958L100.243 362.958V351.626Z" fill="#F3F3F3"/>
<path d="M205.564 250.306L190.355 274.969" stroke="#FFA400" stroke-width="4"/>
<path d="M187.688 242.307L173.024 264.304" stroke="#FFA400" stroke-width="4"/>
<path d="M164.235 264.97L99.5768 353.626" stroke="#FFA400" stroke-width="4"/>
<path d="M193.565 280.968L141.572 381.622" stroke="#FFA400" stroke-width="4"/>
<path d="M162.902 266.304L164 265.693C166.4 264.356 169.159 263.804 171.889 264.113V264.113C173.003 264.24 174.097 264.508 175.144 264.912L177.023 265.637L177.656 265.848C181.185 267.024 184.391 269.006 187.022 271.636V271.636L189.089 273.704C189.93 274.544 190.664 275.484 191.275 276.504V276.504C191.991 277.696 192.532 278.986 192.881 280.332L193.565 282.968" stroke="#FFA400" stroke-width="4"/>
<path d="M142.905 380.289L140.066 381.566C137.315 382.803 134.349 383.488 131.335 383.583V383.583C128.994 383.657 126.656 383.373 124.4 382.742L122.488 382.206L121.847 381.989C116.18 380.066 111.019 376.891 106.748 372.7V372.7L104.278 370.277C102.348 368.382 100.901 366.051 100.059 363.481V363.481C99.0129 360.283 98.9464 356.845 99.8683 353.609L100.243 352.293" stroke="#FFA400" stroke-width="4"/>
</svg>
