<?xml version="1.0" encoding="utf-8"?>
<!-- Generator: Adobe Illustrator 28.3.0, SVG Export Plug-In . SVG Version: 6.00 Build 0)  -->
<svg version="1.1" id="Capa_1" xmlns="http://www.w3.org/2000/svg" xmlns:xlink="http://www.w3.org/1999/xlink" x="0px" y="0px"
	 viewBox="0 0 24 24" style="enable-background:new 0 0 24 24;" xml:space="preserve">
<style type="text/css">
	.st0{fill:#FFA400;}
</style>
<path class="st0" d="M14.8,17c0.2-0.2,0.3-0.4,0.3-0.7s-0.1-0.5-0.3-0.7L11.3,12l3.5-3.5C15,8.3,15.1,8,15.1,7.8S15,7.2,14.8,7.1
	c-0.1-0.1-0.2-0.2-0.3-0.3s-0.2,0-0.4,0c-0.1,0-0.3,0-0.4,0.1C13.6,7,13.5,7,13.4,7.1l-4.2,4.2C9.1,11.4,9,11.5,9,11.6
	c-0.1,0.1-0.1,0.3-0.1,0.4s0,0.3,0.1,0.4c0.1,0.1,0.1,0.2,0.2,0.3l4.2,4.3c0.1,0.1,0.2,0.2,0.3,0.2c0.1,0.1,0.3,0.1,0.4,0.1
	s0.3,0,0.4-0.1C14.6,17.2,14.7,17.1,14.8,17z"/>
</svg>
