<?xml version="1.0" encoding="utf-8"?>
<!-- Generator: Adobe Illustrator 22.0.0, SVG Export Plug-In . SVG Version: 6.00 Build 0)  -->
<svg version="1.1" id="Capa_1" xmlns="http://www.w3.org/2000/svg" xmlns:xlink="http://www.w3.org/1999/xlink" x="0px" y="0px"
	 viewBox="0 0 1736.5 1589.8" style="enable-background:new 0 0 1736.5 1589.8;" xml:space="preserve">
<style type="text/css">
	.st0{fill:#313435;}
	.st1{fill:#FCB13D;}
	.st2{fill:#A5A8A8;}
	.st3{fill:#C7C8CA;}
	.st4{fill:#51545D;}
	.st5{fill:#C2C4C6;}
	.st6{opacity:0.2;fill:#FFFFFF;}
	.st7{fill:#585B5C;}
	.st8{opacity:0.3;fill:#FFFFFF;}
	.st9{fill:#D1D3D4;}
	.st10{fill:#284D5E;}
	.st11{fill:#444D50;}
	.st12{fill:#586266;}
	.st13{fill:#2A272E;}
	.st14{fill:#5D606A;}
	.st15{fill:#BCBEC0;}
	.st16{fill:#3F4249;}
	.st17{fill:#F36E38;}
	.st18{fill:#FFFFFF;}
	.st19{fill:#646768;}
	.st20{fill:#BC202F;}
	.st21{fill:#73909D;}
	.st22{fill:#435860;}
	.st23{fill:#F47939;}
</style>
<g>
	<g>
		<rect x="118" y="698.8" class="st0" width="1353.7" height="279.5"/>
		<g>
			<path class="st1" d="M627.8,656.1L627,549.3c-0.4-62.6,49.9-113.7,112.5-114.1l107.5-0.8c62.6-0.5,113.7,49.9,114.1,112.5
				l0.8,106.9l91.7-0.7l-1-131.8c-0.7-97-79.9-175-176.8-174.3l-166.5,1.2c-97,0.7-175,79.9-174.3,176.8l1,131.8L627.8,656.1z"/>
			<g>
				<path class="st2" d="M1446.6,533.8l-365.1,2.6l0.6,88L507,628.6l-0.6-88l-365,2.6c-31.6,0.2-57.5,24.2-60.9,54.9l0.9,121.5
					l1427.8-10.3l-0.9-121.5C1504.4,557.2,1478.2,533.6,1446.6,533.8z"/>
				<polygon class="st3" points="81,675.7 81.3,711.9 1509.1,701.6 1508.8,665.4 				"/>
			</g>
		</g>
		<g>
			<g>
				<path class="st2" d="M1146.8,83.1c0-35.8,26.6-52.4,64.9-64.9L1265,46c-33.4,19.2-50.8,32.4-50.8,63.4c0,4.9,0.6,9.7,1.6,14.4
					h0.3l71.3,158.6v238.2h-56.1V282.4L1160,123.8C1160,123.8,1146.8,98.5,1146.8,83.1z"/>
				<g>
					<g>
						<g>
							<g>
								<path class="st1" d="M1304.4,520.4v359.9c0,20.1-16.3,36.4-36.4,36.4c-20.1,0-36.4-16.3-36.4-36.4V520.4H1304.4z"/>
							</g>
							<g>
								<rect x="1231.6" y="520.4" class="st4" width="72.8" height="356.9"/>
							</g>
							<g>
								<path class="st5" d="M1304.4,520.4v359.9c0,13-6.8,24.3-17,30.8V520.4H1304.4z"/>
							</g>
							<path class="st6" d="M1262.4,520.4c3.4,23.4,5.6,216.7,5.6,255.7c0,70.5-7.1,127.6-15.7,127.6c-8.7,0-15.7-57.1-15.7-127.6
								c0-39,2.2-232.3,5.6-255.7H1262.4z"/>
						</g>
					</g>
					<g>
						<path class="st1" d="M1231.1,594.3c64.8-28.2,10.4-52.8,78.4-73.9c61-17.6,62.2-70.4,37.5-78.6c-24.6-8.2-115.4-8.2-115.4-8.2
							L1231.1,594.3z"/>
					</g>
					<g>
						<path class="st5" d="M1309.5,478.1c23.3-6.7,37.9-18.6,45.6-31.2c15.3,16,7.6,58.1-45.6,73.5c-68.1,21.1-13.6,45.8-78.4,73.9
							l0.2-18.4C1236.7,546.4,1242.3,499,1309.5,478.1z"/>
					</g>
				</g>
			</g>
			<path class="st7" d="M1293.4,83.1c0-35.8-26.6-52.4-64.9-64.9L1155.1,0l-18.8,22.3l38.8,23.8c33.4,19.2,50.8,32.4,50.8,63.4
				c0,4.9-0.6,9.7-1.6,14.4h-0.3l-71.3,158.6v238.2h56.1V282.4C1208.8,282.4,1293.4,98.5,1293.4,83.1z"/>
			<g>
				<path class="st8" d="M1228.7,123.8l-71.3,158.6v238.2h15.2V294.5l80.9-180.1h0.3c1.2-5.2,1.8-10.7,1.8-16.3
					c0-35.2-19.7-50.1-57.6-71.9l-39.7-24.4L1141,22.3l38.8,23.8c33.4,19.2,50.8,32.4,50.8,63.4c0,4.9-0.6,9.7-1.6,14.4H1228.7z"/>
				<g>
					<g>
						<g>
							<g>
								<path class="st1" d="M1135.7,520.4v359.9c0,20.1,16.3,36.4,36.4,36.4c20.1,0,36.4-16.3,36.4-36.4V520.4H1135.7z"/>
							</g>
							<g>
								<rect x="1135.7" y="520.4" class="st4" width="72.8" height="356.9"/>
							</g>
							<g>
								<path class="st5" d="M1135.7,520.4v359.9c0,13,6.8,24.3,17,30.8V520.4H1135.7z"/>
							</g>
							<path class="st6" d="M1177.7,520.4c-3.4,23.4-5.6,216.7-5.6,255.7c0,70.5,7,127.6,15.7,127.6c8.7,0,15.7-57.1,15.7-127.6
								c0-39-2.2-232.3-5.6-255.7H1177.7z"/>
						</g>
					</g>
					<g>
						<path class="st1" d="M1209,594.3c-64.8-28.2-10.4-52.8-78.4-73.9c-61-17.6-62.2-70.4-37.5-78.6c24.6-8.2,115.4-8.2,115.4-8.2
							L1209,594.3z"/>
					</g>
					<g>
						<path class="st5" d="M1130.6,478.1c-23.3-6.7-37.9-18.6-45.6-31.2c-15.3,16-7.6,58.1,45.6,73.5c68.1,21.1,13.6,45.8,78.4,73.9
							l-0.2-18.4C1203.5,546.4,1197.9,499,1130.6,478.1z"/>
					</g>
				</g>
			</g>
			<path class="st2" d="M1244.5,145.3c6.1,3,8.6,10.4,5.6,16.5l-28.6,58c-3,6.1-10.4,8.6-16.5,5.6l0,0c-6.1-3-8.6-10.4-5.6-16.5
				l28.6-58C1231,144.8,1238.4,142.3,1244.5,145.3L1244.5,145.3z"/>
		</g>
		<g>
			<g>
				<path class="st1" d="M247.2,988.8c1,14.8-14.1,26.8-33.8,26.8c-8.6,0-17.1,0-25.6,0c-19.7,0-34.8-12-33.8-26.8
					c6.7-111.6,13.4-223.1,20.2-334.7c1-14.8,9.9-26.8,19.9-26.8c4.4,0,8.8,0,13.2,0c9.9,0,18.8,12,19.9,26.8
					C233.8,765.6,240.5,877.2,247.2,988.8z"/>
			</g>
			<path class="st9" d="M247.2,988.8c-6.7-111.6-13.4-223.1-20.2-334.7c-1-14.8-9.9-26.8-19.9-26.8c-4.4,0-8.8,0-13.2,0
				c-9.9,0-18.8,12-19.9,26.8c-1,16.1-1.9,32.2-2.9,48.3c0.2,0,0.3,0,0.5,0c3.7,0,7.5,0,11.2,0c8.4,0,16,10.2,16.8,22.7
				c5.7,94.4,8.2,136.1,13.9,230.5c0.6,8.5-3.7,40.5-11.8,60c3.8,0,7.7,0,11.6,0C233.1,1015.6,248.2,1003.6,247.2,988.8z"/>
			<polygon class="st10" points="241,702.4 160.2,673 160.2,627.3 241,627.3 			"/>
			<polygon class="st9" points="241,682.4 160.2,657.1 160.2,627.3 241,627.3 			"/>
			<g>
				<path class="st11" d="M263.3,550.3c0,0,74.4,0.7,84,89.6l13.4,106.4c0,0-23,4.2-35-54.6c-12-58.8-53-87-62.4-72.6V550.3z"/>
			</g>
			<g>
				<path class="st9" d="M267.2,558.5c65.8,8.3,93.5,187.8,93.5,187.8s-23,4.2-35-54.6c-12-58.8-53-87-62.4-72.6L267.2,558.5z"/>
			</g>
			<g>
				<path class="st11" d="M77.8,549.4V636c33.2-31.9,66.3,0,66.3,0v-86.7C110.9,581.2,77.8,549.4,77.8,549.4z"/>
			</g>
			<path class="st9" d="M77.8,592.6V636c33.2-31.9,66.3,0,66.3,0v-43.4H77.8z"/>
			<g>
				<g>
					<path class="st12" d="M267,626.9c0,11.8-9.6,21.4-21.4,21.4h-90.1c-11.8,0-21.4-9.6-21.4-21.4v-68.4c0-11.8,9.6-21.4,21.4-21.4
						h90.1c11.8,0,21.4,9.6,21.4,21.4V626.9z"/>
				</g>
				<path class="st9" d="M267,626.9c0,11.8-9.6,21.4-21.4,21.4h-90.1c-11.8,0-21.4-9.6-21.4-21.4L267,558.5V626.9z"/>
			</g>
			<g>
				<path class="st12" d="M88.1,645.6c0,7.6-6.1,13.7-13.7,13.7H51.1c-7.6,0-13.7-6.1-13.7-13.7V539.7c0-7.6,6.1-13.7,13.7-13.7
					h23.3c7.6,0,13.7,6.1,13.7,13.7V645.6z"/>
			</g>
		</g>
		<g>
			<g>
				<path class="st4" d="M1504.2,545.8c2.3,3.6,7.1,4.6,10.6,2.3l218.1-141c3.6-2.3,4.6-7.1,2.3-10.6l0,0c-2.3-3.6-7.1-4.6-10.6-2.3
					l-218.1,141C1502.9,537.5,1501.9,542.3,1504.2,545.8L1504.2,545.8z"/>
				<polygon class="st13" points="1673.6,427.2 1696.6,412.4 1688.2,436.1 1665.2,451 				"/>
				<polygon class="st13" points="1632.3,453.9 1655.3,439.1 1646.9,462.8 1623.9,477.7 				"/>
				<polygon class="st13" points="1591,480.6 1614,465.7 1605.6,489.5 1582.6,504.3 				"/>
				<polygon class="st13" points="1549.8,507.3 1572.7,492.4 1564.3,516.1 1541.4,531 				"/>
			</g>
			<path class="st4" d="M1483.9,562.4c12.2,18.9,31.9,27.9,44,20.1c12.1-7.8,12-29.5-0.2-48.4c-12.2-18.9-31.9-27.9-44-20.1
				C1471.5,521.8,1471.6,543.5,1483.9,562.4z"/>
			<g>
				<path class="st2" d="M1433.7,539.8l47-30.4l50.2,77.7l-47,30.4c-21.5,13.9-50.1,7.7-64-13.7
					C1406,582.3,1412.2,553.6,1433.7,539.8z"/>
				<path class="st5" d="M1468.3,593.3l26.6-14.3l-20.8-65.4l6.6-4.3l50.2,77.7l-47,30.4c-21.5,13.9-50.1,7.7-64-13.7
					c-2.7-4.2-4.7-8.7-5.9-13.3C1429.2,602.7,1451,604.5,1468.3,593.3z"/>
			</g>
			<polygon class="st14" points="1520.9,803.2 1540.6,790.5 1466,675.1 1446.3,687.9 			"/>
			<path class="st10" d="M1223.6,1102c10.1,15.6,30.9,20.1,46.5,10l35.6-23c15.6-10.1,20.1-30.9,10-46.5l-36.5-56.5
				c-10.1-15.6-30.9-20.1-46.5-10l-35.6,23c-15.6,10.1-20.1,30.9-10,46.5L1223.6,1102z"/>
			<path class="st15" d="M1211.5,989.7l21.2-13.7c4.1-2.7,8.7-4.3,13.2-5l69.8,108c-2.5,3.9-5.8,7.3-10,10l-21.3,13.7L1211.5,989.7z
				"/>
			<path class="st1" d="M986.2,835.8l197.9-69.3c20.1,173.8,66.7,287.9,190.2,412.1c-76,49.1-112.2,81.5-175.9,38
				C1082.7,1101.6,997.4,997.8,986.2,835.8z"/>
			<path class="st5" d="M1206.5,892.9c27.7,108.3,76.9,194.3,167.8,285.8c-18,11.6-33.7,22.3-48.1,31.2
				c-88.9-91.5-138.2-178.5-166.6-286.7L1206.5,892.9z"/>
			<path class="st1" d="M1174.9,972.4c133-37.1,277-150.4,279.5-241c3-110.8-93.5-144.7-93.5-144.7L985.7,829.3
				c0,0,15.8,53.8,47.4,97.2"/>
			<path class="st2" d="M1292.9,630.7l68-43.9c0,0,96.6,33.8,93.5,144.7c-0.8,28.3-15.4,58.8-39.2,88.6L1292.9,630.7z"/>
			<path class="st10" d="M972.5,889.5c6,9.3,18.3,11.9,27.6,5.9l219-141.6c9.3-6,11.9-18.3,5.9-27.6l0,0c-6-9.2-18.3-11.9-27.6-5.9
				L978.5,861.9C969.2,867.9,966.5,880.2,972.5,889.5L972.5,889.5z"/>
			<g>
				<path class="st13" d="M1441,786.2c-1.9,0-3.8-1-5-2.7l-60.9-94.2c-1.8-2.7-1-6.4,1.8-8.1c2.7-1.8,6.4-1,8.1,1.7l60.9,94.2
					c1.8,2.7,1,6.4-1.7,8.1C1443.2,785.9,1442.1,786.2,1441,786.2z"/>
			</g>
			<g>
				<path class="st13" d="M1236.6,700.9c-1.9,0-3.8-0.9-5-2.7c-1.8-2.7-1-6.4,1.7-8.1l52.2-33.7c2.7-1.8,6.4-1,8.1,1.7
					c1.8,2.7,1,6.4-1.7,8.1l-52.2,33.8C1238.8,700.6,1237.7,700.9,1236.6,700.9z"/>
			</g>
			<g>
				<path class="st13" d="M1247.5,717.7c-1.9,0-3.8-1-5-2.7c-1.8-2.7-1-6.4,1.7-8.1l52.2-33.8c2.7-1.8,6.4-1,8.1,1.7
					c1.8,2.7,1,6.4-1.7,8.1l-52.2,33.8C1249.7,717.4,1248.6,717.7,1247.5,717.7z"/>
			</g>
			<g>
				<path class="st13" d="M1258.3,734.4c-1.9,0-3.8-0.9-5-2.7c-1.8-2.7-1-6.4,1.7-8.1l52.2-33.8c2.7-1.8,6.4-1,8.1,1.7
					c1.8,2.7,1,6.4-1.7,8.1l-52.2,33.8C1260.5,734.1,1259.4,734.4,1258.3,734.4z"/>
			</g>
			<g>
				<path class="st13" d="M1269.1,751.2c-1.9,0-3.8-0.9-5-2.7c-1.8-2.7-1-6.4,1.7-8.1l52.2-33.8c2.7-1.8,6.4-1,8.1,1.7
					c1.8,2.7,1,6.4-1.8,8.1l-52.2,33.8C1271.3,750.9,1270.2,751.2,1269.1,751.2z"/>
			</g>
			<g>
				<path class="st13" d="M1279.9,767.9c-1.9,0-3.8-1-4.9-2.7c-1.8-2.7-1-6.4,1.7-8.1l52.2-33.8c2.7-1.8,6.4-1,8.1,1.7
					c1.8,2.7,1,6.4-1.7,8.1l-52.2,33.8C1282.2,767.6,1281,767.9,1279.9,767.9z"/>
			</g>
			<g>
				<path class="st13" d="M1290.8,784.7c-1.9,0-3.8-1-4.9-2.7c-1.8-2.7-1-6.4,1.8-8.1l52.2-33.8c2.7-1.8,6.4-1,8.1,1.7
					c1.8,2.7,1,6.4-1.7,8.1l-52.2,33.7C1293,784.4,1291.9,784.7,1290.8,784.7z"/>
			</g>
			<path class="st10" d="M1159.4,919.3c14.2,22,43.7,28.4,65.7,14.1c22-14.2,28.4-43.7,14.1-65.7c-14.2-22-43.7-28.4-65.7-14.1
				C1151.5,867.8,1145.2,897.2,1159.4,919.3z"/>
			<polygon class="st4" points="1454.8,731.2 1502.1,700.6 1408.6,556 1361.3,586.5 			"/>
			<path class="st16" d="M1524.6,787.3c11.7-7.6,27.3-4.2,34.9,7.5l73.9,114.3c7.6,11.7,4.2,27.3-7.5,34.9
				c-11.7,7.6-27.3,4.2-34.9-7.5l-73.9-114.3C1509.5,810.5,1512.9,794.9,1524.6,787.3z"/>
			<path class="st5" d="M1534.2,819.6c5.6-3.6,13-2,16.6,3.6l64.3,99.5c3.6,5.6,2,13-3.5,16.6c-5.6,3.6-13,2-16.6-3.6l-64.3-99.5
				C1527.1,830.6,1528.7,823.1,1534.2,819.6z"/>
			<polygon class="st16" points="1492.6,820.9 1568.4,772 1562.4,762.8 1486.7,811.8 			"/>
			<g>
				<g>
					<path class="st13" d="M1500.3,593.4c-1.9,0-3.8-1-5-2.7l-35.7-55.2c-1.8-2.7-1-6.4,1.8-8.1c2.7-1.8,6.4-1,8.1,1.7l35.7,55.2
						c1.8,2.7,1,6.4-1.8,8.1C1502.5,593.1,1501.4,593.4,1500.3,593.4z"/>
				</g>
				<g>
					<g>
						<path class="st13" d="M1440.1,569.4c-1.9,0-3.8-0.9-5-2.7c-1.8-2.7-1-6.4,1.7-8.1l31.5-20.4c2.7-1.8,6.4-1,8.1,1.8
							c1.8,2.7,1,6.4-1.8,8.1l-31.5,20.4C1442.3,569.1,1441.2,569.4,1440.1,569.4z"/>
					</g>
					<g>
						<path class="st13" d="M1451,586.2c-1.9,0-3.8-0.9-5-2.7c-1.8-2.7-1-6.4,1.8-8.1l31.5-20.4c2.7-1.8,6.4-1,8.1,1.7
							c1.8,2.7,1,6.4-1.8,8.1l-31.5,20.4C1453.2,585.9,1452,586.2,1451,586.2z"/>
					</g>
					<g>
						<path class="st13" d="M1461.8,602.9c-1.9,0-3.8-0.9-5-2.7c-1.8-2.7-1-6.4,1.7-8.1l31.5-20.4c2.7-1.8,6.4-1,8.1,1.7
							c1.8,2.7,1,6.4-1.8,8.1L1465,602C1464,602.6,1462.9,602.9,1461.8,602.9z"/>
					</g>
				</g>
			</g>
		</g>
		<g>
			<polygon class="st2" points="78.9,399.5 85.5,422.3 446.7,317.3 487.7,458.5 332.6,605.1 385.6,787.3 419.3,777.5 371.8,614.1 
				526.7,466.5 473.8,284.7 			"/>
			<path class="st1" d="M434.6,305.6c7.6,26.1-7.4,53.3-33.5,60.9L62.9,464.8c-26.1,7.6-53.3-7.4-60.9-33.5l0,0
				c-7.6-26.1,7.4-53.3,33.5-60.9l338.3-98.3C399.8,264.5,427.1,279.5,434.6,305.6L434.6,305.6z"/>
			<g>
				<g>
					<polygon class="st5" points="460.3,288.7 509.2,456.9 354.3,604.5 401.8,767.9 381.6,773.8 385.6,787.3 419.3,777.5 
						371.8,614.1 526.7,466.5 473.8,284.7 					"/>
				</g>
			</g>
			<g>
				<g>
					<g>
						<g>
							<path class="st17" d="M509.2,1012.9c5.6,19.3-5.5,39.5-24.8,45.1l0,0c-19.3,5.6-39.5-5.5-45.1-24.8l-72.5-249.4
								c-5.6-19.3,5.5-39.5,24.8-45.1l0,0c19.3-5.6,39.5,5.5,45.1,24.8L509.2,1012.9z"/>
						</g>
					</g>
					<g>
						<g>
							<path class="st5" d="M374.6,749.5c-8,9-11.4,21.8-7.8,34.3l72.5,249.4c3.6,12.5,13.3,21.5,24.9,24.8L374.6,749.5z"/>
						</g>
					</g>
					<path class="st6" d="M475.4,914.3c19.7,67.7,28.8,124.5,20.5,126.9c-8.4,2.4-31-50.5-50.7-118.1
						c-19.7-67.7-44.1-177-35.7-179.4C417.8,741.2,455.7,846.6,475.4,914.3z"/>
				</g>
			</g>
			<path class="st5" d="M394.5,270.7c8.9,5.7,15.9,14.5,19.1,25.5c7,24-6.8,49.2-30.9,56.1L70.8,442.9c-24,7-49.1-6.8-56.1-30.9
				c-3.2-11-2-22.1,2.5-31.7C3,392.5-3.6,412.2,2,431.3c7.6,26.1,34.8,41.1,60.9,33.5l338.3-98.3c26.1-7.6,41.1-34.8,33.5-60.9
				C429.1,286.5,413,273.4,394.5,270.7z"/>
			<path class="st18" d="M380.7,297.2c1.7,5.8-1.7,12-7.5,13.7L51.5,404.3c-5.8,1.7-12-1.7-13.6-7.5l0,0c-1.7-5.8,1.6-12,7.5-13.7
				L367,289.7C372.9,288,379,291.3,380.7,297.2L380.7,297.2z"/>
		</g>
		<g>
			<g>
				<path class="st2" d="M563.4,723c1.7,1.7,23.1,35.2,23.1,35.2l45-43.3l-45-25.4L563.4,723z"/>
				<g>
					<path class="st19" d="M534.2,621.2v-98.9c0-5.5,4.5-10,10-10v-39.6l-62.1,62.1V645l18.5,40.5h43.7v-54.4
						C538.7,631.2,534.2,626.7,534.2,621.2z"/>
				</g>
				<path class="st5" d="M544.2,512.3v-39.6l-20,20v192.9h20v-54.4c-5.5,0-10-4.5-10-10v-98.9C534.2,516.8,538.7,512.3,544.2,512.3z
					"/>
			</g>
			<g>
				<path class="st2" d="M550.2,723c-1.7,1.7-23.1,35.2-23.1,35.2l-45-43.3l45-25.4L550.2,723z"/>
				<g>
					<path class="st19" d="M579.4,621.2v-98.9c0-5.5-4.5-10-10-10v-39.6l62.1,62.1V645l-18.5,40.5h-43.6v-54.4
						C574.9,631.2,579.4,626.7,579.4,621.2z"/>
				</g>
				<path class="st5" d="M569.4,512.3v-39.6l20,20v192.9h-20v-54.4c5.5,0,10-4.5,10-10v-98.9C579.4,516.8,574.9,512.3,569.4,512.3z"
					/>
			</g>
			<g>
				<path class="st1" d="M519.9,800.7c20.6-26.5,17.1-45.7,17.1-45.7s-53.6-55.3-64.1-52.7c-10.4,2.6-25.2,11.7-10.4,29.4
					c15,17.9,7.1,41.6,6.6,42.4c-0.1,0.2-0.1,0.2-0.1,0.2l0,0c-30.6,60.3-21.3,204.5,12.3,263.6c12.4,21.8,36.3,28.1,47.4,17
					c11.3-11.1,10.4-30.5,2.3-45.2C507,967.5,498.2,843.9,519.9,800.7z"/>
				<path class="st20" d="M519.9,800.7c20.6-26.5,17.1-45.7,17.1-45.7s-53.6-55.3-64.1-52.7c-10.4,2.6-25.2,11.7-10.4,29.4
					c15,17.9,7.1,41.6,6.6,42.4c-0.1,0.2-0.1,0.2-0.1,0.2l0,0c-7.9,206.7,70.2,250,62,235.3C507,967.5,498.2,843.9,519.9,800.7z"/>
			</g>
			<g>
				<path class="st1" d="M590,800.7c-20.6-26.5-17.2-45.7-17.2-45.7s53.6-55.3,64.1-52.7c10.5,2.6,25.2,11.7,10.4,29.4
					c-15,17.9-7.1,41.6-6.6,42.4c0.1,0.2,0.2,0.2,0.2,0.2l0,0c30.6,60.3,21.3,204.5-12.3,263.6c-12.4,21.8-36.3,28.1-47.4,17
					c-11.3-11.1-10.4-30.5-2.3-45.2C602.9,967.5,611.7,843.9,590,800.7z"/>
				<path class="st20" d="M590,800.7c-20.6-26.5-17.2-45.7-17.2-45.7s53.6-55.3,64.1-52.7c10.5,2.6,25.2,11.7,10.4,29.4
					c-15,17.9-7.1,41.6-6.6,42.4c0.1,0.2,0.2,0.2,0.2,0.2l0,0c7.9,206.7-70.2,250-62,235.3C602.9,967.5,611.7,843.9,590,800.7z"/>
			</g>
			<path class="st2" d="M604,681.8c0,28-22.7,50.6-50.6,50.6c-28,0-50.6-22.7-50.6-50.6c0-28,22.7-50.6,50.6-50.6
				C581.3,631.2,604,653.9,604,681.8z"/>
			<path class="st5" d="M578.9,681.8c0,14.1-11.4,25.5-25.5,25.5c-14.1,0-25.5-11.4-25.5-25.5c0-14.1,11.4-25.5,25.5-25.5
				C567.5,656.3,578.9,667.7,578.9,681.8z"/>
		</g>
		<g>
			<path class="st21" d="M148.1,1011.7l3.1,432.6c0.6,81,66.7,146.1,147.7,145.5l1000.8-7.2c81-0.6,146.1-66.7,145.5-147.6
				l-3.1-432.6L148.1,1011.7z"/>
			<g>
				<path class="st22" d="M365.4,1432c0.2,27.2-21.7,49.5-48.9,49.6l0,0c-27.2,0.2-49.5-21.7-49.6-48.9l-2.9-399.5
					c-0.2-27.2,21.7-49.5,48.9-49.7l0,0c27.2-0.2,49.5,21.7,49.6,48.9L365.4,1432z"/>
				<path class="st22" d="M606.4,1430.3c0.2,27.2-21.7,49.5-48.9,49.7l0,0c-27.2,0.2-49.5-21.7-49.6-48.9l-2.9-399.5
					c-0.2-27.2,21.7-49.4,48.9-49.6l0,0c27.2-0.2,49.5,21.7,49.7,48.9L606.4,1430.3z"/>
				<path class="st22" d="M847.4,1428.5c0.2,27.2-21.7,49.5-49,49.6l0,0c-27.2,0.2-49.5-21.7-49.6-48.9l-2.9-399.5
					c-0.2-27.2,21.7-49.5,48.9-49.7l0,0c27.2-0.2,49.5,21.7,49.7,48.9L847.4,1428.5z"/>
				<path class="st22" d="M1088.4,1426.8c0.2,27.2-21.7,49.5-48.9,49.7l0,0c-27.2,0.2-49.5-21.7-49.6-48.9l-2.9-399.5
					c-0.2-27.2,21.7-49.5,48.9-49.6l0,0c27.2-0.2,49.5,21.7,49.7,48.9L1088.4,1426.8z"/>
				<path class="st22" d="M1329.4,1425.1c0.2,27.2-21.7,49.5-48.9,49.6l0,0c-27.2,0.2-49.5-21.7-49.7-48.9l-2.9-399.5
					c-0.2-27.2,21.7-49.5,48.9-49.7l0,0c27.2-0.2,49.5,21.7,49.7,48.9L1329.4,1425.1z"/>
			</g>
			<polygon class="st3" points="1442.9,1119.6 1442.1,1002.3 148.1,1011.7 148.9,1128.9 			"/>
			<path class="st2" d="M81.2,1012.2c3.8,30.6,30,54.2,61.6,54l1305.3-9.4c31.6-0.2,57.5-24.2,60.8-54.8l-0.5-72.4L80.7,939.8
				L81.2,1012.2z"/>
			
				<rect x="80.8" y="942.4" transform="matrix(1 -7.265062e-03 7.265062e-03 1 -6.9569 5.7992)" class="st3" width="1427.8" height="36.2"/>
			<g>
				<polygon class="st1" points="825.4,827.5 825.8,882.7 762.5,883.1 762.1,828 626.7,828.9 628.4,1062.6 962.5,1060.2 
					960.8,826.5 				"/>
			</g>
			
				<rect x="745.5" y="934.6" transform="matrix(1 -7.186074e-03 7.186074e-03 1 -6.9235 5.7363)" class="st23" width="98.6" height="63.4"/>
		</g>
	</g>
</g>
</svg>
