<svg width="160" height="35" viewBox="0 0 160 35" fill="none" xmlns="http://www.w3.org/2000/svg">
<path d="M0 0.67123H33.3873V34.2527H10.6762C10.6762 34.2527 1.84398 34.1556 0 24.353V0.67123Z" fill="#FFDE00"/>
<path d="M16.6938 6.58937H27.9525V17.4597H22.9056V11.3451H16.6938V6.58937Z" fill="#042955"/>
<path d="M47.3634 8.82105V12.315H51.3104C51.3104 12.315 53.1223 12.0885 53.2517 10.4225C53.2517 10.4225 53.1868 8.82105 51.5693 8.82105H47.3634ZM47.3634 3.58015V6.58873H51.4397C51.4397 6.58873 52.8632 6.26511 52.7986 5.08433C52.7986 5.08433 52.6694 3.58015 51.3104 3.58015H47.3634ZM52.7016 1.15366C55.5162 1.63888 55.5162 4.55058 55.5162 4.55058C55.9043 6.10351 54.0603 7.75333 54.0603 7.75333C55.9043 8.23875 55.9043 10.8592 55.9043 10.8592C56.0985 14.2563 52.2161 14.8386 52.2161 14.8386H44.4517V1.15366H52.7016Z" fill="#042955"/>
<path d="M63.9276 5.08455L61.9865 9.66245H65.8687L63.9276 5.08455ZM62.4394 1.15366H65.3511L70.7216 14.8386H67.7452L66.6451 12.024H61.3395L60.0452 14.8386H57.1335L62.4394 1.15366Z" fill="#042955"/>
<path d="M153.206 24.19L151.265 28.7681H155.147L153.206 24.19ZM151.718 20.2591H154.629L160 33.9441H157.023L155.924 31.1293H150.618L149.324 33.9441H146.412L151.718 20.2591Z" fill="#042955"/>
<path d="M99.1269 10.5718L100.874 12.3187C100.874 12.3187 99.3207 14.8423 95.3091 14.8423C95.3091 14.8423 88.3211 15.7803 87.7388 7.99969C87.7388 7.99969 87.2855 0.995508 95.3091 0.672102C95.3091 0.672102 98.8031 0.542445 100.55 3.0013L98.6089 4.81313C98.6089 4.81313 97.59 3.29255 95.0666 3.29255C95.0666 3.29255 91.1357 3.22972 90.8445 7.77421C90.8445 7.77421 90.6503 12.0762 95.1637 12.4158C95.1637 12.4158 97.8493 12.61 99.1269 10.5718Z" fill="#042955"/>
<path d="M75.1186 29.7749L76.8655 31.5218C76.8655 31.5218 75.3124 34.0454 71.3008 34.0454C71.3008 34.0454 64.3128 34.9837 63.7305 27.203C63.7305 27.203 63.2772 20.1988 71.3008 19.8754C71.3008 19.8754 74.7948 19.746 76.5417 22.2048L74.6006 24.0167C74.6006 24.0167 73.5817 22.4959 71.0581 22.4959C71.0581 22.4959 67.1274 22.433 66.8362 26.9777C66.8362 26.9777 66.6422 31.2793 71.1552 31.6189C71.1552 31.6189 73.841 31.8131 75.1186 29.7749Z" fill="#042955"/>
<path d="M127.76 29.7749L129.507 31.5218C129.507 31.5218 127.954 34.0454 123.942 34.0454C123.942 34.0454 116.954 34.9837 116.372 27.203C116.372 27.203 115.919 20.1988 123.942 19.8754C123.942 19.8754 127.437 19.746 129.183 22.2048L127.242 24.0167C127.242 24.0167 126.223 22.4959 123.7 22.4959C123.7 22.4959 119.769 22.433 119.478 26.9777C119.478 26.9777 119.284 31.2793 123.797 31.6189C123.797 31.6189 126.483 31.8131 127.76 29.7749Z" fill="#042955"/>
<path d="M116.91 7.87325C116.91 3.85138 113.65 0.591471 109.628 0.591471C105.606 0.591471 102.346 3.85138 102.346 7.87325C102.346 11.8949 105.606 15.155 109.628 15.155C113.65 15.155 116.91 11.8949 116.91 7.87325ZM109.628 12.435C107.109 12.435 105.066 10.3926 105.066 7.87325C105.066 5.35388 107.109 3.31153 109.628 3.31153C112.147 3.31153 114.19 5.35388 114.19 7.87325C114.19 10.3926 112.147 12.435 109.628 12.435Z" fill="#042955"/>
<path d="M97.7842 34.0777H95.1152V20.1303H97.7842V34.0777Z" fill="#042955"/>
<path d="M60.9029 34.0777H58.2339V20.1303H60.9029V34.0777Z" fill="#042955"/>
<path d="M47.3633 22.754V26.9777H50.8087C50.8087 26.9777 52.8026 26.5893 52.8007 24.8657C52.8007 24.8657 52.9442 22.8511 51.0515 22.754H47.3633ZM44.6458 34.0808V20.1334H51.6338C51.6338 20.1334 55.7588 20.6673 55.5646 24.7922C55.5646 24.7922 55.9042 28.3833 51.7308 29.4025H47.3633V34.0808H44.6458Z" fill="#042955"/>
<path d="M79.5864 20.1334V34.0808H82.3525V28.2862H88.5157V34.0808H91.1847V20.1334H89.389C89.389 20.1334 88.5157 20.1819 88.5157 21.104V25.4714H82.2554V20.1334H79.5864Z" fill="#042955"/>
<path d="M132.385 20.1334V34.0808H135.151V28.2862H141.314V34.0808H143.983V20.1334H142.187C142.187 20.1334 141.314 20.1819 141.314 21.104V25.4714H135.054V20.1334H132.385Z" fill="#042955"/>
<path d="M72.9377 14.8419V1.1569H76.0919C76.0919 1.1569 76.723 1.30252 77.0626 1.93336L82.3037 10.5714V1.1569H84.9727V14.8419H82.1579C82.1579 14.8419 81.6729 14.8904 81.236 14.1625L75.9463 5.47591V14.8419H72.9377Z" fill="#042955"/>
<path d="M101.54 34.0801V20.3954H104.694C104.694 20.3954 105.325 20.541 105.665 21.1719L110.906 29.8097V20.3954H113.575V34.0801H110.76C110.76 34.0801 110.275 34.1285 109.838 33.4008L104.549 24.7144V34.0801H101.54Z" fill="#042955"/>
</svg>
