<svg width="160" height="38" viewBox="0 0 160 38" fill="none" xmlns="http://www.w3.org/2000/svg">
<path d="M41.442 24.2653H41.394C40.9207 25.1475 39.9159 26.1711 38.1996 26.1711C35.6019 26.1711 34.6163 24.3119 35.6386 19.4984C36.4891 15.4937 37.6738 12.6098 40.8432 12.6098C41.917 12.6098 43.0085 12.9682 43.3577 14.3492H43.405L44.5812 8.82031H48.4422L44.8251 25.8376H41.107L41.442 24.2653ZM41.8427 15.4223C40.4361 15.4223 40.0357 16.9711 39.539 19.3082C39.0992 21.3807 38.7273 23.3583 40.1801 23.3583C41.3246 23.3583 41.8562 21.9766 42.3874 19.4742C42.8745 17.1858 43.1536 15.4223 41.8427 15.4223Z" fill="#006937"/>
<path d="M56.9793 25.836H53.262L53.5855 24.3107H53.5368C52.7461 25.4538 51.4746 26.1692 50.0446 26.1692C47.8511 26.1692 46.9167 25.0726 47.4429 22.5937L49.4945 12.9414H53.3555L51.487 21.7364C51.2883 22.6652 51.5788 23.2138 52.2924 23.2138C53.0319 23.2138 53.7967 22.6428 54.0652 21.3787L55.8583 12.9414H59.7199L56.9793 25.836Z" fill="#006937"/>
<path d="M62.5253 8.82031H66.387L65.2123 14.3485H65.2588C66.1968 12.9668 67.4391 12.6088 68.5129 12.6088C71.6823 12.6088 71.6407 15.4934 70.7902 19.498C69.7669 24.3119 67.9906 26.17 65.3922 26.17C63.6766 26.17 63.107 25.146 63.0085 24.2643H62.9619L62.6277 25.8376H58.9097L62.5253 8.82031ZM64.6078 23.3576C66.062 23.3576 66.5296 21.38 66.9705 19.3067C67.4665 16.9711 67.7239 15.4212 66.3173 15.4212C65.0075 15.4212 64.5381 17.1848 64.0503 19.4728C63.5195 21.9755 63.464 23.3576 64.6078 23.3576Z" fill="#006937"/>
<path d="M16.9742 12.9205H20.6915L20.3068 14.7314H20.3548C21.099 13.5875 22.2898 12.5859 23.9115 12.5859C24.1017 12.5859 24.2923 12.5859 24.5191 12.6339L23.7493 16.2588C23.3838 16.1859 23.0788 16.1628 22.6994 16.1628C21.1484 16.1628 20.0099 16.8067 19.6494 18.4999L18.0953 25.8183H14.2314L16.9742 12.9205Z" fill="#006937"/>
<path d="M23.8234 19.3884C24.6419 15.5371 26.1246 12.5859 30.5744 12.5859C35.2848 12.5859 35.267 15.4659 34.446 19.3202C33.6282 23.1733 32.1456 26.1216 27.6965 26.1216C22.9864 26.1216 23.0042 23.2441 23.8234 19.3884ZM30.0617 15.1086C28.9189 15.1086 28.35 16.2258 27.6865 19.3433C27.0177 22.4825 27.1155 23.6 28.2544 23.6C29.4448 23.6 29.913 22.5308 30.5822 19.3675C31.2613 16.1778 31.2499 15.1086 30.0617 15.1086Z" fill="#006937"/>
<path d="M5.44475 8.80859H11.6371C15.8526 8.80859 16.014 11.8586 15.5646 13.977C14.9161 17.0255 13.0078 19.1702 9.00672 19.1702H7.24387L5.83089 25.8152H1.8291L5.44475 8.80859ZM7.86965 16.2163H8.96761C10.563 16.2163 11.1564 15.2168 11.3993 14.0733C11.6769 12.762 11.4622 11.7604 9.84192 11.7604H8.81934L7.86965 16.2163Z" fill="#006937"/>
<path d="M107.239 19.3884C108.057 15.5371 109.539 12.5859 113.988 12.5859C118.7 12.5859 118.681 15.4659 117.86 19.3202C117.044 23.1733 115.561 26.1216 111.111 26.1216C106.402 26.1216 106.418 23.2441 107.239 19.3884ZM113.476 15.1086C112.333 15.1086 111.765 16.2258 111.101 19.3433C110.433 22.4825 110.53 23.6 111.67 23.6C112.86 23.6 113.327 22.5308 113.997 19.3675C114.675 16.1778 114.665 15.1086 113.476 15.1086Z" fill="#006937"/>
<path d="M92.419 12.5781C90.9875 12.5781 89.7111 13.2914 88.9203 14.4395H88.8712L89.1973 12.9116H85.4735L82.729 25.8212H86.5953L88.3909 17.3739C88.6608 16.1092 89.4266 15.5349 90.1655 15.5349C90.8808 15.5349 91.171 16.0864 90.974 17.0169L89.1024 25.8212H92.9687L95.0241 16.1564C95.5497 13.675 94.6131 12.5781 92.419 12.5781Z" fill="#006937"/>
<path d="M78.9688 12.6172C77.3705 12.6172 76.2267 12.8312 75.1924 13.4506C74.1542 14.0728 73.4032 15.1427 73.005 16.9066H76.4368C76.6975 15.787 77.1437 15.1424 78.2175 15.1424C79.0758 15.1424 79.3272 15.6437 79.1611 16.4295C78.9503 17.4062 78.6932 17.5978 77.4626 17.9068C76.3273 18.1916 74.8479 18.4305 73.7833 18.9564C72.7174 19.4823 71.8313 20.7434 71.5113 22.2446C70.9179 25.0332 71.9391 26.1792 74.109 26.1792C75.3961 26.1792 76.7519 25.5104 77.5177 24.3651H77.5682C77.4854 24.8686 77.4217 25.3884 77.469 25.8446H81.1878C80.8532 25.2729 81.117 24.0345 81.3268 23.0567L82.7334 16.4298C83.3108 13.7151 82.1368 12.6172 78.9688 12.6172ZM78.0038 21.7429C77.73 23.0311 76.8905 23.5072 76.0788 23.5072C75.368 23.5072 75.0925 22.8878 75.3115 21.8617C75.4619 21.1488 75.7392 20.7434 76.2075 20.433C76.6281 20.1482 77.1597 20.1241 78.5097 19.4819C78.4002 20.0039 78.2331 20.6745 78.0038 21.7429Z" fill="#006937"/>
<path d="M102.943 17.7909C103.344 15.91 103.083 15.1232 102.059 15.1232C100.774 15.1232 100.263 16.7431 99.7006 19.3877C99.0837 22.2933 98.9674 23.6256 100.251 23.6256C101.396 23.6256 101.823 22.8398 102.353 20.5771H105.926C105.055 24.5557 103.145 26.1518 99.6437 26.1518C94.785 26.1518 95.1281 22.7463 95.9434 18.912C96.71 15.2899 98.3331 12.5977 102.525 12.5977C106.573 12.5977 107.172 14.7182 106.517 17.7909H102.943Z" fill="#006937"/>
<path d="M2.05478 33.7475H2.84447L2.71647 34.3506C2.57922 34.9945 2.05762 35.2995 1.77318 35.2995C1.08411 35.2995 1.14242 34.4025 1.44642 32.9728C1.75753 31.494 2.11913 30.8971 2.7026 30.8971C3.18296 30.8971 3.26438 31.4535 3.17122 31.8919H4.3186C4.5746 30.6894 4.18598 30.0156 2.8722 30.0156C1.34366 30.0156 0.660285 31.0375 0.237884 33.0332C-0.198028 35.0841 -0.142206 36.1817 1.32731 36.1817C1.88731 36.1817 2.33744 35.9822 2.7186 35.5154H2.73318L2.61762 36.0672H3.49762L4.17887 32.8651H2.24287L2.05478 33.7475ZM7.48128 31.4947C7.41443 31.4862 7.34226 31.4798 7.27505 31.4798C6.80181 31.4798 6.41532 31.7614 6.09354 32.1898H6.07576L6.20056 31.5954H5.10652L4.1554 36.0683H5.30314L5.87345 33.3813C6.00216 32.7833 6.49319 32.5746 6.89141 32.5746C7.00945 32.5746 7.13105 32.5852 7.24768 32.5916L7.48128 31.4947ZM10.1984 31.595L9.56839 34.5582C9.4635 35.0588 9.19292 35.2999 8.80323 35.2999C8.46403 35.2999 8.35097 35.1278 8.44697 34.6759L9.1019 31.5954H7.95452L7.25088 34.9099C7.06457 35.7906 7.40305 36.1824 8.11772 36.1824C8.60092 36.1824 9.05959 35.9829 9.3931 35.5417H9.40946L9.29781 36.0679H10.3951L11.3455 31.595H10.1984ZM14.2607 31.4795C13.8123 31.4795 13.4585 31.6508 13.1247 32.0675H13.1055L13.2054 31.595H12.1099L10.8512 37.5268H11.9958L12.3961 35.6469H12.4132C12.5753 36.0046 12.8299 36.1817 13.2573 36.1817C14.2024 36.1817 14.7805 35.4912 15.1343 33.8283C15.487 32.1678 15.2 31.4795 14.2607 31.4795ZM13.9865 33.8283C13.78 34.8043 13.573 35.2995 13.0756 35.2995C12.5682 35.2995 12.5753 34.8039 12.7837 33.8283C12.9892 32.8569 13.1951 32.3555 13.7017 32.3555C14.1992 32.3555 14.1924 32.8572 13.9865 33.8283ZM17.9009 31.4795C16.5903 31.4795 15.9634 32.2986 15.6399 33.8283C15.3099 35.3863 15.5179 36.2066 16.9007 36.1817C18.2152 36.1817 18.8395 35.3593 19.1641 33.8283C19.4948 32.277 19.2868 31.4539 17.9009 31.4795ZM18.015 33.8283C17.7807 34.9419 17.5325 35.3995 17.0678 35.3995C16.5046 35.3995 16.5906 34.7417 16.7876 33.8283C16.9807 32.9141 17.1716 32.2617 17.7366 32.2617C18.2027 32.2617 18.2539 32.7186 18.015 33.8283ZM24.7894 30.1315H22.6959L21.4333 36.0679H22.6312L23.1357 33.696H23.7764C24.9046 33.696 25.7789 33.1403 26.0406 31.9122C26.2287 31.0208 26.0036 30.1315 24.7894 30.1315ZM24.7663 32.0007C24.6408 32.6051 24.2564 32.8899 23.78 32.8899H23.2495L23.6321 31.0866H24.1302C24.7304 31.0862 24.8911 31.4197 24.7663 32.0007ZM28.9345 31.4947C28.8694 31.4862 28.7965 31.4798 28.7283 31.4798C28.255 31.4798 27.871 31.7614 27.5464 32.1898H27.53L27.6573 31.5954H26.5601L25.609 36.0683H26.7567L27.3291 33.3813C27.4547 32.7833 27.9475 32.5746 28.3457 32.5746C28.4627 32.5746 28.586 32.5852 28.7012 32.5916L28.9345 31.4947ZM30.964 31.4795C29.6506 31.4795 29.028 32.2986 28.703 33.8283C28.3731 35.3863 28.5796 36.2066 29.9652 36.1817C31.2787 36.1817 31.9012 35.3593 32.2287 33.8283C32.5555 32.277 32.3492 31.4539 30.964 31.4795ZM31.0767 33.8283C30.8431 34.9419 30.5971 35.3995 30.1309 35.3995C29.567 35.3995 29.6552 34.7417 29.8493 33.8283C30.0442 32.9141 30.234 32.2617 30.7997 32.2617C31.2652 32.2617 31.3149 32.7186 31.0767 33.8283ZM37.7619 31.4795C37.2204 31.4795 36.7532 31.7198 36.4815 32.1895H36.4623C36.4353 31.7355 36.1085 31.4795 35.5848 31.4795C35.1012 31.4795 34.7073 31.6455 34.3332 32.053H34.3148L34.4147 31.595H33.3153L32.3663 36.0679H33.5116L34.1352 33.1235C34.2476 32.6062 34.5309 32.3555 34.8996 32.3555C35.2253 32.3555 35.3039 32.5689 35.2253 32.9429L34.5619 36.0675H35.7092L36.3322 33.1232C36.4424 32.6058 36.7265 32.3552 37.0924 32.3552C37.4166 32.3552 37.4966 32.5685 37.4191 32.9426L36.7528 36.0672H37.8981L38.5893 32.8153C38.7713 31.9534 38.5192 31.4795 37.7619 31.4795ZM41.2527 31.4795C39.7039 31.4795 39.2378 32.5913 38.9818 33.7856C38.7453 34.9035 38.5402 36.1817 40.2053 36.1817C41.2805 36.1817 41.9038 35.5996 42.1669 34.5579H41.1386C40.9534 35.1125 40.7329 35.3991 40.3489 35.3991C39.9261 35.3991 39.8934 34.8832 40.0076 34.3616L40.0829 34.0032H42.3525L42.4062 33.7472C42.6974 32.374 42.5903 31.4795 41.2527 31.4795ZM41.3999 33.3223H40.2291L40.2646 33.1477C40.3539 32.7335 40.5861 32.2617 41.0437 32.2617C41.5194 32.2617 41.5194 32.6418 41.3999 33.3223ZM45.8358 31.4947C45.7697 31.4862 45.6986 31.4798 45.6325 31.4798C45.1585 31.4798 44.7745 31.7614 44.4478 32.1898H44.43L44.5605 31.5954H43.4625L42.5114 36.0683H43.6566L44.2302 33.3813C44.356 32.7833 44.8478 32.5746 45.2474 32.5746C45.3647 32.5746 45.4856 32.5852 45.6044 32.5916L45.8358 31.4947ZM47.7431 30.0658H46.5946L46.3873 31.0457H47.534L47.7431 30.0658ZM45.3182 36.0679H46.4666L47.4188 31.595H46.2696L45.3182 36.0679ZM51.1312 33.2035C51.3537 32.1536 50.948 31.4795 49.8942 31.4795C48.8389 31.4795 47.9731 31.9932 47.582 33.8283C47.1994 35.6259 47.6488 36.1817 48.793 36.1817C50.0087 36.1817 50.638 35.5246 50.8826 34.3506H49.7893C49.6364 35.0777 49.3935 35.3995 49.0103 35.3995C48.4929 35.3995 48.4919 34.9419 48.7279 33.8407C48.9452 32.8082 49.1447 32.3083 49.7057 32.3083C50.1409 32.3083 50.1256 32.7744 50.0346 33.2035H51.1312ZM53.6552 31.4795C52.7923 31.4795 52.0133 31.8286 51.7925 32.8569L51.7701 32.9653H52.8026L52.8282 32.8426C52.9018 32.491 53.1347 32.2617 53.4814 32.2617C53.8632 32.2617 53.9724 32.4672 53.8974 32.8085C53.8352 33.1065 53.6908 33.2398 53.3285 33.3298L52.6458 33.5065C51.8071 33.7216 51.395 34.0644 51.2165 34.9038C51.091 35.499 51.2289 36.1824 52.0243 36.1824C52.5751 36.1824 52.9267 36.0683 53.2876 35.6003H53.3061C53.3075 35.7486 53.3036 35.9232 53.3456 36.0683H54.4435C54.3792 35.8084 54.3994 35.6167 54.4883 35.2014L54.9857 32.8491C55.1582 32.0451 55.0184 31.4795 53.6552 31.4795ZM53.4931 34.7104C53.3886 35.2007 52.9491 35.3995 52.6412 35.3995C52.3322 35.3995 52.2672 35.1164 52.3411 34.7758C52.424 34.3776 52.6547 34.1536 53.1411 34.0565C53.2894 34.0217 53.4974 33.9463 53.6787 33.8283L53.4931 34.7104Z" fill="#006937"/>
<path d="M147.477 7.62269C141.098 13.884 135.403 20.7953 130.284 28.1191L130.286 28.1237C139.408 20.2001 149.328 13.2007 160 7.52598V7.51282C155.825 7.35318 151.647 7.38518 147.477 7.62269Z" fill="#76BC21"/>
<path d="M126.546 32.2511H126.551C132.084 23.1513 138.5 14.5977 145.953 6.97601C145.053 4.64925 143.203 0 143.203 0C140.678 2.84978 138.447 5.93103 136.39 9.13246C132.418 10.042 128.5 11.1833 124.702 12.6798C124.702 12.6798 129.521 15.9503 131.885 17.6377C129.88 22.2667 126.732 31.6861 126.546 32.2511ZM152.942 30.9288L152.946 30.9242C151.587 25.8674 150.242 20.8057 148.912 15.7344C145.623 17.8614 142.405 20.0896 139.261 22.426C143.864 25.188 148.42 28.031 152.942 30.9288Z" fill="#006937"/>
</svg>
