<svg width="212" height="24" viewBox="0 0 212 24" fill="none" xmlns="http://www.w3.org/2000/svg">
<g clip-path="url(#clip0_31391_355055)">
<path d="M36 21.9428C36 23.0789 35.0473 24 33.872 24H2.12801C0.952734 24.0001 0 23.0789 0 21.9428V2.05718C0 0.920994 0.952734 0 2.12801 0H33.872C35.0473 0 36 0.921062 36 2.05718V21.9428Z" fill="#F7FAFC"/>
<path d="M13.6755 15.7902L15.0159 8.25098H17.1101L15.8117 15.7902H13.6755Z" fill="#3C58BF"/>
<path d="M13.6755 15.7902L15.3928 8.25098H17.1101L15.8117 15.7902H13.6755Z" fill="#293688"/>
<path d="M23.3928 8.33508C22.9739 8.16754 22.3037 8 21.4661 8C19.3718 8 17.864 9.04712 17.864 10.555C17.864 11.6859 18.9111 12.2722 19.7488 12.6492C20.5865 13.0262 20.8378 13.2775 20.8378 13.6126C20.8378 14.1152 20.1676 14.3665 19.5812 14.3665C18.7435 14.3665 18.2828 14.2408 17.5708 13.9476L17.2776 13.822L16.9844 15.5393C17.487 15.7487 18.4085 15.9581 19.3718 15.9581C21.5917 15.9581 23.0577 14.911 23.0577 13.3194C23.0577 12.4398 22.5132 11.7696 21.2566 11.2251C20.5027 10.8482 20.042 10.6387 20.042 10.2618C20.042 9.9267 20.4189 9.59162 21.2566 9.59162C21.9687 9.59162 22.4713 9.71728 22.8483 9.88482L23.0577 9.96858L23.3928 8.33508Z" fill="#3C58BF"/>
<path d="M23.3928 8.33508C22.9739 8.16754 22.3037 8 21.4661 8C19.3718 8 18.2409 9.04712 18.2409 10.555C18.2409 11.6859 18.9111 12.2722 19.7488 12.6492C20.5865 13.0262 20.8378 13.2775 20.8378 13.6126C20.8378 14.1152 20.1676 14.3665 19.5812 14.3665C18.7435 14.3665 18.2828 14.2408 17.5708 13.9476L17.2776 13.822L16.9844 15.5393C17.487 15.7487 18.4085 15.9581 19.3718 15.9581C21.5917 15.9581 23.0577 14.911 23.0577 13.3194C23.0577 12.4398 22.5132 11.7696 21.2566 11.2251C20.5027 10.8482 20.042 10.6387 20.042 10.2618C20.042 9.9267 20.4189 9.59162 21.2566 9.59162C21.9687 9.59162 22.4713 9.71728 22.8483 9.88482L23.0577 9.96858L23.3928 8.33508Z" fill="#293688"/>
<path d="M26.9949 8.25098C26.4923 8.25098 26.1153 8.29286 25.9059 8.79548L22.7645 15.7902H25.0263L25.4451 14.5337H28.1258L28.3771 15.7902H30.3875L28.6284 8.25098H26.9949V8.25098ZM26.0315 13.2772C26.1572 12.9002 26.8692 11.0573 26.8692 11.0573C26.8692 11.0573 27.0368 10.5965 27.1624 10.3033L27.2881 11.0154C27.2881 11.0154 27.7069 12.9002 27.7907 13.319H26.0315V13.2772Z" fill="#3C58BF"/>
<path d="M27.4975 8.25098C26.9949 8.25098 26.6179 8.29286 26.4085 8.79548L22.7645 15.7902H25.0263L25.4451 14.5337H28.1258L28.3771 15.7902H30.3875L28.6284 8.25098H27.4975V8.25098ZM26.0315 13.2772C26.1991 12.8583 26.8692 11.0573 26.8692 11.0573C26.8692 11.0573 27.0368 10.5965 27.1624 10.3033L27.2881 11.0154C27.2881 11.0154 27.7069 12.9002 27.7907 13.319H26.0315V13.2772Z" fill="#293688"/>
<path d="M9.82215 13.5286L9.61272 12.4396C9.23576 11.183 8.0211 9.80082 6.68079 9.13066L8.5656 15.8322H10.8274L14.2201 8.29297H11.9583L9.82215 13.5286Z" fill="#3C58BF"/>
<path d="M9.82215 13.5286L9.61272 12.4396C9.23576 11.183 8.0211 9.80082 6.68079 9.13066L8.5656 15.8322H10.8274L14.2201 8.29297H12.3771L9.82215 13.5286Z" fill="#293688"/>
<path d="M4 8.25098L4.37696 8.33475C7.05759 8.96302 8.90052 10.5546 9.61256 12.4395L8.85864 8.87925C8.73298 8.37663 8.35602 8.25098 7.89529 8.25098H4V8.25098Z" fill="#FFBC00"/>
<path d="M4 8.25098C6.68063 8.87925 8.90052 10.5128 9.61256 12.3976L8.90052 9.42375C8.77487 8.92113 8.35602 8.62794 7.89529 8.62794L4 8.25098Z" fill="#F7981D"/>
<path d="M4 8.25098C6.68063 8.87925 8.90052 10.5128 9.61256 12.3976L9.10995 10.7641C8.98429 10.2614 8.81675 9.75883 8.23037 9.54941L4 8.25098Z" fill="#ED7C00"/>
<path d="M11.9165 13.2773L10.4924 11.8533L9.82225 13.4449L9.65471 12.3978C9.27775 11.1412 8.06309 9.75902 6.72278 9.08887L8.60759 15.7904H10.8694L11.9165 13.2773Z" fill="#051244"/>
<path d="M15.8118 15.7902L14.0107 13.9473L13.6757 15.7902H15.8118Z" fill="#051244"/>
<path d="M20.6285 13.1934C20.796 13.3609 20.8798 13.4866 20.8379 13.6541C20.8379 14.1567 20.1677 14.408 19.5814 14.408C18.7437 14.408 18.2829 14.2824 17.5709 13.9892L17.2777 13.8635L16.9845 15.5808C17.4871 15.7902 18.4086 15.9996 19.3719 15.9996C20.7122 15.9996 21.8012 15.6227 22.4295 14.9525L20.6285 13.1934Z" fill="#051244"/>
<path d="M23.0577 15.7906H25.0263L25.4452 14.5341H28.1258L28.3771 15.7906H30.3876L29.6755 12.733L27.1624 10.3037L27.2881 10.9739C27.2881 10.9739 27.707 12.8587 27.7907 13.2775H26.0316C26.1991 12.8587 26.8693 11.0576 26.8693 11.0576C26.8693 11.0576 27.0368 10.5969 27.1624 10.3037" fill="#051244"/>
</g>
<g clip-path="url(#clip1_31391_355055)">
<path d="M80 21.9428C80 23.0789 79.0473 24 77.872 24H46.128C44.9527 24.0001 44 23.0789 44 21.9428V2.05718C44 0.920994 44.9527 0 46.128 0H77.872C79.0473 0 80 0.921062 80 2.05718V21.9428Z" fill="#F7FAFC"/>
<path fill-rule="evenodd" clip-rule="evenodd" d="M57.2147 19.1562V20.0555V20.9548H56.8222V20.7364C56.6977 20.8984 56.5088 21 56.252 21C55.7459 21 55.349 20.6051 55.349 20.0555C55.349 19.5064 55.7459 19.111 56.252 19.111C56.5088 19.111 56.6977 19.2126 56.8222 19.3746V19.1562H57.2147ZM56.3009 19.4797C55.9611 19.4797 55.7532 19.7394 55.7532 20.0555C55.7532 20.3716 55.9611 20.6313 56.3009 20.6313C56.6255 20.6313 56.8447 20.3828 56.8447 20.0555C56.8447 19.7282 56.6255 19.4797 56.3009 19.4797ZM70.4782 20.0555C70.4782 19.7394 70.6862 19.4797 71.0259 19.4797C71.351 19.4797 71.5697 19.7282 71.5697 20.0555C71.5697 20.3828 71.351 20.6313 71.0259 20.6313C70.6862 20.6313 70.4782 20.3716 70.4782 20.0555ZM71.9401 18.4339V20.0555V20.9548H71.5472V20.7364C71.4227 20.8984 71.2338 21 70.9771 21C70.4709 21 70.0741 20.6051 70.0741 20.0555C70.0741 19.5064 70.4709 19.111 70.9771 19.111C71.2338 19.111 71.4227 19.2126 71.5472 19.3746V18.4339H71.9401ZM62.0867 19.4611C62.3396 19.4611 62.5021 19.6192 62.5436 19.8974H61.6069C61.6488 19.6377 61.807 19.4611 62.0867 19.4611ZM61.1954 20.0555C61.1954 19.4947 61.5654 19.111 62.0945 19.111C62.6002 19.111 62.9478 19.4947 62.9517 20.0555C62.9517 20.108 62.9478 20.1571 62.9439 20.2058H61.6034C61.6601 20.5297 61.8905 20.6464 62.1433 20.6464C62.3245 20.6464 62.5173 20.5784 62.6685 20.4582L62.8609 20.748C62.6417 20.9324 62.3928 21 62.1209 21C61.5805 21 61.1954 20.6275 61.1954 20.0555ZM66.8338 20.0555C66.8338 19.7394 67.0418 19.4797 67.3815 19.4797C67.7061 19.4797 67.9253 19.7282 67.9253 20.0555C67.9253 20.3828 67.7061 20.6313 67.3815 20.6313C67.0418 20.6313 66.8338 20.3716 66.8338 20.0555ZM68.2953 19.1562V20.0555V20.9548H67.9028V20.7364C67.7779 20.8984 67.5894 21 67.3327 21C66.8265 21 66.4297 20.6051 66.4297 20.0555C66.4297 19.5064 66.8265 19.111 67.3327 19.111C67.5894 19.111 67.7779 19.2126 67.9028 19.3746V19.1562H68.2953ZM64.6172 20.0555C64.6172 20.6012 64.9984 21 65.5802 21C65.8521 21 66.0333 20.9397 66.2295 20.7855L66.041 20.4694C65.8936 20.5749 65.7389 20.6313 65.5686 20.6313C65.2552 20.6275 65.0248 20.4018 65.0248 20.0555C65.0248 19.7092 65.2552 19.4835 65.5686 19.4797C65.7389 19.4797 65.8936 19.5361 66.041 19.6416L66.2295 19.3255C66.0333 19.1713 65.8521 19.111 65.5802 19.111C64.9984 19.111 64.6172 19.5098 64.6172 20.0555ZM69.2017 19.3746C69.3037 19.2165 69.4511 19.111 69.6776 19.111C69.7572 19.111 69.8704 19.1261 69.9573 19.1601L69.8363 19.5288C69.7533 19.4947 69.6703 19.4835 69.5907 19.4835C69.334 19.4835 69.2056 19.6489 69.2056 19.9465V20.9548H68.8127V19.1562H69.2017V19.3746ZM59.1559 19.2992C58.9671 19.1752 58.7068 19.111 58.4198 19.111C57.9625 19.111 57.6681 19.3293 57.6681 19.6868C57.6681 19.9801 57.8873 20.161 58.291 20.2174L58.4764 20.2437C58.6917 20.2739 58.7933 20.3303 58.7933 20.4319C58.7933 20.571 58.6498 20.6503 58.3818 20.6503C58.1099 20.6503 57.9136 20.5637 57.7814 20.4621L57.5963 20.7666C57.8116 20.9246 58.0835 21 58.3779 21C58.8992 21 59.2013 20.7554 59.2013 20.413C59.2013 20.0968 58.9636 19.9315 58.5707 19.875L58.3857 19.8483C58.2158 19.8259 58.0796 19.7923 58.0796 19.6717C58.0796 19.54 58.208 19.4611 58.4233 19.4611C58.6537 19.4611 58.8767 19.5477 58.9861 19.6153L59.1559 19.2992ZM63.7449 19.3746C63.8465 19.2165 63.9939 19.111 64.2204 19.111C64.2999 19.111 64.4132 19.1261 64.5 19.1601L64.379 19.5288C64.296 19.4947 64.213 19.4835 64.1335 19.4835C63.8767 19.4835 63.7483 19.6489 63.7483 19.9465V20.9548H63.3558V19.1562H63.7449V19.3746ZM60.8707 19.1562H60.2288V18.6105H59.832V19.1562H59.4658V19.5137H59.832V20.3342C59.832 20.7515 59.9945 21 60.4588 21C60.6291 21 60.8253 20.9475 60.9498 20.8609L60.8365 20.5258C60.7194 20.5934 60.591 20.6275 60.489 20.6275C60.2928 20.6275 60.2288 20.5069 60.2288 20.3264V19.5137H60.8707V19.1562ZM55.0019 19.8259V20.9548H54.6051V19.9539C54.6051 19.6489 54.4767 19.4797 54.2087 19.4797C53.9481 19.4797 53.7669 19.6455 53.7669 19.9577V20.9548H53.3701V19.9539C53.3701 19.6489 53.2383 19.4797 52.9776 19.4797C52.7092 19.4797 52.5354 19.6455 52.5354 19.9577V20.9548H52.139V19.1562H52.532V19.378C52.6794 19.1674 52.8678 19.111 53.0606 19.111C53.3364 19.111 53.5327 19.2316 53.6571 19.431C53.8236 19.1786 54.0613 19.1071 54.2917 19.111C54.73 19.1149 55.0019 19.4008 55.0019 19.8259Z" fill="#231F20"/>
<path d="M64.9746 16.1001H59.0258V5.44824H64.9746V16.1001Z" fill="#FF5F00"/>
<path d="M59.4032 10.7745C59.4032 8.6137 60.4186 6.68894 61.9998 5.44855C60.8435 4.54151 59.3842 4.00013 57.7982 4.00013C54.0436 4.00013 51 7.03306 51 10.7745C51 14.5159 54.0436 17.5488 57.7982 17.5488C59.3842 17.5488 60.8435 17.0074 61.9998 16.1004C60.4186 14.86 59.4032 12.9353 59.4032 10.7745" fill="#EB001B"/>
<path d="M73 10.7745C73 14.5159 69.9564 17.5488 66.2018 17.5488C64.6158 17.5488 63.1565 17.0074 61.9998 16.1004C63.5814 14.86 64.5968 12.9353 64.5968 10.7745C64.5968 8.6137 63.5814 6.68894 61.9998 5.44855C63.1565 4.54151 64.6158 4.00013 66.2018 4.00013C69.9564 4.00013 73 7.03306 73 10.7745" fill="#F79E1B"/>
</g>
<g clip-path="url(#clip2_31391_355055)">
<path d="M124 21.9428C124 23.0789 123.047 24 121.872 24H90.128C88.9527 24.0001 88 23.0789 88 21.9428V2.05718C88 0.920994 88.9527 0 90.128 0H121.872C123.047 0 124 0.921062 124 2.05718V21.9428Z" fill="#006FCF"/>
<path fill-rule="evenodd" clip-rule="evenodd" d="M96.7026 17V12.6717H101.598L102.123 13.3126L102.665 12.6717H120.433V16.7015C120.433 16.7015 119.968 16.9957 119.431 17H109.593L109.001 16.3177V17H107.06V15.8353C107.06 15.8353 106.795 15.9979 106.222 15.9979H105.562V17H102.624L102.099 16.3453L101.567 17H96.7026ZM91 9.40939L92.1013 7H94.006L94.631 8.34964V7H96.9987L97.3708 7.97548L97.7315 7H108.36V7.49041C108.36 7.49041 108.919 7 109.837 7L113.285 7.01131L113.9 8.34329V7H115.881L116.426 7.76511V7H118.426V11.3284H116.426L115.904 10.5608V11.3284H112.993L112.7 10.6461H111.917L111.629 11.3284H109.655C108.865 11.3284 108.36 10.848 108.36 10.848V11.3284H105.383L104.792 10.6461V11.3284H93.7238L93.4313 10.6461H92.6512L92.3607 11.3284H91V9.40939ZM91.0054 10.7745L92.4909 7.53358H93.6171L95.1011 10.7745H94.1127L93.84 10.1255H92.2466L91.9725 10.7745H91.0054ZM93.5262 9.42179L93.0405 8.28772L92.5534 9.42179H93.5262ZM95.2041 10.774V7.53304L96.5784 7.53783L97.3778 9.62739L98.158 7.53304H99.5214V10.774H98.6579V8.38592L97.7426 10.774H96.9854L96.0675 8.38592V10.774H95.2041ZM100.112 10.774V7.53304H102.929V8.25799H100.984V8.81236H102.884V9.49467H100.984V10.0704H102.929V10.774H100.112ZM103.429 10.7745V7.53358H105.35C105.987 7.53358 106.558 7.90302 106.558 8.58503C106.558 9.16805 106.077 9.54358 105.61 9.5805L106.746 10.7745H105.691L104.656 9.62314H104.292V10.7745H103.429ZM105.279 8.25856H104.292V8.94086H105.292C105.465 8.94086 105.688 8.81502 105.688 8.59971C105.688 8.43235 105.516 8.25856 105.279 8.25856ZM107.792 10.774H106.91V7.53304H107.792V10.774ZM109.883 10.774H109.692C108.771 10.774 108.212 10.0933 108.212 9.16684C108.212 8.21751 108.765 7.53304 109.928 7.53304H110.882V8.30063H109.893C109.421 8.30063 109.087 8.64629 109.087 9.17484C109.087 9.80249 109.469 10.0661 110.019 10.0661H110.246L109.883 10.774ZM110.276 10.7745L111.761 7.53358H112.887L114.371 10.7745H113.383L113.11 10.1255H111.517L111.243 10.7745H110.276ZM112.796 9.42179L112.311 8.28772L111.823 9.42179H112.796ZM114.472 10.774V7.53304H115.57L116.972 9.5693V7.53304H117.835V10.774H116.773L115.336 8.68443V10.774H114.472ZM97.2939 16.4456V13.2047H100.112V13.9296H98.1665V14.484H100.066V15.1663H98.1665V15.742H100.112V16.4456H97.2939ZM111.1 16.4456V13.2047H113.918V13.9296H111.973V14.484H113.863V15.1663H111.973V15.742H113.918V16.4456H111.1ZM100.221 16.4456L101.593 14.8452L100.188 13.2047H101.276L102.113 14.2188L102.952 13.2047H103.997L102.611 14.8252L103.986 16.4456H102.898L102.086 15.4475L101.293 16.4456H100.221ZM104.089 16.4462V13.2052H105.996C106.778 13.2052 107.236 13.6785 107.236 14.2953C107.236 15.0399 106.653 15.4227 105.884 15.4227H104.975V16.4462H104.089ZM105.931 13.9382H104.974V14.6845H105.928C106.18 14.6845 106.357 14.5277 106.357 14.3114C106.357 14.0811 106.18 13.9382 105.931 13.9382ZM107.61 16.4456V13.2047H109.532C110.168 13.2047 110.739 13.5741 110.739 14.2561C110.739 14.8392 110.258 15.2147 109.792 15.2516L110.928 16.4456H109.873L108.837 15.2943H108.474V16.4456H107.61ZM109.46 13.9298H108.473V14.6121H109.473C109.646 14.6121 109.869 14.4862 109.869 14.2709C109.869 14.1036 109.697 13.9298 109.46 13.9298ZM114.318 16.4456V15.742H116.046C116.301 15.742 116.412 15.6124 116.412 15.4702C116.412 15.3339 116.302 15.1962 116.046 15.1962H115.265C114.586 15.1962 114.208 14.8081 114.208 14.2255C114.208 13.7058 114.554 13.2047 115.563 13.2047H117.244L116.881 13.9339H115.426C115.148 13.9339 115.063 14.0708 115.063 14.2015C115.063 14.3359 115.169 14.484 115.381 14.484H116.199C116.956 14.484 117.284 14.8868 117.284 15.4142C117.284 15.9812 116.918 16.4456 116.158 16.4456H114.318ZM117.36 16.4456V15.742H119.088C119.344 15.742 119.455 15.6124 119.455 15.4702C119.455 15.3339 119.344 15.1962 119.088 15.1962H118.307C117.629 15.1962 117.251 14.8081 117.251 14.2255C117.251 13.7058 117.597 13.2047 118.605 13.2047H120.287L119.923 13.9339H118.469C118.191 13.9339 118.105 14.0708 118.105 14.2015C118.105 14.3359 118.211 14.484 118.424 14.484H119.242C119.998 14.484 120.327 14.8868 120.327 15.4142C120.327 15.9812 119.961 16.4456 119.2 16.4456H117.36Z" fill="white"/>
</g>
<g clip-path="url(#clip3_31391_355055)">
<path d="M132.408 2.33164V21.6696C132.416 22.1956 132.653 22.6973 133.067 23.0646C133.481 23.4318 134.038 23.6346 134.617 23.6285H165.382C165.96 23.635 166.518 23.4323 166.932 23.0649C167.346 22.6976 167.583 22.1957 167.59 21.6696V2.33164C167.583 1.80554 167.346 1.30365 166.932 0.936302C166.518 0.56896 165.96 0.366242 165.382 0.372721H134.617C134.038 0.366565 133.481 0.569388 133.067 0.936662C132.653 1.30394 132.416 1.80564 132.408 2.33164V2.33164ZM134.617 23.9999C133.93 24.006 133.269 23.7641 132.778 23.3272C132.288 22.8902 132.008 22.2941 132 21.6696V2.33164C132.008 1.70704 132.288 1.11074 132.778 0.673627C133.269 0.236513 133.93 -0.00571207 134.617 0.000114377H165.382C166.069 -0.0060356 166.73 0.236046 167.221 0.673195C167.712 1.11034 167.992 1.70682 168 2.33164V21.6696C167.992 22.2942 167.712 22.8903 167.221 23.3272C166.73 23.7641 166.069 24.006 165.382 23.9999H134.617Z" fill="#004A98"/>
<path d="M138.059 17.0152C138.059 17.4375 138.362 17.4861 138.631 17.4861C139.819 17.4861 140.208 16.5928 140.208 15.7764C140.208 14.751 139.549 14.0102 138.488 14.0102C138.262 14.0102 138.158 14.0271 138.059 14.0328V17.0152ZM137.516 14.4438C137.516 13.9504 137.258 13.9831 137.011 13.9775V13.8408C137.225 13.851 137.445 13.851 137.66 13.851C137.875 13.851 138.203 13.8408 138.611 13.8408C140.034 13.8408 140.809 14.7883 140.809 15.7606C140.809 16.3038 140.49 17.669 138.545 17.669C138.265 17.669 138.006 17.6577 137.753 17.6577C137.499 17.6577 137.264 17.6577 137.017 17.669V17.5268C137.346 17.4929 137.506 17.4827 137.522 17.1089L137.516 14.4438Z" fill="#1D1D1B"/>
<path d="M141.592 14.3119C141.52 14.3119 141.452 14.2836 141.401 14.2332C141.351 14.1828 141.322 14.1145 141.322 14.0432C141.322 13.9719 141.351 13.9035 141.401 13.8531C141.452 13.8027 141.52 13.7744 141.592 13.7744C141.663 13.7744 141.73 13.8021 141.781 13.8515C141.831 13.901 141.86 13.9682 141.861 14.0387C141.861 14.1104 141.833 14.1792 141.783 14.2303C141.732 14.2814 141.664 14.3108 141.592 14.3119ZM141.004 17.5202H141.109C141.262 17.5202 141.372 17.5202 141.372 17.3384V15.8523C141.372 15.6117 141.29 15.5779 141.086 15.4694V15.3814C141.344 15.3046 141.652 15.2007 141.675 15.1837C141.704 15.1662 141.738 15.1569 141.773 15.1566C141.8 15.1566 141.811 15.1894 141.811 15.2334V17.3418C141.811 17.5236 141.933 17.5236 142.087 17.5236H142.179V17.6659C141.993 17.6659 141.8 17.6546 141.603 17.6546C141.406 17.6546 141.207 17.6546 141.004 17.6659V17.5202Z" fill="#1D1D1B"/>
<path d="M142.705 15.8864C142.705 15.6832 142.643 15.629 142.385 15.5239V15.4223C142.632 15.3473 142.874 15.2595 143.111 15.1592C143.128 15.1592 143.144 15.1693 143.144 15.2134V15.5702C143.457 15.3444 143.727 15.1592 144.096 15.1592C144.562 15.1592 144.726 15.498 144.726 15.9271V17.3421C144.726 17.5239 144.849 17.5239 145.001 17.5239H145.101V17.6662C144.907 17.6662 144.716 17.6549 144.518 17.6549C144.32 17.6549 144.122 17.6549 143.924 17.6662V17.5239H144.023C144.177 17.5239 144.287 17.5239 144.287 17.3421V15.9192C144.287 15.6064 144.096 15.4528 143.782 15.4528C143.606 15.4528 143.329 15.5951 143.144 15.7159V17.3421C143.144 17.5239 143.265 17.5239 143.419 17.5239H143.516V17.6662C143.324 17.6662 143.132 17.6549 142.933 17.6549C142.734 17.6549 142.538 17.6549 142.34 17.6662V17.5239H142.44C142.594 17.5239 142.703 17.5239 142.703 17.3421L142.705 15.8864Z" fill="#1D1D1B"/>
<path d="M146.492 15.9737C146.629 15.9737 146.645 15.9025 146.645 15.837C146.645 15.5581 146.474 15.3323 146.166 15.3323C145.827 15.3323 145.6 15.5784 145.535 15.9737H146.492ZM145.519 16.1499C145.506 16.2553 145.506 16.3618 145.519 16.4672C145.55 16.9889 145.887 17.4158 146.326 17.4158C146.629 17.4158 146.866 17.2509 147.068 17.0488L147.145 17.1255C146.892 17.4643 146.579 17.7455 146.127 17.7455C145.253 17.7455 145.076 16.9008 145.076 16.5496C145.076 15.4746 145.802 15.1572 146.187 15.1572C146.631 15.1572 147.11 15.4362 147.116 16.0177C147.119 16.0508 147.119 16.084 147.116 16.1171L147.066 16.1499H145.519Z" fill="#1D1D1B"/>
<path d="M147.244 17.5212H147.393C147.546 17.5212 147.656 17.5212 147.656 17.3393V15.799C147.656 15.6296 147.453 15.5957 147.371 15.5517V15.4704C147.771 15.2999 147.991 15.1576 148.042 15.1576C148.074 15.1576 148.091 15.1734 148.091 15.2287V15.7222H148.102C148.239 15.5088 148.47 15.1576 148.805 15.1576C148.845 15.1556 148.885 15.1616 148.922 15.1752C148.959 15.1888 148.994 15.2098 149.023 15.2368C149.052 15.2638 149.076 15.2964 149.092 15.3327C149.108 15.3689 149.117 15.4081 149.118 15.4478C149.12 15.4832 149.115 15.5186 149.103 15.5519C149.091 15.5852 149.072 15.6158 149.048 15.6419C149.024 15.668 148.995 15.689 148.963 15.7038C148.931 15.7185 148.896 15.7267 148.86 15.7279C148.689 15.7279 148.689 15.5957 148.497 15.5957C148.387 15.6111 148.287 15.665 148.213 15.7478C148.14 15.8306 148.098 15.9369 148.096 16.0475V17.3427C148.096 17.5245 148.209 17.5245 148.36 17.5245H148.667V17.6668C148.365 17.6612 148.135 17.6555 147.898 17.6555C147.662 17.6555 147.445 17.6555 147.244 17.6668V17.5212Z" fill="#1D1D1B"/>
<path d="M149.359 16.9008C149.431 17.2622 149.651 17.5693 150.053 17.5693C150.377 17.5693 150.497 17.3717 150.497 17.1809C150.497 16.5327 149.299 16.7416 149.299 15.8596C149.299 15.5513 149.547 15.1572 150.151 15.1572C150.369 15.1626 150.583 15.217 150.777 15.3165L150.816 15.8754H150.689C150.635 15.5299 150.442 15.3323 150.09 15.3323C149.871 15.3323 149.662 15.4587 149.662 15.6948C149.662 16.3362 150.937 16.1386 150.937 16.9991C150.937 17.3616 150.646 17.7455 149.992 17.7455C149.757 17.7388 149.526 17.6748 149.322 17.5592L149.26 16.9279L149.359 16.9008Z" fill="#1D1D1B"/>
<path d="M155.901 14.8277H155.764C155.659 14.1874 155.198 13.9243 154.588 13.9243C153.955 13.9243 153.037 14.3466 153.037 15.6622C153.037 16.77 153.829 17.565 154.675 17.565C154.942 17.565 155.201 17.4693 155.404 17.2952C155.606 17.1212 155.74 16.8803 155.78 16.6164L155.907 16.6492L155.78 17.4555C155.553 17.5978 154.928 17.7468 154.565 17.7468C153.279 17.7468 152.466 16.9191 152.466 15.6848C152.466 14.5555 153.472 13.7549 154.549 13.7549C154.994 13.7549 155.423 13.8972 155.845 14.0462L155.901 14.8277Z" fill="#1D1D1B"/>
<path d="M156.099 17.5203H156.203C156.357 17.5203 156.467 17.5203 156.467 17.3385V14.2895C156.467 13.9326 156.385 13.9225 156.176 13.8615V13.7745C156.371 13.7123 156.56 13.6334 156.742 13.5385C156.779 13.5138 156.82 13.4933 156.862 13.4775C156.896 13.4775 156.907 13.5114 156.907 13.5555V17.3419C156.907 17.5237 157.028 17.5237 157.182 17.5237H157.275V17.666C157.088 17.666 156.896 17.6547 156.698 17.6547C156.5 17.6547 156.303 17.6547 156.099 17.666V17.5203Z" fill="#1D1D1B"/>
<path d="M159.627 17.3613C159.627 17.4596 159.687 17.4652 159.781 17.4652C159.846 17.4652 159.929 17.4596 160 17.4596V17.5725C159.732 17.6106 159.468 17.6676 159.208 17.743L159.181 17.7261V17.2823C158.851 17.551 158.598 17.743 158.207 17.743C157.91 17.743 157.603 17.551 157.603 17.0903V15.6889C157.603 15.5454 157.581 15.4088 157.273 15.3817V15.2778C157.471 15.2778 157.91 15.2394 157.982 15.2394C158.053 15.2394 158.043 15.2778 158.043 15.3986V16.8125C158.043 16.9774 158.043 17.4483 158.521 17.4483C158.707 17.4483 158.955 17.306 159.185 17.1151V15.6392C159.185 15.5262 158.921 15.4698 158.724 15.4133V15.3151C159.219 15.2812 159.527 15.2383 159.581 15.2383C159.636 15.2383 159.625 15.2767 159.625 15.3365L159.627 17.3613Z" fill="#1D1D1B"/>
<path d="M160.722 17.0423C160.729 17.19 160.79 17.3299 160.895 17.4345C161 17.539 161.14 17.6005 161.288 17.6069C161.877 17.6069 162.124 17.0321 162.124 16.5431C162.124 15.9514 161.671 15.4579 161.245 15.4579C161.041 15.4579 160.871 15.59 160.722 15.7165V17.0423ZM160.722 15.5505C160.942 15.3653 161.24 15.1564 161.542 15.1564C162.179 15.1564 162.561 15.7109 162.561 16.3082C162.561 17.0265 162.033 17.7447 161.246 17.7447C160.98 17.744 160.717 17.6781 160.482 17.5527L160.319 17.6803L160.206 17.6205C160.257 17.2977 160.283 16.9715 160.283 16.6448V14.2846C160.283 13.9278 160.2 13.9176 159.991 13.8566V13.7697C160.186 13.7079 160.376 13.6289 160.557 13.5336C160.595 13.5087 160.636 13.4882 160.679 13.4727C160.712 13.4727 160.722 13.5065 160.722 13.5506V15.5505Z" fill="#1D1D1B"/>
<path d="M137.01 20.8506H137.052C137.159 20.8506 137.278 20.8359 137.278 20.6801V19.1172C137.278 18.9624 137.165 18.9466 137.052 18.9466H137.01V18.8574C137.123 18.8574 137.306 18.8698 137.454 18.8698C137.601 18.8698 137.782 18.8574 137.922 18.8574V18.9466H137.88C137.773 18.9466 137.66 18.9624 137.66 19.1172V20.6801C137.66 20.8359 137.773 20.8506 137.88 20.8506H137.922V20.9398C137.778 20.9398 137.6 20.9285 137.45 20.9285C137.301 20.9285 137.126 20.9398 137.01 20.9398V20.8506Z" fill="#1D1D1B"/>
<path d="M137.909 20.9278V20.8645H137.88C137.773 20.8645 137.645 20.8453 137.645 20.6805V19.1176C137.645 18.9527 137.773 18.9346 137.88 18.9346H137.909V18.8714C137.771 18.8714 137.598 18.8827 137.456 18.8827C137.315 18.8827 137.141 18.8714 137.026 18.8714V18.9346H137.054C137.161 18.9346 137.289 18.9527 137.289 19.1176V20.6805C137.289 20.8453 137.161 20.8645 137.054 20.8645H137.026V20.9278C137.139 20.9278 137.31 20.9153 137.453 20.9153C137.595 20.9153 137.771 20.9266 137.912 20.9278H137.909ZM137.925 20.9526C137.78 20.9526 137.601 20.9413 137.453 20.9413C137.305 20.9413 137.13 20.9526 137.012 20.9526H137V20.8397H137.054C137.168 20.8397 137.261 20.8284 137.263 20.6827V19.1176C137.263 18.9719 137.163 18.9628 137.054 18.9606H137V18.8477H137.012C137.126 18.8477 137.309 18.8589 137.456 18.8589C137.603 18.8589 137.783 18.8477 137.925 18.8477H137.938V18.9606H137.883C137.77 18.9606 137.676 18.9719 137.675 19.1176V20.6805C137.675 20.8261 137.774 20.8352 137.883 20.8374H137.938V20.9504L137.925 20.9526Z" fill="#1D1D1B"/>
<path d="M139.977 20.3526L139.983 20.3458V19.2278C139.988 19.1915 139.985 19.1545 139.975 19.1194C139.964 19.0844 139.945 19.0522 139.92 19.0252C139.895 18.9983 139.864 18.9772 139.83 18.9636C139.796 18.95 139.759 18.9442 139.723 18.9466H139.657V18.8574C139.798 18.8574 139.935 18.8698 140.076 18.8698C140.198 18.8698 140.321 18.8574 140.444 18.8574V18.9466H140.4C140.273 18.9466 140.132 18.9703 140.132 19.3261V20.6812C140.131 20.782 140.137 20.8828 140.151 20.9827H140.037L138.498 19.2696V20.5039C138.498 20.7636 138.549 20.8528 138.779 20.8528H138.829V20.9421C138.702 20.9421 138.573 20.9308 138.445 20.9308C138.317 20.9308 138.172 20.9421 138.037 20.9421V20.8528H138.084C138.291 20.8528 138.353 20.7128 138.353 20.4745V19.2154C138.353 19.1799 138.346 19.1447 138.333 19.1118C138.319 19.079 138.299 19.0492 138.274 19.0242C138.248 18.9992 138.218 18.9794 138.185 18.9661C138.152 18.9528 138.117 18.9462 138.081 18.9466H138.042V18.8574C138.155 18.8574 138.268 18.8698 138.381 18.8698C138.471 18.8698 138.558 18.8574 138.647 18.8574L139.977 20.3526Z" fill="#1D1D1B"/>
<path d="M139.976 20.353L139.985 20.3439L139.976 20.353ZM140.035 20.9718H140.135C140.123 20.8763 140.117 20.7801 140.119 20.6838V19.3287C140.119 18.9707 140.27 18.9369 140.399 18.9369H140.429V18.8736C140.316 18.8736 140.194 18.8849 140.075 18.8849C139.938 18.8849 139.804 18.8736 139.67 18.8736V18.9369H139.722C139.76 18.9347 139.798 18.941 139.834 18.9553C139.87 18.9696 139.902 18.9916 139.928 19.0196C139.954 19.0476 139.973 19.081 139.985 19.1175C139.997 19.1539 140.001 19.1925 139.996 19.2305V20.3597V20.3654L139.985 20.3744L138.649 18.8714C138.56 18.8714 138.473 18.8827 138.383 18.8827C138.269 18.8827 138.156 18.8714 138.052 18.8714V18.9346H138.079C138.116 18.9342 138.153 18.9411 138.188 18.9551C138.222 18.969 138.254 18.9897 138.28 19.0158C138.307 19.042 138.328 19.0732 138.342 19.1075C138.356 19.1418 138.363 19.1786 138.363 19.2158V20.4727C138.363 20.7109 138.297 20.8634 138.081 20.8645H138.049V20.9289C138.178 20.9289 138.311 20.9165 138.441 20.9165C138.572 20.9165 138.692 20.9278 138.815 20.9289V20.8657H138.777C138.541 20.8657 138.483 20.7629 138.483 20.5032V19.2395L140.035 20.9718ZM140.148 20.9978H140.025L138.508 19.3061V20.5043C138.508 20.764 138.551 20.8431 138.777 20.8431H138.841V20.956H138.827C138.698 20.956 138.569 20.9447 138.441 20.9447C138.314 20.9447 138.171 20.956 138.035 20.956H138.021V20.8431H138.083C138.281 20.8431 138.337 20.7155 138.34 20.4783V19.2158C138.34 19.182 138.333 19.1485 138.32 19.1173C138.307 19.0862 138.288 19.0579 138.263 19.0341C138.239 19.0104 138.211 18.9917 138.179 18.979C138.148 18.9664 138.114 18.9601 138.08 18.9606H138.027V18.8477H138.041C138.154 18.8477 138.267 18.8589 138.38 18.8589C138.469 18.8589 138.556 18.8477 138.657 18.8522L139.971 20.3281V19.2282C139.971 18.9911 139.81 18.9628 139.723 18.9606H139.645V18.8477H139.657C139.799 18.8477 139.937 18.8589 140.076 18.8589C140.197 18.8589 140.321 18.8477 140.444 18.8477H140.46V18.9606H140.402C140.279 18.9606 140.152 18.9741 140.147 19.3265V20.6816C140.146 20.7817 140.152 20.8817 140.165 20.9808V20.9955L140.148 20.9978Z" fill="#1D1D1B"/>
<path d="M140.891 19.0063C140.664 19.0063 140.657 19.0605 140.612 19.2785H140.523C140.534 19.1949 140.549 19.1113 140.559 19.0244C140.57 18.9405 140.576 18.856 140.576 18.7714H140.648C140.672 18.8606 140.747 18.8572 140.828 18.8572H142.37C142.452 18.8572 142.526 18.8572 142.532 18.7646L142.603 18.7771C142.592 18.8572 142.58 18.9374 142.572 19.0187C142.564 19.1 142.572 19.1791 142.572 19.2604L142.481 19.2931C142.481 19.1802 142.461 19.0063 142.255 19.0063H141.763V20.5941C141.763 20.8199 141.869 20.8504 142.012 20.8504H142.069V20.9396C141.956 20.9396 141.743 20.9283 141.581 20.9283C141.419 20.9283 141.193 20.9396 141.076 20.9396V20.8504H141.139C141.304 20.8504 141.386 20.8357 141.386 20.5997V19.0063H140.891Z" fill="#1D1D1B"/>
<path d="M142.069 20.956C141.956 20.956 141.742 20.9447 141.581 20.9447C141.402 20.9447 141.193 20.956 141.076 20.956H141.063V20.8431H141.139C141.304 20.8431 141.365 20.8431 141.373 20.6059V19.0249H140.891V18.9978H141.393V20.6048C141.393 20.8442 141.297 20.869 141.133 20.869H141.089V20.9323C141.202 20.9323 141.408 20.9198 141.581 20.9198C141.754 20.9198 141.937 20.9311 142.055 20.9323V20.869H142.012C141.868 20.869 141.751 20.8329 141.751 20.5991V18.9933H142.255C142.455 18.9933 142.481 19.165 142.488 19.2756L142.552 19.2519C142.552 19.174 142.552 19.0961 142.558 19.017C142.564 18.938 142.577 18.8646 142.589 18.7912L142.543 18.7844C142.53 18.8702 142.446 18.8759 142.37 18.8747H140.813C140.742 18.8747 140.665 18.8747 140.638 18.7878H140.59C140.589 18.8686 140.583 18.9494 140.571 19.0294C140.562 19.1119 140.549 19.1909 140.539 19.27H140.602C140.642 19.0611 140.667 18.9944 140.891 18.9967V19.0238C140.664 19.0238 140.673 19.0645 140.625 19.2847V19.2948H140.511V19.2801C140.524 19.1966 140.539 19.113 140.548 19.0261C140.56 18.9431 140.566 18.8593 140.566 18.7754V18.7618H140.661V18.7708C140.681 18.8465 140.737 18.8465 140.813 18.8488H142.37C142.454 18.8488 142.514 18.8488 142.52 18.7675V18.7539H142.533L142.618 18.7675V18.781C142.606 18.8612 142.594 18.9414 142.585 19.0215C142.576 19.1017 142.585 19.1808 142.585 19.2621V19.2711H142.576L142.471 19.3095V19.2926C142.463 19.1796 142.452 19.0182 142.263 19.0182H141.777V20.5946C141.777 20.8205 141.87 20.8351 142.012 20.8374H142.082V20.9503L142.069 20.956Z" fill="#1D1D1B"/>
<path d="M142.7 20.8506H142.742C142.855 20.8506 142.968 20.8359 142.968 20.6801V19.1172C142.968 18.9624 142.855 18.9466 142.742 18.9466H142.7V18.8574C142.882 18.8574 143.193 18.8698 143.444 18.8698C143.694 18.8698 144.01 18.8574 144.21 18.8574C144.21 18.9862 144.21 19.1827 144.216 19.3091L144.126 19.3328C144.111 19.1397 144.075 18.985 143.762 18.985H143.346V19.7654H143.702C143.88 19.7654 143.92 19.6648 143.938 19.5034H144.028C144.028 19.6163 144.019 19.736 144.019 19.8523C144.019 19.9686 144.019 20.0782 144.028 20.1911L143.938 20.2092C143.92 20.0307 143.911 19.9144 143.705 19.9144H143.346V20.6168C143.346 20.8111 143.519 20.8111 143.711 20.8111C144.07 20.8111 144.228 20.7873 144.317 20.4474L144.401 20.4678C144.363 20.6259 144.326 20.784 144.299 20.9421C144.108 20.9421 143.764 20.9308 143.496 20.9308C143.227 20.9308 142.871 20.9421 142.703 20.9421L142.7 20.8506Z" fill="#1D1D1B"/>
<path d="M144.288 20.9278C144.315 20.7764 144.349 20.6263 144.385 20.4761L144.326 20.4614C144.237 20.7945 144.064 20.825 143.71 20.8227C143.521 20.8227 143.334 20.8227 143.332 20.615V19.9069H143.704C143.913 19.9069 143.93 20.0311 143.949 20.2005L144.014 20.187C144.008 20.074 144.005 19.9668 144.005 19.8572C144.005 19.7477 144.005 19.6314 144.014 19.5184H143.949C143.932 19.6743 143.884 19.7838 143.701 19.7816H143.332V18.9741H143.761C144.073 18.9741 144.124 19.1322 144.137 19.3197L144.202 19.3028C144.202 19.2181 144.193 19.1096 144.193 19.0103C144.193 18.9595 144.193 18.9109 144.193 18.8691C143.99 18.8691 143.687 18.8804 143.44 18.8804C143.193 18.8804 142.892 18.8691 142.709 18.8691V18.9324H142.738C142.845 18.9324 142.971 18.9504 142.972 19.1153V20.6782C142.972 20.8431 142.845 20.8611 142.738 20.8623H142.712V20.9255C142.886 20.9255 143.233 20.9131 143.495 20.9131C143.758 20.9131 144.095 20.9244 144.288 20.9255V20.9278ZM144.299 20.9504C144.108 20.9504 143.764 20.9391 143.495 20.9391C143.227 20.9391 142.871 20.9504 142.703 20.9504H142.691V20.8374H142.745C142.858 20.8374 142.952 20.8261 142.953 20.6805V19.1176C142.953 18.9719 142.854 18.9628 142.745 18.9606H142.691V18.8477H142.703C142.885 18.8477 143.197 18.8589 143.447 18.8589C143.697 18.8589 144.013 18.8477 144.213 18.8477H144.226V18.8612C144.226 18.9052 144.226 18.9583 144.226 19.0148C144.226 19.1176 144.226 19.2305 144.235 19.3163V19.3265H144.224L144.119 19.3536V19.3378C144.101 19.1447 144.075 18.999 143.767 18.999H143.358V19.7545H143.698C143.87 19.7545 143.901 19.6641 143.924 19.5038V19.4913H144.038V19.5049C144.038 19.6178 144.029 19.7375 144.029 19.8538C144.029 19.9701 144.029 20.0797 144.038 20.1926V20.2028H144.026L143.922 20.2231V20.2096C143.902 20.0266 143.901 19.9272 143.696 19.925H143.356V20.6025C143.356 20.7844 143.514 20.7832 143.708 20.7844C144.068 20.7844 144.212 20.764 144.302 20.4298V20.4173H144.315L144.41 20.4422V20.4546C144.372 20.6127 144.335 20.7697 144.308 20.9278V20.9379L144.299 20.9504Z" fill="#1D1D1B"/>
<path d="M145.188 19.8657H145.334C145.633 19.8657 145.795 19.7528 145.795 19.4004C145.799 19.3421 145.791 19.2836 145.771 19.2288C145.75 19.174 145.718 19.1242 145.677 19.0829C145.635 19.0416 145.585 19.0096 145.53 18.9892C145.475 18.9687 145.417 18.9603 145.358 18.9646C145.301 18.9651 145.245 18.9693 145.188 18.977V19.8657ZM144.806 19.1735C144.806 18.9555 144.686 18.9476 144.593 18.9476H144.535V18.8584C144.631 18.8584 144.817 18.8708 144.999 18.8708C145.182 18.8708 145.322 18.8584 145.48 18.8584C145.856 18.8584 146.193 18.96 146.193 19.3835C146.193 19.6523 146.013 19.816 145.777 19.9086L146.288 20.672C146.316 20.7249 146.358 20.7695 146.409 20.801C146.46 20.8325 146.518 20.85 146.579 20.8516V20.9408C146.479 20.9408 146.384 20.9295 146.285 20.9295C146.187 20.9295 146.096 20.9408 146.005 20.9408C145.775 20.6334 145.567 20.3104 145.382 19.9741H145.188V20.6167C145.188 20.8425 145.302 20.8549 145.433 20.8549H145.487V20.9442C145.316 20.9442 145.148 20.9329 144.972 20.9329C144.83 20.9329 144.688 20.9442 144.539 20.9442V20.8549H144.593C144.706 20.8549 144.806 20.8041 144.806 20.6935V19.1735Z" fill="#1D1D1B"/>
<path d="M145.334 19.8538C145.63 19.8538 145.779 19.7477 145.787 19.4021C145.791 19.3455 145.783 19.2886 145.763 19.2354C145.743 19.1822 145.712 19.1339 145.672 19.0937C145.631 19.0536 145.583 19.0225 145.53 19.0027C145.476 18.9828 145.419 18.9746 145.363 18.9787C145.31 18.9791 145.257 18.9829 145.205 18.9899V19.855L145.334 19.8538ZM145.188 19.8787H145.175V18.9651H145.186C145.243 18.9585 145.301 18.9547 145.358 18.9538C145.419 18.9492 145.48 18.9578 145.537 18.9789C145.594 19 145.645 19.0331 145.688 19.076C145.731 19.1189 145.765 19.1705 145.786 19.2274C145.807 19.2843 145.815 19.345 145.811 19.4055C145.811 19.7624 145.639 19.8832 145.338 19.8832L145.188 19.8787ZM145.188 19.9611H145.392V19.9679C145.577 20.2999 145.781 20.6204 146.004 20.9278C146.095 20.9278 146.191 20.9153 146.284 20.9153C146.377 20.9153 146.472 20.9266 146.565 20.9278V20.8623C146.505 20.8598 146.447 20.8415 146.396 20.8094C146.346 20.7773 146.305 20.7324 146.277 20.6793L145.756 19.9024H145.771C146.006 19.8098 146.179 19.6506 146.179 19.3886C146.179 18.9741 145.856 18.8781 145.48 18.877C145.323 18.877 145.179 18.8883 144.999 18.8883C144.819 18.8883 144.646 18.877 144.546 18.877V18.9403H144.588C144.681 18.9403 144.815 18.9561 144.815 19.1797V20.6951C144.815 20.816 144.701 20.8702 144.588 20.8702H144.546V20.9334C144.69 20.9334 144.827 20.921 144.967 20.921C145.135 20.921 145.307 20.9323 145.469 20.9334V20.8702H145.428C145.292 20.8702 145.17 20.8532 145.17 20.6172V19.9668L145.188 19.9611ZM146.582 20.956C146.481 20.956 146.386 20.9447 146.287 20.9447C146.189 20.9447 146.101 20.956 145.996 20.9515C145.769 20.6452 145.562 20.3242 145.377 19.9905H145.201V20.6172C145.201 20.8431 145.295 20.8431 145.433 20.8431H145.5V20.956H145.486C145.315 20.956 145.146 20.9447 144.972 20.9447C144.829 20.9447 144.689 20.956 144.538 20.956H144.526V20.8431H144.593C144.7 20.8431 144.791 20.7956 144.792 20.6951V19.174C144.792 18.9628 144.686 18.964 144.593 18.9606H144.526V18.8477H144.535C144.632 18.8477 144.817 18.8589 144.999 18.8589C145.181 18.8589 145.321 18.8477 145.48 18.8477C145.857 18.8477 146.205 18.9515 146.206 19.3852C146.206 19.654 146.027 19.8222 145.796 19.9159L146.299 20.6669C146.325 20.7184 146.366 20.7617 146.415 20.7921C146.464 20.8225 146.521 20.839 146.579 20.8397H146.591V20.9526L146.582 20.956Z" fill="#1D1D1B"/>
<path d="M148.611 20.3526V20.3458V19.2278C148.616 19.1915 148.613 19.1545 148.602 19.1194C148.591 19.0844 148.573 19.0522 148.548 19.0252C148.523 18.9983 148.492 18.9772 148.458 18.9636C148.424 18.95 148.387 18.9442 148.35 18.9466H148.286V18.8574C148.426 18.8574 148.563 18.8698 148.703 18.8698C148.844 18.8698 148.948 18.8574 149.072 18.8574V18.9466H149.027C148.901 18.9466 148.761 18.9703 148.761 19.3261V20.6812C148.759 20.782 148.765 20.8828 148.778 20.9827H148.665L147.125 19.2696V20.5039C147.125 20.7636 147.175 20.8528 147.406 20.8528H147.457V20.9421C147.328 20.9421 147.2 20.9308 147.071 20.9308C146.942 20.9308 146.798 20.9421 146.665 20.9421V20.8528H146.705C146.913 20.8528 146.976 20.7128 146.976 20.4745V19.2154C146.976 19.1798 146.969 19.1446 146.955 19.1118C146.941 19.0789 146.921 19.0491 146.896 19.0241C146.87 18.9991 146.84 18.9794 146.807 18.9661C146.774 18.9528 146.739 18.9462 146.703 18.9466H146.665V18.8574C146.778 18.8574 146.891 18.8698 147.004 18.8698C147.093 18.8698 147.18 18.8574 147.27 18.8574L148.611 20.3526Z" fill="#1D1D1B"/>
<path d="M148.616 20.353L148.627 20.3439L148.616 20.353ZM148.676 20.9718H148.775C148.763 20.8763 148.757 20.7801 148.759 20.6838V19.3287C148.759 18.9707 148.911 18.9369 149.039 18.9369H149.062V18.8736C148.949 18.8736 148.826 18.8849 148.707 18.8849C148.57 18.8849 148.437 18.8736 148.302 18.8736V18.9369H148.354C148.392 18.9347 148.431 18.941 148.466 18.9553C148.502 18.9696 148.534 18.9916 148.56 19.0196C148.586 19.0476 148.606 19.081 148.617 19.1175C148.629 19.1539 148.633 19.1925 148.628 19.2305V20.3597V20.3654L148.619 20.3744L147.289 18.8748C147.199 18.8748 147.112 18.8861 147.023 18.8861C146.909 18.8861 146.796 18.8748 146.691 18.8748V18.938H146.717C146.754 18.9375 146.791 18.9445 146.826 18.9584C146.86 18.9724 146.892 18.993 146.918 19.0192C146.945 19.0454 146.966 19.0765 146.98 19.1109C146.994 19.1452 147.001 19.182 147.001 19.2192V20.4749C147.001 20.7143 146.934 20.8668 146.719 20.8679H146.685V20.9312C146.814 20.9312 146.948 20.9187 147.079 20.9187C147.211 20.9187 147.328 20.93 147.452 20.9312V20.8679H147.414C147.179 20.8679 147.12 20.7652 147.12 20.5054V19.2395L148.676 20.9718ZM148.79 20.9978H148.667L147.149 19.3107V20.5043C147.149 20.764 147.192 20.8431 147.418 20.8431H147.478V20.956H147.464C147.335 20.956 147.207 20.9447 147.079 20.9447C146.951 20.9447 146.808 20.956 146.673 20.956H146.659V20.8431H146.714C146.912 20.8431 146.968 20.7155 146.971 20.4772V19.2158C146.971 19.182 146.964 19.1485 146.951 19.1173C146.938 19.0862 146.919 19.0579 146.894 19.0341C146.87 19.0104 146.842 18.9917 146.81 18.979C146.779 18.9664 146.745 18.9601 146.711 18.9606H146.659V18.8477H146.673C146.786 18.8477 146.899 18.8589 147.012 18.8589C147.1 18.8589 147.187 18.8477 147.286 18.851L148.61 20.3259V19.2282C148.61 18.9911 148.449 18.9617 148.362 18.9606H148.284V18.8477H148.296C148.438 18.8477 148.576 18.8589 148.715 18.8589C148.854 18.8589 148.959 18.8477 149.083 18.8477H149.096V18.9606H149.039C148.915 18.9606 148.787 18.9741 148.785 19.3265V20.6816C148.783 20.7817 148.789 20.8818 148.803 20.9808V20.9955L148.79 20.9978Z" fill="#1D1D1B"/>
<path d="M149.996 19.1921H149.99L149.712 20.0368H150.272L149.996 19.1921ZM149.56 20.5145C149.53 20.5875 149.508 20.6631 149.494 20.7404C149.494 20.8307 149.62 20.8454 149.72 20.8454H149.753V20.9346C149.633 20.9278 149.512 20.9233 149.391 20.9233C149.27 20.9233 149.177 20.9233 149.068 20.9346V20.8454H149.086C149.145 20.8453 149.202 20.8264 149.249 20.7914C149.296 20.7564 149.33 20.7072 149.347 20.6511L149.824 19.2825C149.872 19.1622 149.91 19.0383 149.938 18.9121C150.032 18.8781 150.123 18.835 150.209 18.7833C150.217 18.7804 150.225 18.7785 150.233 18.7777C150.237 18.777 150.241 18.7774 150.245 18.779C150.249 18.7806 150.252 18.7833 150.255 18.7867C150.262 18.8104 150.272 18.8375 150.281 18.8612L150.832 20.4219C150.867 20.5258 150.903 20.6365 150.945 20.7257C150.96 20.7647 150.988 20.7977 151.024 20.8193C151.059 20.841 151.101 20.8502 151.143 20.8454H151.161V20.9346C151.025 20.9278 150.891 20.9233 150.748 20.9233C150.605 20.9233 150.452 20.9233 150.295 20.9346V20.8454H150.328C150.397 20.8454 150.515 20.833 150.515 20.7584C150.503 20.6847 150.483 20.6127 150.454 20.5439L150.341 20.1983H149.661L149.56 20.5145Z" fill="#1D1D1B"/>
<path d="M149.982 19.1956H149.99H149.982ZM149.728 20.0222H150.252L149.992 19.2227L149.728 20.0222ZM149.693 20.0482L149.979 19.1775H149.995V19.1911V19.1775H150.004L150.288 20.0482H149.693ZM150.304 20.9256C150.453 20.92 150.597 20.9143 150.74 20.9143C150.883 20.9143 151.009 20.92 151.14 20.9256V20.8635C151.095 20.8679 151.051 20.8578 151.013 20.8348C150.975 20.8118 150.946 20.7771 150.929 20.7359C150.891 20.6456 150.854 20.5349 150.816 20.4299L150.265 18.8704C150.256 18.8466 150.248 18.8195 150.24 18.7981C150.234 18.7971 150.228 18.7971 150.222 18.7981C150.139 18.8497 150.049 18.8896 149.956 18.9167C149.928 19.0437 149.89 19.1683 149.842 19.2893L149.365 20.6591C149.347 20.7176 149.311 20.7688 149.262 20.8054C149.213 20.8419 149.153 20.8619 149.092 20.8624V20.9245C149.194 20.9188 149.298 20.9132 149.402 20.9132C149.506 20.9132 149.635 20.9188 149.75 20.9245V20.8624H149.73C149.633 20.8624 149.497 20.85 149.493 20.7438C149.507 20.6632 149.53 20.5841 149.559 20.5078H149.572H149.559L149.658 20.1893H150.355L150.475 20.5428C150.504 20.6131 150.524 20.6867 150.535 20.7619C150.535 20.8533 150.405 20.8601 150.337 20.8624H150.308L150.304 20.9256ZM151.152 20.9516C151.017 20.9459 150.883 20.9403 150.74 20.9403C150.597 20.9403 150.445 20.9403 150.287 20.9516H150.274V20.8387H150.319C150.389 20.8387 150.491 20.8229 150.492 20.7653C150.48 20.6932 150.46 20.6227 150.432 20.5552L150.319 20.2164H149.659L149.566 20.518C149.537 20.5908 149.515 20.6665 149.501 20.7438C149.501 20.8172 149.614 20.8353 149.712 20.8353H149.759V20.9482H149.745C149.625 20.9426 149.503 20.9369 149.384 20.9369C149.265 20.9369 149.169 20.9369 149.061 20.9482H149.048V20.8353H149.078C149.134 20.8355 149.189 20.8175 149.233 20.7841C149.278 20.7507 149.311 20.7036 149.326 20.6501L149.805 19.2814C149.851 19.1575 149.891 19.0312 149.924 18.9031C150.018 18.8693 150.109 18.8266 150.196 18.7755C150.204 18.7711 150.214 18.7688 150.224 18.7687C150.23 18.7681 150.237 18.7693 150.243 18.7723C150.249 18.7753 150.253 18.78 150.257 18.7857C150.266 18.8094 150.275 18.8365 150.284 18.8602L150.834 20.4208C150.87 20.5259 150.905 20.6354 150.947 20.7235C150.961 20.7605 150.986 20.7918 151.02 20.8124C151.054 20.8329 151.094 20.8414 151.133 20.8364H151.162V20.9493L151.152 20.9516Z" fill="#1D1D1B"/>
<path d="M151.285 19.0063C151.059 19.0063 151.051 19.0605 151.007 19.2785H150.916C150.929 19.1949 150.944 19.1113 150.953 19.0244C150.965 18.9406 150.971 18.8561 150.971 18.7714H151.043C151.066 18.8606 151.142 18.8572 151.222 18.8572H152.765C152.845 18.8572 152.92 18.8572 152.927 18.7646L152.998 18.7771C152.987 18.8572 152.974 18.9374 152.965 19.0187C152.956 19.1 152.958 19.1791 152.958 19.2604L152.869 19.2931C152.869 19.1802 152.849 19.0063 152.643 19.0063H152.152V20.5941C152.152 20.8199 152.257 20.8504 152.4 20.8504H152.457V20.9396C152.344 20.9396 152.132 20.9283 151.97 20.9283C151.79 20.9283 151.581 20.9396 151.464 20.9396V20.8504H151.521C151.686 20.8504 151.77 20.8357 151.77 20.5997V19.0063H151.285Z" fill="#1D1D1B"/>
<path d="M152.459 20.956C152.346 20.956 152.132 20.9447 151.972 20.9447C151.793 20.9447 151.584 20.956 151.466 20.956H151.452V20.8431H151.523C151.688 20.8431 151.755 20.8431 151.758 20.6059V19.0249H151.281V18.9978H151.784V20.6048C151.784 20.8442 151.688 20.8679 151.523 20.869H151.478V20.9323C151.592 20.9323 151.798 20.9198 151.972 20.9198C152.128 20.9198 152.327 20.9311 152.446 20.9323V20.869H152.402C152.258 20.869 152.142 20.834 152.142 20.5991V18.9933H152.644C152.845 18.9933 152.871 19.165 152.878 19.2756L152.942 19.2519C152.942 19.174 152.942 19.0961 152.949 19.0182C152.956 18.9402 152.968 18.8646 152.979 18.7923L152.934 18.7844C152.921 18.8702 152.836 18.8759 152.761 18.8747H151.206C151.135 18.8747 151.06 18.8747 151.032 18.7878H150.987C150.987 18.8687 150.98 18.9495 150.968 19.0294C150.96 19.1119 150.945 19.1909 150.934 19.27H150.998C151.038 19.0611 151.064 18.9933 151.288 18.9967V19.0238C151.062 19.0238 151.071 19.0645 151.022 19.2847V19.2948H150.909V19.2801C150.922 19.1966 150.936 19.113 150.944 19.0272C150.956 18.9438 150.962 18.8596 150.962 18.7754V18.7618H151.057V18.7708C151.079 18.8465 151.133 18.8465 151.209 18.8488H152.764C152.847 18.8488 152.908 18.8488 152.913 18.7675V18.7539H152.926L153.011 18.7675V18.781C152.999 18.8612 152.987 18.9414 152.978 19.0215C152.969 19.1017 152.973 19.1808 152.973 19.2621V19.2711H152.964L152.858 19.3095V19.2926C152.85 19.1796 152.839 19.0182 152.65 19.0182H152.172V20.5946C152.172 20.8205 152.265 20.8351 152.408 20.8374H152.477V20.9503L152.459 20.956Z" fill="#1D1D1B"/>
<path d="M153.107 20.8506H153.149C153.262 20.8506 153.375 20.8359 153.375 20.6801V19.1172C153.375 18.9624 153.262 18.9466 153.149 18.9466H153.107V18.8574C153.22 18.8574 153.403 18.8698 153.549 18.8698C153.695 18.8698 153.879 18.8574 154.02 18.8574V18.9466H153.977C153.87 18.9466 153.756 18.9624 153.756 19.1172V20.6801C153.756 20.8359 153.87 20.8506 153.977 20.8506H154.02V20.9398C153.876 20.9398 153.696 20.9285 153.547 20.9285C153.398 20.9285 153.224 20.9398 153.107 20.9398V20.8506Z" fill="#1D1D1B"/>
<path d="M154.007 20.9278V20.8645H153.979C153.866 20.8645 153.745 20.8453 153.745 20.6805V19.1176C153.745 18.9527 153.871 18.9346 153.979 18.9346H154.007V18.8714C153.869 18.8714 153.696 18.8827 153.554 18.8827C153.413 18.8827 153.241 18.8714 153.125 18.8714V18.9346H153.155C153.26 18.9346 153.388 18.9527 153.388 19.1176V20.6805C153.388 20.8453 153.26 20.8645 153.155 20.8645H153.125V20.9278C153.239 20.9278 153.41 20.9153 153.552 20.9153C153.695 20.9153 153.87 20.9266 154.012 20.9278H154.007ZM154.025 20.9526C153.88 20.9526 153.702 20.9413 153.552 20.9413C153.403 20.9413 153.23 20.9526 153.112 20.9526H153.099V20.8397H153.155C153.262 20.8397 153.362 20.8284 153.362 20.6827V19.1176C153.362 18.9719 153.262 18.9628 153.155 18.9606H153.099V18.8477H153.112C153.225 18.8477 153.41 18.8589 153.554 18.8589C153.699 18.8589 153.883 18.8477 154.025 18.8477H154.037V18.9606H153.983C153.87 18.9606 153.775 18.9719 153.774 19.1176V20.6805C153.774 20.8261 153.874 20.8363 153.983 20.8374H154.037V20.9504L154.025 20.9526Z" fill="#1D1D1B"/>
<path d="M155.257 20.8542C155.837 20.8542 155.937 20.3438 155.937 19.9079C155.937 19.472 155.701 18.9446 155.204 18.9446C154.681 18.9446 154.525 19.4098 154.525 19.8096C154.525 20.3438 154.771 20.8542 155.255 20.8542H155.257ZM155.21 18.8136C155.847 18.8136 156.355 19.2077 156.355 19.8424C156.362 19.9931 156.338 20.1436 156.283 20.2844C156.229 20.4252 156.146 20.5533 156.04 20.6606C155.934 20.768 155.806 20.8522 155.666 20.908C155.525 20.9639 155.375 20.9902 155.223 20.9852C154.588 20.9852 154.104 20.5549 154.104 19.9135C154.102 19.7684 154.129 19.6244 154.184 19.49C154.239 19.3556 154.32 19.2335 154.423 19.1309C154.526 19.0284 154.648 18.9475 154.783 18.893C154.918 18.8385 155.062 18.8115 155.208 18.8136" fill="#1D1D1B"/>
<path d="M154.515 19.8091C154.515 19.4071 154.673 18.9306 155.207 18.9306C155.714 18.9306 155.952 19.4692 155.952 19.9074C155.952 20.3455 155.849 20.865 155.258 20.865V20.8424C155.824 20.8424 155.925 20.3455 155.926 19.9096C155.927 19.4738 155.693 18.9599 155.207 18.9588C154.694 18.9588 154.543 19.4105 154.54 19.8114C154.54 20.3422 154.785 20.8413 155.258 20.8424V20.8673C154.761 20.8673 154.515 20.3478 154.515 19.8114V19.8091ZM154.097 19.9153C154.095 19.7686 154.122 19.623 154.178 19.4871C154.233 19.3511 154.315 19.2277 154.419 19.1239C154.523 19.0202 154.647 18.9382 154.783 18.8829C154.92 18.8276 155.066 18.8 155.213 18.8018V18.8278C155.069 18.8258 154.926 18.8526 154.793 18.9066C154.66 18.9605 154.539 19.0405 154.437 19.1419C154.335 19.2432 154.255 19.3639 154.201 19.4967C154.147 19.6296 154.12 19.7719 154.121 19.9153C154.121 20.5499 154.6 20.9734 155.229 20.9734C155.378 20.9781 155.526 20.9519 155.665 20.8966C155.804 20.8413 155.929 20.7581 156.034 20.6521C156.139 20.546 156.221 20.4196 156.275 20.2805C156.328 20.1415 156.352 19.993 156.346 19.8442C156.346 19.2163 155.844 18.8278 155.214 18.8278V18.8018C155.856 18.8018 156.371 19.2005 156.372 19.8442C156.378 19.9963 156.354 20.1481 156.299 20.2902C156.244 20.4323 156.16 20.5616 156.053 20.67C155.946 20.7784 155.817 20.8636 155.676 20.9203C155.534 20.9769 155.382 21.0039 155.23 20.9994C154.589 20.9994 154.098 20.5646 154.098 19.9153" fill="#1D1D1B"/>
<path d="M158.373 20.3526L158.38 20.3458V19.2278C158.385 19.1914 158.382 19.1544 158.371 19.1194C158.36 19.0843 158.342 19.0522 158.317 19.0252C158.291 18.9983 158.261 18.9773 158.227 18.9637C158.192 18.9501 158.156 18.9443 158.119 18.9466H158.054V18.8574C158.195 18.8574 158.333 18.8698 158.472 18.8698C158.611 18.8698 158.718 18.8574 158.841 18.8574V18.9466H158.798C158.672 18.9466 158.532 18.9703 158.532 19.3261V20.6812C158.53 20.782 158.536 20.8829 158.55 20.9827H158.437L156.896 19.2696V20.5039C156.896 20.7636 156.947 20.8528 157.177 20.8528H157.229V20.9421C157.1 20.9421 156.972 20.9308 156.843 20.9308C156.714 20.9308 156.571 20.9421 156.437 20.9421V20.8528H156.479C156.685 20.8528 156.747 20.7128 156.747 20.4745V19.2154C156.747 19.1799 156.74 19.1447 156.726 19.1118C156.713 19.079 156.693 19.0492 156.667 19.0242C156.642 18.9992 156.612 18.9794 156.579 18.9661C156.546 18.9528 156.511 18.9462 156.475 18.9466H156.437V18.8574C156.55 18.8574 156.663 18.8698 156.776 18.8698C156.867 18.8698 156.953 18.8574 157.042 18.8574L158.373 20.3526Z" fill="#1D1D1B"/>
<path d="M158.374 20.353L158.384 20.3439L158.374 20.353ZM158.434 20.9718H158.533C158.521 20.8763 158.516 20.7801 158.517 20.6838V19.3287C158.517 18.9696 158.667 18.9369 158.796 18.9369H158.828V18.8736C158.715 18.8736 158.593 18.8849 158.473 18.8849C158.353 18.8849 158.203 18.8736 158.067 18.8736V18.9369H158.119C158.158 18.9347 158.196 18.941 158.232 18.9553C158.267 18.9696 158.299 18.9916 158.325 19.0196C158.351 19.0477 158.371 19.0811 158.382 19.1176C158.394 19.154 158.397 19.1926 158.392 19.2305V20.3597V20.3654L158.382 20.3744L157.051 18.8748C156.963 18.8748 156.875 18.8861 156.785 18.8861C156.672 18.8861 156.558 18.8748 156.454 18.8748V18.938H156.48C156.518 18.9375 156.555 18.9445 156.589 18.9584C156.624 18.9724 156.655 18.993 156.682 19.0191C156.708 19.0453 156.729 19.0765 156.744 19.1108C156.758 19.1451 156.766 19.182 156.766 19.2192V20.4761C156.766 20.7143 156.699 20.8668 156.484 20.8679H156.454V20.9312C156.583 20.9312 156.717 20.9187 156.848 20.9187C156.98 20.9187 157.097 20.93 157.221 20.9312V20.8679H157.182C156.948 20.8679 156.889 20.7652 156.889 20.5054V19.2395L158.434 20.9718ZM158.547 20.9978H158.423L156.906 19.3107V20.5043C156.906 20.764 156.949 20.8431 157.173 20.8431H157.238V20.956H157.225C157.096 20.956 156.967 20.9447 156.839 20.9447C156.711 20.9447 156.568 20.956 156.432 20.956H156.422V20.8431H156.477C156.674 20.8431 156.731 20.7155 156.733 20.4783V19.2158C156.733 19.182 156.726 19.1484 156.713 19.1172C156.7 19.0859 156.681 19.0576 156.657 19.0338C156.633 19.01 156.604 18.9913 156.573 18.9787C156.541 18.9661 156.508 18.96 156.474 18.9606H156.422V18.8477H156.434C156.547 18.8477 156.666 18.8589 156.774 18.8589C156.863 18.8589 156.949 18.8477 157.05 18.8522L158.364 20.3281V19.2282C158.364 18.9911 158.203 18.9628 158.116 18.9606H158.038V18.8477H158.052C158.192 18.8477 158.33 18.8589 158.469 18.8589C158.592 18.8589 158.714 18.8477 158.838 18.8477H158.851V18.9606H158.799C158.675 18.9606 158.549 18.9753 158.545 19.3265V20.6816C158.543 20.7816 158.549 20.8817 158.562 20.9808V20.9955L158.547 20.9978Z" fill="#1D1D1B"/>
<path d="M159.758 19.192L159.477 20.0367H160.036L159.758 19.192ZM159.321 20.5144C159.292 20.5874 159.27 20.663 159.255 20.7402C159.255 20.8306 159.381 20.8452 159.482 20.8452H159.516V20.9345C159.396 20.9277 159.272 20.9232 159.154 20.9232C159.035 20.9232 158.938 20.9232 158.831 20.9345V20.8452H158.848C158.907 20.8452 158.964 20.8263 159.01 20.7913C159.057 20.7563 159.092 20.7071 159.108 20.651L159.59 19.288C159.638 19.1677 159.676 19.0439 159.704 18.9176C159.799 18.8836 159.89 18.8405 159.977 18.7888C159.984 18.7859 159.992 18.784 160 18.7832C160.009 18.7832 160.015 18.7832 160.021 18.7922C160.026 18.8013 160.039 18.8431 160.048 18.8668L160.598 20.4274C160.634 20.5313 160.67 20.642 160.711 20.7312C160.726 20.7702 160.754 20.8032 160.79 20.8249C160.826 20.8465 160.868 20.8557 160.909 20.8509H160.927V20.9401C160.793 20.9333 160.658 20.9288 160.514 20.9288C160.37 20.9288 160.218 20.9288 160.061 20.9401V20.8509H160.095C160.163 20.8509 160.281 20.8385 160.281 20.7639C160.269 20.6903 160.249 20.6182 160.22 20.5494L160.107 20.2038H159.427L159.321 20.5144Z" fill="#1D1D1B"/>
<path d="M159.745 19.1957H159.752H159.745ZM159.491 20.0223H160.014L159.754 19.2239L159.491 20.0223ZM159.455 20.0482L159.743 19.1776H159.757V19.1911V19.1776H159.767L160.05 20.0482H159.455ZM160.066 20.9257C160.214 20.92 160.36 20.9144 160.502 20.9144C160.645 20.9144 160.772 20.92 160.902 20.9257V20.8636H160.896C160.852 20.8677 160.808 20.8575 160.77 20.8345C160.733 20.8115 160.703 20.7769 160.687 20.736C160.648 20.6456 160.612 20.535 160.574 20.4311L160.022 18.8704L159.997 18.7993H159.992C159.986 18.7983 159.98 18.7983 159.975 18.7993C159.89 18.852 159.799 18.8934 159.703 18.9224C159.674 19.0491 159.636 19.1736 159.59 19.295L159.11 20.6648C159.093 20.7234 159.057 20.7748 159.008 20.8114C158.959 20.848 158.899 20.8679 158.838 20.8681V20.8681V20.9302C158.941 20.9245 159.044 20.9189 159.148 20.9189C159.253 20.9189 159.382 20.9245 159.497 20.9302V20.8681H159.477C159.379 20.8681 159.244 20.8557 159.239 20.7495C159.254 20.669 159.276 20.59 159.306 20.5135H159.318H159.306L159.404 20.195H160.102L160.222 20.5485C160.25 20.6188 160.27 20.6924 160.282 20.7676C160.282 20.8591 160.151 20.8658 160.085 20.8681H160.064L160.066 20.9257ZM160.914 20.9517C160.78 20.9517 160.645 20.9404 160.502 20.9404C160.36 20.9404 160.207 20.9471 160.05 20.9517H160.043V20.8387H160.089C160.158 20.8387 160.261 20.8229 160.261 20.7653C160.25 20.6931 160.23 20.6226 160.201 20.5553L160.088 20.2165H159.428L159.335 20.518C159.306 20.591 159.285 20.6667 159.271 20.7439C159.271 20.8173 159.384 20.8353 159.481 20.8353H159.527V20.9483H159.514C159.394 20.9483 159.272 20.937 159.153 20.937C159.034 20.937 158.938 20.9437 158.83 20.9483H158.817V20.8353H158.847C158.903 20.8354 158.958 20.8173 159.002 20.784C159.047 20.7506 159.08 20.7036 159.095 20.6501L159.574 19.2815C159.613 19.1685 159.666 19.0217 159.687 18.9032C159.782 18.8691 159.873 18.8264 159.959 18.7756C159.968 18.7712 159.977 18.7689 159.987 18.7688C159.994 18.768 160 18.7692 160.006 18.7722C160.012 18.7752 160.017 18.7799 160.02 18.7857L160.047 18.8603L160.597 20.4209C160.634 20.5259 160.669 20.6355 160.711 20.7247C160.724 20.7615 160.75 20.7927 160.783 20.8132C160.817 20.8337 160.856 20.8423 160.895 20.8376H160.926V20.9505L160.914 20.9517Z" fill="#1D1D1B"/>
<path d="M161.669 20.6473C161.669 20.767 161.752 20.8032 161.848 20.8156C161.979 20.8256 162.111 20.8234 162.243 20.8088C162.299 20.8023 162.353 20.7847 162.403 20.757C162.452 20.7293 162.495 20.692 162.53 20.6473C162.573 20.5817 162.605 20.5091 162.623 20.4328H162.709C162.676 20.6033 162.634 20.7715 162.596 20.9398C162.333 20.9398 162.069 20.9285 161.803 20.9285C161.537 20.9285 161.277 20.9398 161.011 20.9398V20.8506H161.062C161.175 20.8506 161.288 20.8359 161.288 20.6507V19.1172C161.288 18.9624 161.175 18.9466 161.062 18.9466H161.021V18.8574C161.179 18.8574 161.335 18.8698 161.493 18.8698C161.652 18.8698 161.795 18.8574 161.946 18.8574V18.9466H161.87C161.757 18.9466 161.668 18.9466 161.668 19.1081L161.669 20.6473Z" fill="#1D1D1B"/>
<path d="M162.589 20.9278C162.623 20.7652 162.662 20.6071 162.694 20.4456H162.633C162.615 20.5203 162.584 20.5914 162.541 20.6556C162.468 20.7477 162.361 20.8077 162.244 20.8227C162.166 20.8295 162.088 20.834 162.018 20.834C161.948 20.834 161.905 20.834 161.851 20.8273C161.753 20.8171 161.659 20.7753 161.659 20.6477V19.1085C161.659 18.9425 161.765 18.9346 161.875 18.9346H161.938V18.8714C161.791 18.8714 161.645 18.8827 161.496 18.8827C161.348 18.8827 161.189 18.8714 161.037 18.8714V18.9346H161.063C161.169 18.9346 161.3 18.9527 161.3 19.1176V20.6511C161.3 20.8442 161.17 20.8645 161.063 20.8645H161.034V20.9278C161.292 20.9278 161.552 20.9153 161.811 20.9153C162.07 20.9153 162.331 20.9266 162.59 20.9278H162.589ZM162.6 20.9526C162.336 20.9526 162.074 20.9413 161.808 20.9413C161.542 20.9413 161.281 20.9526 161.015 20.9526H161.003V20.8397H161.063C161.176 20.8397 161.273 20.8295 161.275 20.6534V19.1176C161.275 18.9719 161.171 18.9628 161.063 18.9606H161.008V18.8477H161.021C161.18 18.8477 161.335 18.8589 161.494 18.8589C161.652 18.8589 161.795 18.8477 161.947 18.8477H161.958V18.9606H161.871C161.758 18.9606 161.683 18.9606 161.681 19.1085V20.6477C161.681 20.7606 161.754 20.7889 161.848 20.8024C161.9 20.8024 161.961 20.8081 162.014 20.8081C162.089 20.8082 162.165 20.8044 162.24 20.7968C162.294 20.7903 162.347 20.7733 162.395 20.7465C162.443 20.7198 162.485 20.6839 162.518 20.6409C162.561 20.5763 162.591 20.5048 162.609 20.4298V20.4207H162.722V20.4365C162.688 20.6071 162.646 20.7753 162.609 20.9436V20.9526H162.6Z" fill="#1D1D1B"/>
<path d="M162.622 19.0877H162.659C162.7 19.0877 162.719 19.0572 162.719 19.0075C162.721 18.9988 162.72 18.9898 162.718 18.9814C162.715 18.9729 162.711 18.9651 162.705 18.9586C162.699 18.9521 162.691 18.947 162.683 18.9437C162.675 18.9405 162.666 18.9391 162.657 18.9397H162.622V19.0877ZM162.517 19.2538V19.238C162.555 19.238 162.562 19.238 162.562 19.2097V18.977C162.562 18.9442 162.562 18.9329 162.518 18.9352V18.9228H162.679C162.734 18.9228 162.785 18.9487 162.785 19.0064C162.785 19.0282 162.778 19.0494 162.764 19.0666C162.75 19.0838 162.732 19.096 162.71 19.1013L162.762 19.1725C162.782 19.2005 162.805 19.2256 162.831 19.247V19.2572H162.77C162.741 19.2572 162.715 19.1951 162.657 19.1126H162.622V19.2165C162.622 19.2369 162.63 19.2357 162.668 19.2414V19.2572L162.517 19.2538ZM162.673 19.3431C162.724 19.3444 162.774 19.3305 162.818 19.3031C162.861 19.2757 162.895 19.2361 162.915 19.1893C162.936 19.1425 162.942 19.0906 162.933 19.0404C162.923 18.9902 162.899 18.9439 162.864 18.9074C162.828 18.8709 162.782 18.8458 162.732 18.8355C162.682 18.8252 162.63 18.83 162.582 18.8494C162.535 18.8688 162.494 18.9018 162.466 18.9442C162.438 18.9867 162.422 19.0367 162.423 19.0877C162.422 19.1546 162.448 19.2191 162.495 19.2669C162.542 19.3148 162.606 19.3422 162.673 19.3431V19.3431ZM162.673 18.7725C162.735 18.7725 162.796 18.7909 162.848 18.8254C162.899 18.8598 162.94 18.9088 162.964 18.9661C162.988 19.0235 162.994 19.0866 162.982 19.1474C162.97 19.2083 162.94 19.2643 162.896 19.3083C162.852 19.3523 162.796 19.3823 162.735 19.3945C162.674 19.4068 162.611 19.4007 162.553 19.3771C162.496 19.3535 162.446 19.3134 162.412 19.2619C162.377 19.2104 162.358 19.1498 162.358 19.0877C162.357 19.0462 162.365 19.005 162.38 18.9665C162.396 18.9279 162.419 18.8929 162.449 18.8635C162.478 18.8341 162.513 18.8109 162.551 18.7953C162.59 18.7796 162.631 18.7719 162.673 18.7725" fill="#1D1D1B"/>
<path d="M143.994 8.32496C143.994 7.32562 144.291 6.34872 144.847 5.51775C145.404 4.68679 146.195 4.03907 147.12 3.65648C148.045 3.2739 149.064 3.17363 150.046 3.36834C151.029 3.56306 151.931 4.04402 152.64 4.75042C153.349 5.45682 153.831 6.35695 154.027 7.337C154.223 8.31706 154.123 9.33303 153.74 10.2565C153.357 11.18 152.709 11.9694 151.876 12.5251C151.043 13.0808 150.064 13.3778 149.063 13.3784C148.397 13.379 147.738 13.2487 147.123 12.995C146.508 12.7413 145.949 12.3692 145.478 11.8998C145.007 11.4305 144.634 10.8732 144.379 10.2598C144.125 9.6464 143.994 8.98892 143.994 8.32496Z" fill="white"/>
<path d="M149.063 13.4683C146.161 13.4819 143.771 11.1353 143.771 8.28046C143.774 5.15916 146.164 3 149.063 3H150.421C153.29 3 155.908 5.1569 155.908 8.27933C155.908 11.1341 153.29 13.4672 150.421 13.4672L149.063 13.4683ZM149.074 3.43364C148.124 3.43364 147.196 3.71465 146.406 4.24115C145.616 4.76765 145 5.51597 144.637 6.3915C144.273 7.26703 144.178 8.23044 144.364 9.1599C144.549 10.0894 145.006 10.9431 145.678 11.6132C146.35 12.2833 147.206 12.7397 148.137 12.9245C149.069 13.1094 150.035 13.0145 150.912 12.6519C151.79 12.2892 152.54 11.6751 153.068 10.8871C153.596 10.0992 153.877 9.17279 153.877 8.22512C153.877 6.95493 153.372 5.73671 152.472 4.83823C151.572 3.93975 150.351 3.43454 149.078 3.43364H149.074ZM147.988 11.0585V5.39179C147.413 5.61152 146.919 5.99998 146.57 6.50584C146.221 7.01171 146.035 7.6112 146.035 8.22512C146.035 8.83905 146.221 9.43854 146.57 9.94441C146.919 10.4503 147.413 10.8387 147.988 11.0585V11.0585ZM152.119 8.22512C152.119 7.61092 151.932 7.01131 151.583 6.50531C151.234 5.99931 150.739 5.61069 150.164 5.39066V11.0596C150.739 10.8397 151.234 10.4511 151.583 9.94508C151.932 9.43905 152.119 8.83936 152.119 8.22512V8.22512Z" fill="#004A98"/>
</g>
<g clip-path="url(#clip4_31391_355055)">
<path d="M212 21.9428C212 23.0789 211.047 24 209.872 24H178.128C176.953 24.0001 176 23.0789 176 21.9428V2.05718C176 0.920994 176.953 0 178.128 0H209.872C211.047 0 212 0.921062 212 2.05718V21.9428Z" fill="#F7FAFC"/>
<path fill-rule="evenodd" clip-rule="evenodd" d="M187.517 11.9846C187.517 13.5848 188.772 14.8255 190.387 14.8255C190.843 14.8255 191.234 14.7357 191.716 14.5083V13.2584C191.293 13.6832 190.917 13.8546 190.436 13.8546C189.368 13.8546 188.61 13.0792 188.61 11.9766C188.61 10.9315 189.392 10.107 190.387 10.107C190.893 10.107 191.276 10.2877 191.716 10.7195V9.47016C191.251 9.23375 190.868 9.13574 190.412 9.13574C188.805 9.13574 187.517 10.4017 187.517 11.9846ZM184.795 10.6625C184.795 10.9567 184.982 11.1122 185.618 11.3479C186.825 11.7898 187.182 12.1812 187.182 13.0463C187.182 14.1001 186.409 14.8339 185.307 14.8339C184.5 14.8339 183.913 14.5157 183.424 13.7974L184.11 13.1368C184.354 13.6096 184.761 13.863 185.267 13.863C185.74 13.863 186.091 13.5362 186.091 13.0951C186.091 12.8665 185.985 12.6703 185.773 12.5316C185.666 12.466 185.455 12.3684 185.039 12.2216C184.043 11.8628 183.702 11.4788 183.702 10.7287C183.702 9.83779 184.435 9.16895 185.398 9.16895C185.994 9.16895 186.539 9.37297 186.995 9.77238L186.44 10.4999C186.164 10.1899 185.903 10.0591 185.585 10.0591C185.128 10.0591 184.795 10.3196 184.795 10.6625ZM179.796 13.3485C179.462 13.6499 179.029 13.7814 178.344 13.7814H178.06V10.1812H178.344C179.029 10.1812 179.445 10.3041 179.796 10.6216C180.162 10.9485 180.383 11.4554 180.383 11.9768C180.383 12.4994 180.162 13.0217 179.796 13.3485ZM178.557 9.2589H177V14.7028H178.549C179.372 14.7028 179.967 14.5084 180.489 14.0743C181.109 13.5605 181.476 12.7859 181.476 11.9847C181.476 10.3781 180.277 9.2589 178.557 9.2589ZM181.964 14.703H183.024V9.2589H181.964V14.703ZM198.676 9.2589L200.126 12.9156L201.595 9.2589H202.744L200.395 14.8426H199.825L197.517 9.2589H198.676ZM203.224 14.7029H206.232V13.7812H204.284V12.3117H206.161V11.3896H204.284V10.1813H206.232V9.25877H203.224V14.7029ZM207.994 11.7651H208.304C208.981 11.7651 209.34 11.4704 209.34 10.9232C209.34 10.3934 208.981 10.1164 208.321 10.1164H207.994V11.7651ZM208.508 9.25864C209.731 9.25864 210.432 9.84672 210.432 10.866C210.432 11.6995 209.992 12.2467 209.193 12.4093L210.905 14.7027H209.601L208.133 12.5158H207.994V14.7027H206.935V9.25864H208.508Z" fill="#1D1D1B"/>
<path fill-rule="evenodd" clip-rule="evenodd" d="M197.392 13.5598C198.253 12.2121 197.86 10.4217 196.514 9.55996V9.55996C195.168 8.69818 193.379 9.0916 192.518 10.4393V10.4393C191.658 11.7867 192.051 13.5776 193.397 14.4394V14.4394C194.743 15.3012 196.532 14.9072 197.392 13.5598Z" fill="url(#paint0_linear_31391_355055)"/>
</g>
<defs>
<linearGradient id="paint0_linear_31391_355055" x1="198.951" y1="11.1201" x2="194.074" y2="8.00484" gradientUnits="userSpaceOnUse">
<stop stop-color="#F6A000"/>
<stop offset="0.623918" stop-color="#E47E02"/>
<stop offset="1" stop-color="#D36002"/>
</linearGradient>
<clipPath id="clip0_31391_355055">
<rect width="36" height="24" fill="white"/>
</clipPath>
<clipPath id="clip1_31391_355055">
<rect width="36" height="24" fill="white" transform="translate(44)"/>
</clipPath>
<clipPath id="clip2_31391_355055">
<rect width="36" height="24" fill="white" transform="translate(88)"/>
</clipPath>
<clipPath id="clip3_31391_355055">
<rect width="36" height="24" fill="white" transform="translate(132)"/>
</clipPath>
<clipPath id="clip4_31391_355055">
<rect width="36" height="24" fill="white" transform="translate(176)"/>
</clipPath>
</defs>
</svg>
