<?xml version="1.0" encoding="utf-8"?>
<!-- Generator: Adobe Illustrator 28.3.0, SVG Export Plug-In . SVG Version: 6.00 Build 0)  -->
<svg version="1.1" id="Capa_1" xmlns="http://www.w3.org/2000/svg" xmlns:xlink="http://www.w3.org/1999/xlink" x="0px" y="0px"
	 viewBox="0 0 24 24" style="enable-background:new 0 0 24 24;" xml:space="preserve">
<style type="text/css">
	.st0{fill:#FFB428;}
</style>
<g>
	<path class="st0" d="M12,12.4c3.4,0,6.2-2.8,6.2-6.2S15.4,0,12,0C8.6,0,5.8,2.8,5.8,6.2S8.6,12.4,12,12.4z M12,3.1
		c1.7,0,3.1,1.4,3.1,3.1c0,1.7-1.4,3.1-3.1,3.1S8.9,7.9,8.9,6.2C8.9,4.5,10.3,3.1,12,3.1z"/>
	<path class="st0" d="M18.7,15.8c-1.1-1.2-2.6-1.9-4.3-1.9H9.7c-1.7,0-3.2,0.7-4.3,1.8c-1.2,1.1-1.9,2.6-1.9,4.3v2.3
		C3.5,23.3,4.1,24,5,24c0.9,0,1.5-0.7,1.5-1.5v-2.3c0-0.8,0.3-1.6,1-2.2C8.1,17.4,8.8,17,9.7,17h4.6c0.8,0,1.5,0.3,2.2,1
		c0.6,0.5,0.9,1.3,0.9,2.1v2.3c0,0.9,0.7,1.5,1.5,1.5c0.9,0,1.5-0.7,1.5-1.5v-2.3C20.5,18.6,19.8,17,18.7,15.8z"/>
</g>
</svg>
