<svg width="25" height="25" viewBox="0 0 25 25" fill="none" xmlns="http://www.w3.org/2000/svg">
<path d="M16.9879 22.6163H7.98787C7.73754 22.6173 7.49593 22.5244 7.31077 22.3559C7.12562 22.1875 7.0104 21.9557 6.98787 21.7063L5.48787 5.70633C5.47632 5.56856 5.49346 5.42989 5.53821 5.29908C5.58296 5.16827 5.65435 5.04816 5.74787 4.94633C5.84137 4.84274 5.95551 4.75986 6.08295 4.70303C6.2104 4.64619 6.34833 4.61666 6.48787 4.61633H18.4879C18.6274 4.61666 18.7653 4.64619 18.8928 4.70303C19.0202 4.75986 19.1344 4.84274 19.2279 4.94633C19.3214 5.04816 19.3928 5.16827 19.4375 5.29908C19.4823 5.42989 19.4994 5.56856 19.4879 5.70633L17.9879 21.7063C17.9653 21.9557 17.8501 22.1875 17.665 22.3559C17.4798 22.5244 17.2382 22.6173 16.9879 22.6163ZM8.89787 20.6163H16.0779L17.3879 6.61633H7.58787L8.89787 20.6163Z" fill="#8C00FF"/>
<path d="M19.4883 6.61633H5.48828C5.22306 6.61633 4.96871 6.51098 4.78117 6.32344C4.59364 6.1359 4.48828 5.88155 4.48828 5.61633C4.48828 5.35112 4.59364 5.09676 4.78117 4.90923C4.96871 4.72169 5.22306 4.61633 5.48828 4.61633H19.4883C19.7535 4.61633 20.0079 4.72169 20.1954 4.90923C20.3829 5.09676 20.4883 5.35112 20.4883 5.61633C20.4883 5.88155 20.3829 6.1359 20.1954 6.32344C20.0079 6.51098 19.7535 6.61633 19.4883 6.61633Z" fill="#8C00FF"/>
<path d="M14.9883 3.6163H9.98828C9.72306 3.6163 9.46871 3.51095 9.28117 3.32341C9.09364 3.13587 8.98828 2.88152 8.98828 2.6163C8.98828 2.35109 9.09364 2.09673 9.28117 1.9092C9.46871 1.72166 9.72306 1.6163 9.98828 1.6163H14.9883C15.2535 1.6163 15.5079 1.72166 15.6954 1.9092C15.8829 2.09673 15.9883 2.35109 15.9883 2.6163C15.9883 2.88152 15.8829 3.13587 15.6954 3.32341C15.5079 3.51095 15.2535 3.6163 14.9883 3.6163Z" fill="#8C00FF"/>
</svg>
