<?xml version="1.0" encoding="utf-8"?>
<!-- Generator: Adobe Illustrator 22.0.0, SVG Export Plug-In . SVG Version: 6.00 Build 0)  -->
<svg version="1.1" id="Capa_1" xmlns="http://www.w3.org/2000/svg" xmlns:xlink="http://www.w3.org/1999/xlink" x="0px" y="0px"
	 viewBox="0 0 544 512" style="enable-background:new 0 0 544 512;" xml:space="preserve">
<style type="text/css">
	.st0{fill:#43B8B2;}
</style>
<path class="st0" d="M257.6,144.3l50,14.3c3.6,1,6.1,4.4,6.1,8.1c0,4.6-3.8,8.4-8.4,8.4h-32.8c-3.6,0-7.1-0.8-10.3-2.2
	c-4.8-2.2-10.4-1.7-14.1,2l-17.5,17.5c-5.3,5.3-4.7,14.3,1.5,18.4c9.5,6.3,20.3,10.1,31.8,11.5V240c0,8.8,7.2,16,16,16h16
	c8.8,0,16-7.2,16-16v-17.6c30.3-3.6,53.3-31,49.3-63c-2.9-23-20.7-41.3-42.9-47.7l-50-14.3c-3.6-1-6.1-4.4-6.1-8.1
	c0-4.6,3.8-8.4,8.4-8.4h32.8c3.6,0,7.1,0.8,10.3,2.2c4.8,2.2,10.4,1.7,14.1-2l17.5-17.5c5.3-5.3,4.7-14.3-1.5-18.4
	c-9.5-6.3-20.3-10.1-31.8-11.5V16c0-8.8-7.2-16-16-16h-16c-8.8,0-16,7.2-16,16v17.6c-30.3,3.6-53.3,31-49.3,63
	C217.6,119.6,235.4,137.9,257.6,144.3z M533.9,328.1c-11.2-10.7-28.5-10-40.3,0L406.4,402c-10.7,9.1-24,14-37.8,14H256.9
	c-8.3,0-15.1-7.2-15.1-16s6.8-16,15.1-16h73.9c15.1,0,29-10.9,31.4-26.6c3.1-20-11.5-37.4-29.8-37.4H181.3
	c-25.5,0-50.2,9.3-69.9,26.3L67.5,384H15.1C6.8,384,0,391.2,0,400v96c0,8.8,6.8,16,15.1,16H352c13.7,0,27-4.9,37.8-14l142.8-121
	C547,364.9,548.1,341.7,533.9,328.1L533.9,328.1z"/>
</svg>
