<?xml version="1.0" encoding="utf-8"?>
<!-- Generator: Adobe Illustrator 22.0.0, SVG Export Plug-In . SVG Version: 6.00 Build 0)  -->
<svg version="1.1" id="Capa_1" xmlns="http://www.w3.org/2000/svg" xmlns:xlink="http://www.w3.org/1999/xlink" x="0px" y="0px"
	 viewBox="0 0 576 512" style="enable-background:new 0 0 576 512;" xml:space="preserve">
<style type="text/css">
	.st0{fill:#43B8B2;}
</style>
<path class="st0" d="M528,448H48c-26.5,0-48-21.5-48-48V112c0-26.5,21.5-48,48-48h480c26.5,0,48,21.5,48,48v288
	C576,426.5,554.5,448,528,448z M128,180v-40c0-6.6-5.4-12-12-12H76c-6.6,0-12,5.4-12,12v40c0,6.6,5.4,12,12,12h40
	C122.6,192,128,186.6,128,180z M224,180v-40c0-6.6-5.4-12-12-12h-40c-6.6,0-12,5.4-12,12v40c0,6.6,5.4,12,12,12h40
	C218.6,192,224,186.6,224,180z M320,180v-40c0-6.6-5.4-12-12-12h-40c-6.6,0-12,5.4-12,12v40c0,6.6,5.4,12,12,12h40
	C314.6,192,320,186.6,320,180z M416,180v-40c0-6.6-5.4-12-12-12h-40c-6.6,0-12,5.4-12,12v40c0,6.6,5.4,12,12,12h40
	C410.6,192,416,186.6,416,180z M512,180v-40c0-6.6-5.4-12-12-12h-40c-6.6,0-12,5.4-12,12v40c0,6.6,5.4,12,12,12h40
	C506.6,192,512,186.6,512,180z M176,276v-40c0-6.6-5.4-12-12-12h-40c-6.6,0-12,5.4-12,12v40c0,6.6,5.4,12,12,12h40
	C170.6,288,176,282.6,176,276z M272,276v-40c0-6.6-5.4-12-12-12h-40c-6.6,0-12,5.4-12,12v40c0,6.6,5.4,12,12,12h40
	C266.6,288,272,282.6,272,276z M368,276v-40c0-6.6-5.4-12-12-12h-40c-6.6,0-12,5.4-12,12v40c0,6.6,5.4,12,12,12h40
	C362.6,288,368,282.6,368,276z M464,276v-40c0-6.6-5.4-12-12-12h-40c-6.6,0-12,5.4-12,12v40c0,6.6,5.4,12,12,12h40
	C458.6,288,464,282.6,464,276z M128,372v-40c0-6.6-5.4-12-12-12H76c-6.6,0-12,5.4-12,12v40c0,6.6,5.4,12,12,12h40
	C122.6,384,128,378.6,128,372z M416,372v-40c0-6.6-5.4-12-12-12H172c-6.6,0-12,5.4-12,12v40c0,6.6,5.4,12,12,12h232
	C410.6,384,416,378.6,416,372z M512,372v-40c0-6.6-5.4-12-12-12h-40c-6.6,0-12,5.4-12,12v40c0,6.6,5.4,12,12,12h40
	C506.6,384,512,378.6,512,372z"/>
</svg>
