<?xml version="1.0" encoding="UTF-8"?>
<svg width="32px" height="32px" viewBox="0 0 32 32" version="1.1" xmlns="http://www.w3.org/2000/svg" xmlns:xlink="http://www.w3.org/1999/xlink">
    <!-- Generator: Sketch 63.1 (92452) - https://sketch.com -->
    <title>icono-whatsapp-blanco</title>
    <desc>Created with Sketch.</desc>
    <g id="Page-1" stroke="none" stroke-width="1" fill="none" fill-rule="evenodd">
        <g id="1D" transform="translate(-1229.000000, -782.000000)" fill="#FFFFFF" fill-rule="nonzero">
            <g id="WhatsApp" transform="translate(1215.000000, 768.000000)">
                <g id="whatsapp" transform="translate(14.000000, 14.000000)">
                    <path d="M27.2193359,4.6503906 C24.2255859,1.653125 20.2441406,0.00175781 16.002539,0 C7.2623047,0 0.14902345,7.11308595 0.1455078,15.855664 C0.14433595,18.6503906 0.87441405,21.3785156 2.2621094,23.7832031 L0.0125,32 L8.4185547,29.7949219 C10.7347656,31.0583984 13.3423828,31.7242187 15.9960937,31.725 L16.0027344,31.725 C24.7419922,31.725 31.8560547,24.6113281 31.8593764,15.8683594 C31.8611328,11.63125 30.2132812,7.64746095 27.2193359,4.6503906 Z M16.0025391,29.0470703 L15.9970703,29.0470703 C13.6322266,29.0460938 11.3128906,28.4105469 9.2890625,27.209961 L8.8080078,26.9242188 L3.81972655,28.2328125 L5.1511719,23.369336 L4.8376953,22.8707031 C3.5183594,20.7722656 2.8216797,18.346875 2.82285007,15.8566406 C2.82558595,8.59003905 8.73808595,2.678125 16.0078125,2.678125 C19.528125,2.6792969 22.8373047,4.0519531 25.325586,6.54316405 C27.8138672,9.034375 29.1833985,12.3457031 29.1822273,15.8673828 C29.1791016,23.1345703 23.2669922,29.0470703 16.002539,29.0470703 L16.0025391,29.0470703 Z M23.2318359,19.1761719 C22.8357422,18.9777344 20.8876953,18.0195312 20.5244141,17.8871094 C20.1615234,17.7548828 19.8970703,17.6890625 19.6332031,18.0855469 C19.3689453,18.4820312 18.6097656,19.3746094 18.3785156,19.6388672 C18.1472656,19.9033203 17.9164062,19.9365235 17.5201172,19.7380859 C17.1238281,19.5398437 15.8472656,19.1212891 14.3337891,17.7714844 C13.1560547,16.7208984 12.3609375,15.4234375 12.1296875,15.0269531 C11.8988281,14.6300781 12.1277344,14.4363281 12.3035156,14.2183594 C12.7324219,13.6857422 13.161914,13.1273438 13.2939453,12.863086 C13.4261719,12.5986328 13.3599609,12.3671875 13.2607422,12.1689453 C13.161914,11.9707031 12.3695312,10.0205078 12.0394531,9.2269531 C11.7175781,8.4546875 11.3912109,8.5589844 11.1478515,8.546875 C10.9169922,8.53535155 10.6527344,8.5330078 10.3884765,8.5330078 C10.124414,8.5330078 9.6951172,8.63203125 9.33183595,9.02890625 C8.96875,9.42558595 7.9453125,10.3839844 7.9453125,12.3341797 C7.9453125,14.284375 9.36503905,16.1683594 9.56308595,16.4328125 C9.7611328,16.6972656 12.3570312,20.6992188 16.3314453,22.4152344 C17.2767578,22.8238281 18.0146484,23.0673828 18.5902344,23.25 C19.5394531,23.5515625 20.4029297,23.5089844 21.0857422,23.4070312 C21.8470703,23.2931641 23.4296875,22.4484375 23.7601562,21.5230469 C24.0902344,20.5974609 24.0902344,19.8042969 23.9910156,19.6388672 C23.8921875,19.4736328 23.6279297,19.3746094 23.231836,19.1761719 L23.2318359,19.1761719 Z" id="icono-whatsapp-blanco"></path>
                </g>
            </g>
        </g>
    </g>
</svg>