<?xml version="1.0" encoding="utf-8"?>
<!-- Generator: Adobe Illustrator 22.0.0, SVG Export Plug-In . SVG Version: 6.00 Build 0)  -->
<svg version="1.1" id="Capa_1" xmlns="http://www.w3.org/2000/svg" xmlns:xlink="http://www.w3.org/1999/xlink" x="0px" y="0px"
	 viewBox="0 0 122 76.2" style="enable-background:new 0 0 122 76.2;" xml:space="preserve">
<style type="text/css">
	.st0{fill:#FFFFFF;}
</style>
<g>
	<g>
		<g>
			<g>
				<path class="st0" d="M69.3,27c0,0,0-0.1,0-0.1c0-0.1,0,0-0.1-0.2l0,0c0,0-0.1-0.1-0.1-0.1c-0.1-0.2-0.3-0.2-0.5-0.3
					c-0.2,0-0.3,0-0.4,0c-0.2,0-0.3,0.1-0.5,0.1c-0.5,0.2-0.8,0.4-1.1,0.6c-0.3,0.2-0.6,0.4-1,0.6c-0.6,0.4-1.3,0.6-2,0.8
					c-1.3,0.4-2.6,0.5-3.9,0.3c-1.2-0.1-2.3-0.4-3.3-0.8c-0.9-0.4-1.7-0.8-2.3-1.3c-0.6-0.4-1-0.9-1.2-1.2c-0.3-0.3-0.4-0.5-0.4-0.5
					s0.1,0.2,0.3,0.5c0.2,0.3,0.6,0.8,1.1,1.3c0.6,0.5,1.3,1.1,2.3,1.5c1,0.5,2.1,0.8,3.4,1.1c1.3,0.3,2.8,0.3,4.3-0.1
					c0.7-0.2,1.5-0.4,2.2-0.8c0.3-0.1,0.7-0.3,1-0.4c-0.2,0.2-0.4,0.3-0.6,0.5c-0.3,0.2-0.7,0.5-1,0.7c-0.7,0.4-1.4,0.8-2.2,1
					c-0.8,0.2-1.6,0.3-2.4,0.2c-1.7-0.1-3.3-0.5-4.5-1.5c-0.2-0.1-0.3-0.2-0.5-0.4c-0.1-0.1-0.2-0.1-0.3-0.2c-0.1,0-0.2-0.1-0.3-0.1
					c-0.1,0-0.3,0-0.5,0c-0.1,0-0.2,0.1-0.3,0.1l0,0l0,0c0,0-0.1,0.1-0.1,0.1c-0.1,0.1-0.2,0.2-0.2,0.3C54,29.3,54,29.6,54,29.8
					c0.1,0.4,0.2,0.6,0.4,0.8c0.7,0.8,1.5,1.1,2.2,1.5c1.6,0.6,3.2,0.7,4.7,0.6c1.5-0.1,2.9-0.4,4.1-0.8c0.1,0,0.2,0,0.2-0.1
					c-0.1,0.1-0.3,0.2-0.4,0.3c-0.8,0.6-1.7,0.8-2.4,0.9c-1.5,0.2-2.3,0.3-2.3,0.3s0,0,0,0c0,0,0,0,0,0c-1.6,0-3,0.4-3,1
					c0,0.5,1.3,1,3,1c1.6,0,3-0.4,3-1c0-0.5-1-0.9-2.4-1c0,0,0,0,0,0c0.4,0,1,0,1.7-0.1c0.4,0,0.8-0.1,1.2-0.2
					c0.5-0.1,0.9-0.2,1.4-0.4c0.3-0.1,0.5-0.2,0.8-0.3c0.3-0.1,0.5-0.3,0.8-0.6c0.1-0.1,0.2-0.2,0.2-0.5c0-0.1,0-0.2-0.1-0.3
					c-0.1-0.1-0.1-0.1-0.2-0.2c-0.1-0.1-0.2-0.1-0.3-0.1c-0.1,0-0.1,0-0.2,0h0l0,0l0,0l-0.1,0c-0.1,0-0.2,0-0.3,0
					c-0.4,0.1-0.7,0.2-1,0.3c-0.6,0.3-1.2,0.6-1.8,0.7c-0.6,0.2-1.3,0.3-2.1,0.3c-1.4,0-2.9-0.3-4.3-1c-0.5-0.2-0.9-0.5-1.3-0.9
					c1.6,0.8,3.3,1,5,1c0.9,0,1.7,0,2.6-0.2c0.9-0.2,1.7-0.5,2.5-0.8c0.4-0.2,0.8-0.3,1.2-0.5c0.4-0.2,0.8-0.4,1.1-0.7
					c0.4-0.3,0.8-0.6,1-1.2c0.1-0.1,0.1-0.3,0.1-0.5C69.3,27.3,69.3,27.1,69.3,27z"/>
				<g>
					<g>
						<path class="st0" d="M69.9,14C69.9,14,69.9,14,69.9,14L69.9,14c0-0.1,0-0.3,0-0.4c0-6-8.7-6.9-8.7-6.9s-1.7,0-1.7,1.6V14v0
							l0,0v0l0,0v0v5.7c0,1.6,1.7,1.6,1.7,1.6s8.7-0.9,8.7-6.9C69.9,14.3,69.9,14.2,69.9,14L69.9,14C69.9,14,69.9,14,69.9,14z"/>
						<path class="st0" d="M71.8,17c-0.2,0-0.3,0.3-0.3,0.3s-0.6,1.1-0.8,1.4c-1.8,3-6.1,5.2-9.7,5.2c0,0-4.6,0.3-4.6-6.1
							c0,0-0.1-1.3-0.1-3.7c0-2.4,0.1-3.7,0.1-3.7c0-6.4,4.6-6.1,4.6-6.1c3.6,0,7.9,2.2,9.7,5.2c0.2,0.3,0.8,1.4,0.8,1.4
							s0.1,0.3,0.3,0.3c0.1,0,0.1-0.1,0.1-0.3C70.7,4.6,66.1,0,60.7,0c-6.4,0-11.6,6.3-11.6,14l0,0c0,0,0,0,0,0c0,0,0,0,0,0l0,0
							c0,7.7,5.2,14,11.6,14c5.5,0,10.1-4.6,11.3-10.8C72,17.1,72,17,71.8,17z"/>
					</g>
					<path class="st0" d="M48.6,2c-1.7-0.5-0.4-1.6,0.3-1.2c0.9,0.5,1.5,2.3,1.8,3.2C50.7,4,49.8,2.4,48.6,2z"/>
					<path class="st0" d="M48,5.8c-1-0.3-0.3-0.9,0.2-0.7C48.7,5.4,49,6.4,49.2,7C49.2,7,48.7,6,48,5.8z"/>
					<path class="st0" d="M73.4,2c1.7-0.5,0.4-1.6-0.3-1.2c-0.9,0.5-1.5,2.3-1.8,3.2C71.3,4,72.2,2.4,73.4,2z"/>
					<path class="st0" d="M74,5.8c1-0.3,0.3-0.9-0.2-0.7C73.3,5.4,73,6.4,72.8,7C72.8,7,73.3,6,74,5.8z"/>
				</g>
			</g>
			<g>
				<g>
					<g>
						<path class="st0" d="M89.2,69.5c-0.2-0.4-0.4-0.7-0.6-0.8c-0.2-0.1-0.3-0.2-0.4-0.3c-0.4-0.2-0.8-0.4-1.2-0.4
							c-0.5-0.1-0.9-0.1-1.4-0.1c-0.2,0-0.5,0-0.8,0c-0.4,0-0.6,0-0.8,0c-0.1,0-0.3,0-0.6,0c-0.3,0-0.5,0-0.7,0
							c-0.1,0-0.3,0.1-0.4,0.2c-0.1,0.1-0.2,0.3-0.2,0.4c0,0.1,0,0.1,0,0.2c0,0,0.1,0.1,0.2,0.1c0.1,0.1,0.1,0.1,0.2,0.2
							c0,0,0.1,0.1,0.1,0.2c0,0.1,0,0.1,0,0.2c0,0.1,0,0.2-0.1,0.3c0,0.1,0,0.1,0,0.1c0,0,0,0.1,0,0.1c-0.1,0.3-0.1,0.5-0.2,0.8
							c0,0.2-0.1,0.5-0.1,0.7c-0.1,0.4-0.1,0.7-0.1,1c0,0.2-0.1,0.4-0.1,0.5c0,0,0,0.1,0,0.1c0,0.1,0,0.1,0,0.2c0,0.1,0,0.2,0,0.2
							c0,0.1,0,0.1,0,0.2c0,0.1,0,0.2,0,0.2c0,0.1,0,0.2,0,0.2c0,0.1,0,0.1,0,0.2c0,0.1,0,0.2,0.1,0.4c0,0.2,0.1,0.3,0.2,0.4
							c0.1,0.1,0.3,0.2,0.4,0.2c0.1,0,0.3,0,0.6-0.1c0.1,0,0.2-0.1,0.3-0.1c0.1,0,0.1-0.1,0.2-0.1c0,0,0.1,0,0.1-0.1
							c0.4-0.2,0.7-0.3,1-0.4c0.2-0.1,0.4-0.1,0.7-0.2c0.2-0.1,0.5-0.2,0.8-0.3c0.3-0.1,0.6-0.3,0.8-0.4c0.3-0.2,0.5-0.3,0.8-0.5
							c0.5-0.3,0.9-0.7,1.3-1.2c0.3-0.4,0.5-0.9,0.5-1.3C89.5,70.2,89.4,69.9,89.2,69.5z M88.4,71c-0.1,0.2-0.3,0.4-0.4,0.7
							c-0.1,0.1-0.2,0.2-0.2,0.3c-0.1,0.1-0.1,0.1-0.2,0.2c-0.3,0.3-1,0.6-2.1,1c-0.1,0-0.2,0.1-0.3,0.1c-0.1,0-0.3,0.1-0.4,0.2
							c-0.2,0.1-0.3,0.1-0.5,0.2c-0.2,0-0.3,0.1-0.4,0.1c-0.3,0.1-0.5,0.1-0.8,0.2c-0.1-0.2-0.1-0.4-0.1-0.6c0-0.1,0-0.2,0-0.3
							c0-0.1,0-0.2,0-0.4c0-0.1,0-0.3,0-0.4c0-0.1,0-0.2,0.1-0.4c0-0.1,0-0.2,0.1-0.4c0-0.1,0.1-0.3,0.1-0.4c0-0.2,0.1-0.3,0.1-0.4
							c0-0.1,0-0.2,0-0.3c0-0.3,0.1-0.5,0.1-0.8c0-0.3,0.1-0.5,0.1-0.7c0.2,0,0.4,0,0.6,0c0.2,0,0.4,0,0.6-0.1c0.1,0,0.2,0,0.3,0
							c0.1,0,0.2,0,0.3,0c0.3,0,0.5,0,0.8,0c0.3,0,0.5,0.1,0.7,0.1c0.5,0.1,0.9,0.2,1.3,0.5c0.4,0.3,0.5,0.6,0.5,1.1
							C88.6,70.6,88.5,70.8,88.4,71z"/>
					</g>
					<path class="st0" d="M96.7,68.1c0,0.1,0,0.1,0,0.2c0,0.1-0.1,0.1-0.1,0.2c0,0-0.1,0.1-0.1,0.1c0,0-0.1,0-0.1,0
						c-0.2,0-0.3,0-0.5,0c-0.2,0-0.3,0-0.5,0c-0.2,0-0.4,0-0.6,0c-0.2,0-0.5,0-0.7,0.1c-0.2,0-0.5,0-0.7,0.1c-0.2,0-0.4,0-0.6,0.1
						c0,0-0.1,0-0.2,0c-0.1,0-0.2,0-0.3,0c-0.1,0-0.2,0-0.3,0c-0.1,0-0.2,0-0.2,0.1c0,0-0.1,0.1-0.1,0.2c0,0.1-0.1,0.2-0.1,0.2
						c0,0.1,0,0.2,0,0.3c0,0.1,0,0.3-0.1,0.4c0,0.1,0,0.1,0,0.2c0,0.1,0,0.2,0,0.2c0,0.1,0,0.2,0,0.3c0,0.1,0,0.2,0,0.3
						c0,0.1,0,0.1,0.1,0.1c0,0,0.1,0,0.1,0c0,0,0.1,0,0.1,0c0.1,0,0.1,0,0.2,0c0.1,0,0.2,0,0.2,0c0.1,0,0.1,0,0.1,0
						c0.5-0.1,0.9-0.1,1.2-0.1c0.3,0,0.6-0.1,0.8-0.1c0.1,0,0.2,0,0.3,0c0.1,0,0.2,0,0.2,0.1c0.1,0,0.1,0.1,0.1,0.2
						c0,0.1,0,0.2,0,0.3c0,0.1,0,0.1,0,0.2c0,0-0.1,0.1-0.1,0.1c0,0-0.1,0-0.1,0.1c-0.1,0-0.1,0-0.2,0c-0.1,0-0.1,0-0.2,0
						c-0.1,0-0.1,0-0.2,0c-0.1,0-0.1,0-0.2,0c-0.1,0-0.1,0-0.2,0c-0.2,0-0.3,0-0.5,0c-0.2,0-0.4,0-0.6,0.1c-0.2,0-0.4,0.1-0.6,0.1
						c-0.2,0-0.4,0.1-0.5,0.1c0,0-0.1,0-0.1,0c0,0-0.1,0-0.1,0c0,0-0.1,0-0.1,0.1c0,0,0,0.1,0,0.1c0,0.2,0,0.3,0,0.5
						c0,0.1,0,0.3,0,0.4c0,0.1,0,0.2,0,0.3c0,0.1,0,0.2,0,0.3c0,0.1,0,0.1,0,0.2c0,0.1,0,0.1,0,0.1c0,0,0,0.1,0.1,0.1
						c0,0,0.1,0,0.1,0c0.1,0,0.1,0,0.2,0c0.1,0,0.1,0,0.2,0c0,0,0.1,0,0.2,0c0.1,0,0.2,0,0.3,0c0.1,0,0.2,0,0.3,0c0.1,0,0.2,0,0.4,0
						c0.1,0,0.2,0,0.4,0c0.1,0,0.2,0,0.3,0c0.2,0,0.4,0,0.7-0.1c0.2,0,0.5-0.1,0.7-0.1c0.2,0,0.4-0.1,0.6-0.1c0.2,0,0.4,0,0.6,0
						c0.2,0,0.3,0.1,0.3,0.3c0,0.2,0,0.3-0.1,0.4c-0.1,0.1-0.2,0.1-0.3,0.1c-0.3,0-0.5,0-0.8,0c-0.3,0-0.5,0-0.8,0.1
						c-0.2,0-0.5,0.1-0.7,0.1c-0.2,0-0.5,0.1-0.7,0.1c-0.3,0-0.6,0.1-0.9,0.1c-0.3,0-0.5,0.1-0.8,0.2c0,0-0.1,0-0.2,0.1
						c-0.1,0-0.1,0-0.2,0.1c-0.1,0-0.2,0-0.2,0.1c-0.1,0-0.2,0-0.2,0c-0.1,0-0.1,0-0.2,0c0,0-0.1-0.1-0.1-0.1c0,0-0.1-0.1-0.1-0.2
						c0-0.1,0-0.1,0-0.2c0-0.1,0-0.2,0-0.3c0-0.1,0-0.2,0-0.4c0-0.1,0-0.3,0-0.4c0-0.1,0-0.2,0-0.4c0-0.1,0-0.2,0-0.3
						c0-0.1,0-0.1,0-0.2c0.1-0.4,0.1-0.8,0.2-1.1c0.1-0.4,0.1-0.7,0.2-1.1c0-0.3,0.1-0.7,0.2-1c0.1-0.3,0.1-0.7,0.2-1
						c0-0.1,0-0.1,0-0.2c0-0.1,0-0.1,0-0.2c0-0.1,0-0.1,0-0.2c0-0.1,0.1-0.1,0.1-0.2c0,0,0.1-0.1,0.1-0.1c0,0,0.1-0.1,0.1-0.1
						c0,0,0.1,0,0.2,0c0.1,0,0.2,0,0.3,0c0.1,0,0.2,0,0.3,0c0.1,0,0.2,0,0.2,0c0.1,0,0.3,0,0.4,0c0.2,0,0.3,0,0.5,0
						c0.2,0,0.3,0,0.5-0.1c0.2,0,0.3,0,0.4-0.1c0.1,0,0.2,0,0.4-0.1c0.2,0,0.3,0,0.5-0.1c0.2,0,0.4,0,0.5,0c0.2,0,0.3,0,0.5,0
						c0.1,0,0.2,0,0.3,0c0.1,0,0.2,0,0.2,0.1c0.1,0,0.1,0.1,0.2,0.2C96.7,67.9,96.7,68,96.7,68.1z"/>
					<path class="st0" d="M103,73.2c0,0.2-0.1,0.4-0.2,0.6c-0.1,0.2-0.2,0.3-0.4,0.5c-0.2,0.2-0.4,0.3-0.6,0.4
						c-0.2,0.1-0.5,0.2-0.7,0.4c-0.3,0.1-0.5,0.2-0.8,0.3c-0.3,0.1-0.5,0.1-0.8,0.2c-0.3,0.1-0.5,0.1-0.7,0.1c-0.2,0-0.4,0-0.6,0
						c0,0-0.1,0-0.1,0c-0.1,0-0.1,0-0.2,0c-0.1,0-0.1,0-0.2,0c-0.1,0-0.1,0-0.1,0c-0.1,0-0.2-0.1-0.4-0.1c-0.1,0-0.3-0.1-0.4-0.2
						c-0.1-0.1-0.3-0.1-0.4-0.2c-0.1-0.1-0.1-0.2-0.1-0.2c0,0,0,0,0-0.1c0-0.1,0-0.1,0-0.2c0-0.1,0-0.1,0-0.1c0,0,0-0.1,0.1-0.1
						c0,0,0.1,0,0.2,0.1c0.1,0,0.2,0.1,0.4,0.1c0.1,0.1,0.3,0.1,0.5,0.1c0.2,0,0.3,0.1,0.5,0.1c0.2,0,0.4,0,0.6,0
						c0.2,0,0.5-0.1,0.7-0.1c0.2,0,0.5-0.1,0.7-0.2c0.2-0.1,0.5-0.1,0.7-0.2c0.2-0.1,0.4-0.2,0.6-0.3c0.2-0.1,0.3-0.2,0.5-0.3
						c0,0,0-0.1,0.1-0.1c0,0,0.1-0.1,0.1-0.1c0,0,0.1-0.1,0.1-0.1c0,0,0-0.1,0-0.1c0-0.1,0-0.3-0.1-0.4c-0.1-0.1-0.2-0.2-0.3-0.3
						c-0.1-0.1-0.3-0.2-0.5-0.3c-0.2-0.1-0.4-0.2-0.7-0.2c-0.2-0.1-0.4-0.1-0.7-0.2c-0.3-0.1-0.5-0.2-0.8-0.2
						c-0.3-0.1-0.5-0.2-0.8-0.3c-0.2-0.1-0.5-0.3-0.7-0.4c-0.2-0.2-0.3-0.4-0.5-0.6C97,70.1,97,69.9,97,69.6c0-0.1,0-0.3,0.1-0.4
						c0.1-0.1,0.2-0.3,0.3-0.4c0.1-0.1,0.3-0.2,0.4-0.3c0.1-0.1,0.3-0.2,0.5-0.3c0.2-0.1,0.3-0.1,0.4-0.2c0.1-0.1,0.3-0.1,0.4-0.1
						c0.2,0,0.3-0.1,0.5-0.1c0.2,0,0.3-0.1,0.5-0.1c0.1,0,0.3,0,0.5,0c0.2,0,0.3,0,0.5,0c0.1,0,0.1,0,0.3,0c0.1,0,0.2,0,0.4,0
						c0.1,0,0.3,0,0.4,0.1c0.1,0,0.3,0.1,0.4,0.1c0.1,0.1,0.2,0.1,0.3,0.2c0.1,0.1,0.1,0.1,0.1,0.2c0,0.1,0,0.2-0.1,0.3
						c0,0.1-0.1,0.2-0.2,0.3c-0.1,0.1-0.2,0.2-0.2,0.3c-0.1,0.1-0.2,0.2-0.3,0.2c-0.1,0.1-0.2,0.1-0.3,0.2c-0.1,0-0.2,0.1-0.3,0.1
						l-0.1,0v0c0-0.1,0-0.2,0-0.3c0-0.1,0-0.2,0.1-0.2c0-0.1,0.1-0.1,0.1-0.2c0-0.1,0.1-0.1,0.1-0.2c0-0.1-0.1-0.1-0.2-0.1
						c-0.1,0-0.2-0.1-0.4-0.1c-0.1,0-0.3,0-0.4-0.1c-0.1,0-0.3,0-0.3,0c-0.1,0-0.2,0-0.4,0c-0.2,0-0.3,0.1-0.5,0.1
						c-0.2,0-0.4,0.1-0.5,0.2c-0.2,0.1-0.3,0.1-0.5,0.2c-0.1,0.1-0.3,0.2-0.3,0.3c-0.1,0.1-0.1,0.3-0.1,0.4c0,0.1,0,0.2,0.1,0.3
						c0.1,0.1,0.2,0.2,0.3,0.3c0.1,0.1,0.3,0.2,0.5,0.3c0.2,0.1,0.4,0.2,0.6,0.3c0.2,0.1,0.4,0.2,0.6,0.2c0.2,0.1,0.4,0.1,0.6,0.2
						c0.2,0.1,0.4,0.1,0.5,0.2c0.2,0,0.3,0.1,0.4,0.1c0.2,0.1,0.4,0.2,0.6,0.3c0.2,0.1,0.3,0.2,0.4,0.3c0.1,0.1,0.2,0.3,0.3,0.4
						C102.9,72.8,103,73,103,73.2z"/>
					<path class="st0" d="M104.9,68.8c0,0.1,0,0.2-0.1,0.4c0,0.2-0.1,0.3-0.1,0.5c0,0.2-0.1,0.4-0.1,0.5c0,0.2-0.1,0.3-0.1,0.4
						c0,0.2,0,0.3-0.1,0.5c0,0.2-0.1,0.4-0.1,0.6c0,0.2-0.1,0.4-0.1,0.6c0,0.2,0,0.4-0.1,0.5c0,0,0,0.1,0,0.2c0,0.1,0,0.2,0,0.3
						c0,0.1,0,0.2,0,0.3c0,0.1,0,0.2,0,0.3c0,0.1,0,0.1,0,0.2c0,0.1,0,0.2,0,0.2c0,0.1,0,0.2,0,0.2c0,0.1,0,0.1,0,0.2
						c0,0.1,0,0.2-0.1,0.2c0,0.1-0.1,0.1-0.2,0.2c-0.1,0-0.1,0.1-0.2,0.1c-0.1,0-0.1,0-0.2,0c-0.1,0-0.2,0-0.2-0.1
						c-0.1-0.1-0.1-0.1-0.2-0.2c0-0.1-0.1-0.2-0.1-0.4c0-0.2,0-0.4,0-0.6c0-0.2,0-0.3,0-0.5c0-0.2,0-0.4,0.1-0.5
						c0-0.2,0-0.4,0.1-0.5c0-0.2,0-0.3,0.1-0.5c0-0.1,0-0.3,0.1-0.4c0-0.1,0-0.2,0-0.2c0-0.1,0-0.2,0-0.3c0-0.1,0-0.2,0-0.3
						c0-0.2,0-0.3,0.1-0.5c0-0.2,0.1-0.3,0.1-0.5c0-0.2,0.1-0.3,0.1-0.5c0-0.2,0.1-0.3,0.1-0.5c0-0.1,0-0.2,0-0.2c0-0.1,0-0.2,0-0.2
						c0-0.1,0-0.1,0-0.2c0-0.1,0-0.1,0.1-0.1c0,0,0.1-0.1,0.1-0.1c0.1,0,0.1,0,0.2,0c0.1,0,0.1,0,0.2,0c0.1,0,0.1,0,0.1,0
						c0,0,0.1,0,0.1,0.1c0,0,0.1,0.1,0.1,0.2c0,0.1,0,0.2,0,0.3C104.9,68.4,104.9,68.5,104.9,68.8z"/>
					<path class="st0" d="M122,67.3c0,0.1,0,0.2,0,0.2c0,0.1,0,0.2-0.1,0.2c0,0.1,0,0.1-0.1,0.2c0,0.1,0,0.1,0,0.2
						c0,0.1,0,0.2-0.1,0.4c0,0.1,0,0.3-0.1,0.4c0,0.1-0.1,0.3-0.1,0.5c0,0.2-0.1,0.4-0.1,0.6c0,0.1,0,0.2,0,0.3c0,0.2,0,0.3-0.1,0.5
						c0,0.2,0,0.3-0.1,0.5c0,0.2,0,0.3-0.1,0.4c0,0.1,0,0.2,0,0.3c0,0.1,0,0.2-0.1,0.4c0,0.1,0,0.3-0.1,0.4c0,0.1,0,0.3-0.1,0.4
						c0,0.1,0,0.3,0,0.4c0,0.1,0,0.2,0,0.3c0,0,0,0.1,0,0.1c0,0,0,0.1,0,0.1c0,0.1,0,0.1,0,0.2c0,0.1,0,0.2,0,0.3c0,0.1,0,0.1,0,0.2
						c0,0.1,0,0.1-0.1,0.2c0,0.1-0.1,0.1-0.1,0.1c0,0-0.1,0.1-0.1,0.1c-0.1,0-0.2,0-0.3,0c-0.1,0-0.2-0.1-0.3-0.1
						c-0.1-0.1-0.2-0.1-0.2-0.2c-0.1-0.1-0.1-0.2-0.2-0.3c-0.1-0.2-0.3-0.5-0.4-0.7c-0.1-0.2-0.3-0.5-0.5-0.7
						c-0.2-0.2-0.3-0.5-0.5-0.7c-0.2-0.2-0.3-0.4-0.5-0.6c0,0-0.1-0.1-0.2-0.2c-0.1-0.1-0.2-0.2-0.4-0.4c-0.1-0.1-0.3-0.3-0.4-0.4
						c-0.1-0.2-0.3-0.3-0.4-0.4c-0.1-0.1-0.2-0.3-0.3-0.4c-0.1-0.1-0.2-0.2-0.2-0.2c0,0,0,0.1,0,0.2c0,0.1,0,0.2-0.1,0.4
						c0,0.1-0.1,0.3-0.1,0.5c0,0.2-0.1,0.4-0.1,0.6c0,0.2-0.1,0.4-0.1,0.6c0,0.2-0.1,0.4-0.1,0.5c0,0.2-0.1,0.3-0.1,0.4
						c0,0.1,0,0.2,0,0.2c-0.2,1-0.3,1.8-0.3,2.4c0,0.1,0,0.1,0,0.2c0,0.1,0,0.1,0,0.1c0,0,0,0,0,0.1c0,0-0.1,0.1-0.1,0.1
						c0,0-0.1,0-0.1,0.1c0,0-0.1,0-0.1,0c-0.1,0-0.2,0-0.3,0c-0.1,0-0.1-0.1-0.2-0.2c0-0.1-0.1-0.2-0.1-0.3c0-0.1,0-0.3,0-0.4
						c0-0.2,0-0.4,0-0.6c0-0.2,0.1-0.5,0.1-0.7c0-0.1,0-0.2,0.1-0.3c0-0.1,0.1-0.3,0.1-0.5c0-0.2,0.1-0.4,0.1-0.6
						c0-0.2,0.1-0.4,0.1-0.6c0-0.2,0.1-0.3,0.1-0.5c0-0.1,0.1-0.2,0.1-0.3c0,0,0-0.1,0-0.2c0-0.1,0-0.2,0.1-0.3
						c0-0.1,0.1-0.2,0.1-0.3c0-0.1,0.1-0.2,0.1-0.3c0-0.1,0-0.2,0.1-0.3c0-0.1,0-0.1,0-0.2c0-0.1,0-0.3,0.1-0.5
						c0-0.2,0.1-0.3,0.1-0.4c0-0.1,0.1-0.2,0.2-0.3c0.1-0.1,0.2-0.1,0.2-0.1c0,0,0.1,0,0.2,0c0.1,0,0.1,0,0.2,0.1
						c0,0,0.1,0.1,0.1,0.1c0,0,0.1,0.1,0.1,0.2c0,0,0,0,0,0.1c0,0,0,0,0,0.1c0,0,0,0.1,0.1,0.2c0,0.1,0.1,0.1,0.2,0.2
						c0.1,0.1,0.1,0.1,0.2,0.2c0.1,0.1,0.1,0.1,0.2,0.2c0,0,0.1,0.1,0.1,0.1c0.1,0.1,0.1,0.2,0.2,0.3c0.1,0.1,0.2,0.2,0.3,0.3
						c0.1,0.1,0.2,0.2,0.3,0.3c0.1,0.1,0.2,0.2,0.3,0.3c0.1,0.1,0.2,0.2,0.2,0.2c0.1,0.1,0.2,0.2,0.3,0.4c0.1,0.1,0.2,0.3,0.3,0.4
						c0.1,0.2,0.2,0.3,0.3,0.5c0.1,0.1,0.2,0.3,0.3,0.4c0.1,0.1,0.2,0.3,0.3,0.5c0.1,0.2,0.2,0.4,0.4,0.7c0,0,0.1,0,0.1-0.1
						c0,0,0-0.1,0.1-0.2c0-0.1,0-0.2,0-0.3c0-0.1,0-0.2,0.1-0.3c0-0.2,0.1-0.5,0.1-0.8c0-0.3,0.1-0.5,0.1-0.8c0-0.3,0.1-0.5,0.1-0.7
						c0-0.2,0.1-0.5,0.1-0.7c0,0,0-0.1,0-0.2c0-0.1,0-0.2,0-0.4c0-0.1,0-0.3,0.1-0.4c0-0.2,0-0.3,0.1-0.5c0-0.1,0-0.3,0-0.4
						c0-0.1,0-0.2,0-0.3c0-0.1,0-0.3,0.1-0.4c0-0.1,0.1-0.2,0.1-0.2c0-0.1,0.1,0.2,0.1,0.1c0.1,0,0.1,0,0.2,0c0.1,0,0.1,0,0.2,0
						c0.1,0,0.1-0.2,0.2-0.1c0,0,0.1,0.1,0.1,0.2C122,67.2,122,67.3,122,67.3z"/>
					<path class="st0" d="M113.6,67.9c0,0.2,0,0.3-0.1,0.4c-0.1,0.1-0.2,0.2-0.4,0.2c-0.1,0-0.1,0-0.2-0.1c-0.1-0.1-0.1-0.1-0.2-0.2
						c-0.1-0.1-0.1-0.1-0.2-0.1c-0.1,0-0.2-0.1-0.2-0.1c-0.4,0-1,0.1-1.7,0.4c-0.3,0.1-0.7,0.3-1,0.5c-0.3,0.2-0.6,0.4-0.9,0.6
						c-0.3,0.2-0.6,0.5-0.8,0.8c-0.3,0.3-0.5,0.6-0.7,0.9c-0.2,0.3-0.3,0.6-0.4,0.9c-0.1,0.4-0.1,0.7-0.1,1.1c0,0.2,0.1,0.3,0.2,0.5
						c0.2,0.2,0.3,0.3,0.5,0.3c0.2,0.1,0.5,0.1,0.8,0.1c0.2,0,0.5,0,0.7-0.1c0.3-0.1,0.5-0.1,0.8-0.2c0.3-0.1,0.5-0.2,0.7-0.3
						c0.2-0.1,0.5-0.3,0.7-0.4c0.1-0.1,0.1-0.1,0.2-0.2c0.1-0.1,0.2-0.2,0.2-0.3c0.1-0.1,0.2-0.2,0.2-0.3c0.1-0.1,0.1-0.2,0.1-0.2
						c0,0-2.2-0.1-2.2-0.1c0-0.1,0-0.1,0-0.2c0-0.1,0-0.1,0-0.2c0-0.1,2.4-0.2,2.7-0.2c0.1,0,0.2,0.1,0.4,0.2
						c0.2,0.1,0.3,0.3,0.3,0.3c0,0-0.1,0.2-0.3,0.7c-0.1,0.2-0.2,0.4-0.3,0.5c-0.1,0.1-0.1,0.2-0.1,0.2c-0.1,0.1-0.1,0.3-0.2,0.5
						c-0.1,0.2-0.1,0.4-0.2,0.6c-0.1,0.4-0.2,0.7-0.2,0.9c0,0,0,0.1,0,0.1c0,0,0,0.1,0.1,0.1c0,0,0,0.1,0.1,0.1c0,0,0,0,0,0
						c0,0.1,0,0.2,0,0.2c0,0.1-0.1,0.1-0.1,0.2c-0.1,0.1-0.1,0.1-0.2,0.1c-0.1,0-0.2,0-0.2,0c-0.2,0-0.3-0.1-0.4-0.2
						c-0.1-0.1-0.1-0.3-0.1-0.5c0-0.1,0-0.1,0-0.2c0-0.1,0-0.1,0-0.2c0-0.1,0-0.2,0.1-0.4c0-0.1,0-0.1,0-0.2c0-0.1,0-0.1,0-0.1
						c0.1-0.2,0.1-0.3,0.1-0.4c0,0,0-0.1,0-0.1c-0.1,0-0.3,0.1-0.7,0.3c-0.2,0.1-0.4,0.2-0.5,0.2c-0.1,0.1-0.2,0.1-0.2,0.1
						c-0.6,0.3-1.2,0.4-1.7,0.4c-0.3,0-0.7-0.1-1.1-0.2c-0.4-0.1-0.7-0.4-1-0.6c-0.3-0.3-0.4-0.6-0.4-0.9c0-1,0.5-2.1,1.4-3.3
						c0.4-0.5,0.8-0.9,1.2-1.2c0.4-0.3,0.9-0.6,1.5-0.9c0.1-0.1,0.2-0.1,0.3-0.2c0.1-0.1,0.2-0.1,0.4-0.2c0.3-0.1,0.6-0.2,0.9-0.3
						c0.3-0.1,0.5-0.1,0.8-0.2c0.2,0,0.4,0,0.7,0c0.1,0,0.2,0,0.3,0.1c0.1,0,0.2,0.1,0.3,0.2c0.1,0.1,0.1,0.2,0.2,0.3
						C113.6,67.7,113.6,67.8,113.6,67.9z"/>
				</g>
				<g>
					<path class="st0" d="M40.9,49.7c0-0.3-0.1-0.5-0.2-0.7c-0.2-0.2-0.3-0.3-0.6-0.4c-0.2-0.1-0.5-0.2-0.7-0.2
						c-0.3,0-0.5-0.1-0.7-0.1c-1.1,0-2,0.2-3,0.7c-0.9,0.5-1.8,1.1-2.6,1.9c-0.8,0.8-1.5,1.7-2.2,2.6c-0.6,1-1.2,1.9-1.7,2.9
						c0-0.4,0-0.9,0.1-1.5c0-0.6,0.1-1.2,0.2-1.8c0.1-0.6,0.1-1.2,0.2-1.8c0.1-0.6,0.1-1.1,0.1-1.6c0-0.2,0-0.4-0.1-0.6
						c-0.1-0.2-0.2-0.4-0.3-0.6c-0.1-0.2-0.3-0.3-0.5-0.4C28.4,48,28.2,48,28,48c-0.2,0-0.4,0-0.6,0.1c-0.2,0.1-0.4,0.2-0.6,0.4
						c-0.2,0.2-0.3,0.4-0.4,0.6c-0.1,0.2-0.2,0.5-0.2,0.7c0,0.5,0,0.9,0,1.2c0,0,0,0.1,0,0.1c-0.1,0.1-0.3,0.3-0.4,0.4
						c-0.3,0.3-0.5,0.5-0.8,0.8c-0.3,0.3-0.6,0.5-0.9,0.8c-0.3,0.3-0.6,0.5-0.8,0.7c-0.6,0.5-1.4,1.1-2.1,1.7
						c-0.8,0.6-1.6,1.2-2.5,1.8c-0.9,0.6-1.8,1.2-2.7,1.7c-0.9,0.6-1.9,1-2.8,1.5c-1,0.4-1.9,0.8-2.9,1c-1,0.3-1.9,0.4-2.8,0.4
						c-0.8,0-1.6-0.1-2.1-0.4c-0.6-0.2-1-0.6-1.4-1c-0.4-0.4-0.6-0.9-0.8-1.5c-0.2-0.6-0.2-1.2-0.2-1.9c0-0.6,0.1-1.2,0.1-1.8
						c0.1-0.6,0.2-1.3,0.4-1.9c0.2-0.6,0.4-1.3,0.6-1.9c0.2-0.6,0.5-1.2,0.7-1.8c0.7-1.4,1.5-2.6,2.5-3.7c1-1.1,2.1-2.2,3.3-3.1
						c0.4-0.3,0.9-0.7,1.5-1c0.6-0.4,1.2-0.7,1.9-1c0.6-0.3,1.3-0.5,1.9-0.7c0.6-0.2,1.1-0.3,1.5-0.3c0.3,0,0.6,0,0.9,0.1
						c0.3,0.1,0.6,0.2,0.8,0.4c-0.1,0.1-0.2,0.3-0.4,0.7c-0.2,0.3-0.5,0.7-0.9,1.1c-0.4,0.4-0.7,0.8-0.9,1.1
						c-0.2,0.3-0.3,0.5-0.3,0.7c0,0.4,0.1,0.8,0.4,1.1c0.3,0.3,0.6,0.4,1.1,0.4c0.5,0,1-0.3,1.5-0.8c0.1-0.1,0.3-0.4,0.6-0.7
						c0.2-0.4,0.5-0.8,0.7-1.2c0.2-0.4,0.5-0.8,0.6-1.2c0.2-0.4,0.3-0.7,0.3-0.9c0-0.2-0.1-0.4-0.2-0.7c-0.1-0.3-0.3-0.6-0.4-0.8
						c-0.2-0.3-0.4-0.5-0.6-0.8c-0.2-0.2-0.4-0.4-0.5-0.5c-0.3-0.2-0.7-0.4-1.1-0.5c-0.4-0.1-1-0.1-1.7-0.1c-0.4,0-1,0.1-1.5,0.2
						c-0.6,0.2-1.2,0.4-1.8,0.6c-0.6,0.2-1.2,0.5-1.7,0.8c-0.5,0.3-1,0.5-1.4,0.7c-0.6,0.3-1.1,0.7-1.7,1.1
						c-0.6,0.4-1.1,0.9-1.7,1.4c-0.6,0.5-1.1,1-1.6,1.5c-0.5,0.5-1,1-1.4,1.5c-0.7,0.8-1.3,1.7-1.8,2.7c-0.6,1-1,2-1.4,3
						c-0.4,1-0.7,2.1-0.9,3.1C0.1,54.9,0,55.9,0,57c0,1.1,0.1,2.2,0.4,3.1c0.3,0.9,0.7,1.7,1.3,2.4c0.6,0.7,1.4,1.2,2.3,1.5
						c0.9,0.4,2,0.5,3.2,0.5c1.1,0,2.3-0.2,3.5-0.5c1.2-0.3,2.4-0.8,3.7-1.4c1.2-0.6,2.4-1.2,3.6-2c1.2-0.8,2.4-1.6,3.5-2.4
						c0.3-0.3,0.7-0.6,1.1-0.9c0.4-0.3,0.8-0.6,1.2-1c0.4-0.3,0.8-0.7,1.1-1c0.3-0.3,0.6-0.6,0.9-0.9c0.2-0.3,0.5-0.5,0.6-0.8
						c0,0.1,0,0.1,0,0.2c0,0.3,0,0.8,0,1.3c0,0.2,0,0.5,0,0.8c0,0.3,0,0.7,0,1.1c0,0.4,0,0.8-0.1,1.2c0,0.4,0,0.8-0.1,1.2
						c0,0.4,0,0.8,0,1.1c0,0.3,0,0.6,0,0.8c0,0.2,0,0.5,0,0.8c0,0.4,0.1,0.7,0.1,1.1c0.1,0.3,0.2,0.7,0.4,0.9
						c0.2,0.3,0.4,0.4,0.7,0.4c0.2,0,0.4,0,0.5-0.1c0.1,0,0.3-0.1,0.4-0.2c0.1-0.1,0.2-0.2,0.3-0.3c0.1-0.1,0.2-0.2,0.3-0.4
						c0.2-1,0.4-2,0.6-2.9c0.2-0.9,0.5-1.8,0.9-2.6c0.3-0.8,0.8-1.6,1.2-2.3c0.5-0.7,1-1.4,1.7-2.1c0.8-0.9,1.7-1.5,2.4-1.9
						c0.8-0.4,1.6-0.8,2.3-1c0.3-0.1,0.6-0.2,0.9-0.3c0.3-0.1,0.6-0.2,0.9-0.3c0.3-0.1,0.5-0.2,0.6-0.3C40.8,50,40.9,49.8,40.9,49.7
						z"/>
					<path class="st0" d="M98.9,44.8c0.5,0.1,1,0.2,1.4,0.2c0.7,0,1.1-0.2,1.5-0.7c0.3-0.5,0.5-1,0.5-1.7c0-0.5-0.2-0.8-0.5-1
						c-0.3-0.2-0.8-0.2-1.3-0.2c-0.1,0-0.3,0.1-0.7,0.3c-0.4,0.3-0.8,0.7-1.1,1.1c-0.3,0.5-0.5,0.9-0.5,1.4
						C98.2,44.5,98.4,44.7,98.9,44.8z"/>
					<g>
						<path class="st0" d="M121.9,55c-0.1-0.1-0.1-0.2-0.3-0.2c-0.2,0-0.5,0.2-0.9,0.6c-0.7,0.7-1.4,1.4-2.1,2
							c-0.8,0.6-1.5,1.2-2.3,1.6s-1.6,0.8-2.4,1.1c-0.8,0.3-1.6,0.4-2.4,0.4c-0.6,0-1.1-0.1-1.6-0.3c-0.4-0.2-0.7-0.5-1-0.8
							c-0.2-0.3-0.5-0.6-0.6-1c0,0-0.2-0.3-0.3-1.1c-0.1-0.7,0.1-2.5,0.1-2.5c0.1-1,0.4-2,0.7-2.9c0.3-0.9,0.7-1.6,1.2-2.3
							c0.5-0.6,1-1.1,1.5-1.5c0.5-0.4,1-0.5,1.5-0.5c0.1,0,0.2,0,0.3,0.1c0.1,0,0.2,0.1,0.3,0.2c0.1,0.1,0.2,0.2,0.2,0.3
							c0.1,0.1,0.1,0.2,0.1,0.3c0,0.3-0.1,0.7-0.1,0.9c0,0.2-0.2,0.8,0.8,1.1c0.8,0.2,1.3-0.4,1.3-0.4s0.9-1,0.9-2
							c0-0.3-0.1-0.7-0.2-1c-0.1-0.3-0.3-0.7-0.6-0.9c-0.3-0.3-0.6-0.5-0.9-0.7c-0.4-0.2-0.8-0.3-1.2-0.3c-0.6,0-1.2,0.1-1.8,0.3
							c-0.5,0.2-1,0.4-1.5,0.7c-0.5,0.3-0.9,0.6-1.3,1c-0.4,0.4-0.7,0.7-1,1.1c-0.5,0.6-0.9,1.2-1.3,1.9c-0.4,0.7-0.7,1.4-0.9,2.1
							c-0.2,0.7-0.4,1.5-0.6,2.2c-0.1,0.7-0.2,1.5-0.2,2.2c0,0.3,0,0.5,0,0.7l0.2,1.2c-0.4,0.3-0.9,0.6-1.3,0.8
							c-1.1,0.6-2.1,0.9-3,0.9c-0.8,0-1.4-0.6-1.7-1.8c-0.3-1.2-0.5-2.3-0.5-3.5c0-0.5,0-1.1,0.1-1.9c0.1-0.7,0.2-1.5,0.3-2.4
							c0.1-0.5,0.2-0.9,0.2-1.4c0,0,0.1-1,0.1-1.6c0-0.4-0.2-0.6-0.4-0.6c-0.6,0-1.1,0.2-1.7,0.6c-0.1,0.1-0.2,0.1-0.2,0.2
							c0,0-0.9,1-1,2.5c-0.1,0.4-0.1,0.9-0.2,1.4c-0.1,1.2-0.2,2.1-0.2,2.7c0,0.5,0,1,0.1,1.5c-0.2,0.1-0.5,0.1-0.7,0.2
							c-0.6,0.1-1.1,0.2-1.6,0.1c-0.5,0-0.9-0.1-1.3-0.4c-0.4-0.2-0.8-0.6-1.1-1c-0.3-0.4-0.5-1-0.7-1.6c-0.2-0.6-0.3-1.4-0.3-2.3
							c0-0.3,0-0.6-0.1-0.8c-0.1-0.2-0.2-0.4-0.4-0.5c-0.1-0.1-0.3-0.2-0.5-0.3c-0.2-0.1-0.4-0.1-0.5-0.1c-0.6,0-1,0.1-1.3,0.4
							c-0.3,0.3-0.5,0.7-0.6,1.2c-0.1,0.4-0.2,0.8-0.4,1.3c-0.2,0.5-0.3,1-0.6,1.5c-0.2,0.5-0.4,1-0.6,1.5c-0.2,0.5-0.4,0.9-0.6,1.2
							c-0.1,0.3-0.3,0.6-0.5,0.9c-0.2,0.4-0.4,0.7-0.7,1.1c-0.2,0.4-0.5,0.8-0.7,1.2c-0.3,0.4-0.5,0.7-0.7,1.1
							c-0.2,0.3-0.4,0.6-0.6,0.8c-0.2,0.2-0.3,0.3-0.4,0.3c0-0.1-0.1-0.4-0.2-0.8c-0.1-0.4-0.2-0.8-0.3-1.4
							c-0.1-0.5-0.3-1.1-0.5-1.8c-0.2-0.6-0.4-1.3-0.6-1.9c-0.1-0.4-0.2-0.8-0.4-1.2c-0.1-0.5-0.2-0.9-0.3-1.4
							c-0.1-0.5-0.1-0.9-0.2-1.3c0-0.4-0.1-0.7-0.1-0.9c0-0.3,0-0.7,0.2-1c0.1-0.3,0.2-0.7,0.2-1c0-0.4-0.1-0.8-0.3-1.1
							c-0.2-0.3-0.5-0.4-1-0.4c-0.6,0-1.1,0.2-1.5,0.6c-0.4,0.4-0.5,0.9-0.5,1.5c0,0.7,0.1,1.6,0.2,2.6l0.4,2c0.1,0.5,0.3,1,0.4,1.5
							c-0.1,0.1-0.3,0.2-0.4,0.3c-0.8,0.5-1.5,0.9-2.2,1.2c-0.7,0.3-1.5,0.4-2.2,0.4c-0.4,0-0.8-0.1-1.1-0.3
							c-0.3-0.2-0.6-0.5-0.9-0.8c-0.2-0.3-0.4-0.7-0.5-1.1c-0.1-0.4-0.2-0.8-0.2-1.2c0-0.7,0.1-1.4,0.2-2c0.2-0.6,0.3-1.4,0.5-2.2
							c0.2-0.6,0.3-1.1,0.3-1.5c0-0.1,0-0.4,0-0.6c-0.1-0.2-0.2-0.5-0.3-0.7c-0.1-0.2-0.2-0.5-0.4-0.7c-0.1-0.2-0.3-0.3-0.4-0.4
							c-0.2-0.1-0.4-0.2-0.7-0.3c-0.3-0.1-0.5-0.1-0.8-0.1c-0.3,0-0.5,0-0.8,0c-0.3,0-0.5,0-0.8,0c-0.5,0-1,0.1-1.7,0.4
							c-0.6,0.3-1.3,0.6-1.9,1c-0.6,0.4-1.3,0.9-1.9,1.5c-0.6,0.5-1.1,1.1-1.5,1.6c-0.4,0.5-0.8,1.1-1.3,1.8
							c-0.4,0.7-0.8,1.4-1.2,2.1c-0.1,0.1-0.1,0.2-0.1,0.4c-0.1,0-0.1,0.1-0.2,0.1c-0.8,0.7-1.7,1.4-2.6,2.1
							c-0.5,0.4-1.1,0.7-1.7,1.1c-0.6,0.4-1.2,0.7-1.9,1c-0.6,0.3-1.3,0.5-2,0.7c-0.7,0.2-1.3,0.3-2,0.3c-1.2,0-2.1-0.3-2.8-0.9
							c-0.7-0.6-1-1.4-1-2.5c0.8-0.6,1.6-1.1,2.2-1.6c0.6-0.5,1.1-1,1.6-1.4c0.8-0.7,1.4-1.3,2-1.8c0.6-0.6,1-1.1,1.3-1.6
							c0.3-0.5,0.6-1.1,0.7-1.6c0.1-0.5,0.2-1,0.2-1.6c0-0.5-0.1-0.9-0.3-1.3c-0.2-0.4-0.4-0.8-0.8-1.1c-0.1-0.1-0.2-0.2-0.4-0.3
							c-0.2-0.1-0.4-0.2-0.5-0.2c-0.2-0.1-0.4-0.1-0.5-0.1c-0.2,0-0.3,0-0.4,0c-0.4,0-0.8,0.1-1.1,0.2c-0.4,0.1-0.7,0.3-1.1,0.5
							c-0.3,0.2-0.7,0.4-1,0.7c-0.3,0.3-0.6,0.5-0.9,0.8c-1.3,1.6-2.3,3.2-2.8,4.9c-0.6,1.7-0.8,3.4-0.8,5.2c0,2.2,0.5,3.8,1.5,4.8
							c1,1.1,2.4,1.6,4.3,1.6c0.8,0,1.7-0.1,2.6-0.4c0.9-0.3,1.8-0.6,2.7-1.1c0.9-0.5,1.8-1.1,2.7-1.7c0.6-0.5,1.2-1,1.8-1.5
							c0,0.4-0.1,0.7-0.1,1.1c0,0.4,0.1,0.8,0.2,1.3c0.1,0.5,0.3,0.9,0.5,1.4c0.2,0.4,0.5,0.8,0.8,1.1c0.3,0.3,0.7,0.4,1.2,0.4
							c0.3,0,0.7,0,1-0.1c0.4-0.1,0.8-0.2,1.1-0.4c0.4-0.2,0.8-0.3,1.1-0.5c0.3-0.2,0.7-0.4,0.9-0.5c0.4-0.3,0.9-0.6,1.3-1
							c0.4-0.4,0.8-0.7,1.2-1.1c0.4-0.4,0.8-0.8,1.1-1.1c0.4-0.4,0.7-0.7,1-1.1c0.1,0.5,0.3,0.9,0.6,1.3c0.3,0.4,0.6,0.7,1,1
							c0.4,0.3,0.8,0.5,1.2,0.7c0.4,0.2,0.9,0.2,1.3,0.2c0.9,0,1.8-0.1,2.6-0.4c0.8-0.3,1.5-0.7,2.3-1.1c0.5-0.3,1-0.7,1.5-1.1
							c0.2,0.6,0.4,1.2,0.5,1.7c0.2,0.7,0.4,1.3,0.5,1.8c0.1,0.5,0.2,1,0.2,1.5c0.1,0.4,0.1,0.8,0.1,1.2c0,0.1,0.1,0.2,0.2,0.4
							c0.1,0.1,0.2,0.2,0.4,0.3c0.1,0.1,0.3,0.2,0.4,0.2c0.1,0.1,0.3,0.1,0.4,0.1c0.1,0,0.2,0,0.4-0.1c0.2,0,0.4-0.1,0.6-0.2
							c0.2-0.1,0.5-0.3,0.8-0.5c0.3-0.2,0.5-0.5,0.8-0.9c0.2-0.3,0.5-0.6,0.8-1c0.3-0.4,0.6-0.9,1-1.4c0.3-0.5,0.7-1.1,1-1.7
							c0.4-0.6,0.7-1.2,1-1.8c0.3-0.6,0.6-1.1,0.8-1.6c0.2-0.4,0.4-0.8,0.5-1.1c0.1-0.3,0.3-0.5,0.3-0.7c0.1-0.2,0.1-0.3,0.2-0.3
							c0,0.7,0.2,1.3,0.5,1.9c0.3,0.6,0.6,1,1.1,1.4c0.4,0.4,0.9,0.7,1.4,0.9c0.5,0.2,1,0.3,1.5,0.4c0.7,0,1.4,0,2.1-0.2
							c0.4-0.1,0.8-0.2,1.1-0.3c0,0.2,0.1,0.5,0.1,0.7c0.3,1.3,0.8,2.5,1.6,3.4c0.8,0.9,1.8,1.4,3.2,1.4c1.3,0,2.7-0.6,4.3-1.8
							c0.3-0.2,0.5-0.4,0.8-0.6c0.1,0.3,0.3,0.5,0.5,0.7c1,1.2,2.4,1.7,4.2,1.7c0.8,0,1.6-0.1,2.4-0.4c0.8-0.2,1.6-0.6,2.4-1
							c0.8-0.4,1.6-0.9,2.3-1.5c0.8-0.6,1.5-1.2,2.1-1.8c0.6-0.6,1-1.1,1.3-1.6c0.3-0.5,0.4-0.9,0.4-1.3
							C122,55.4,121.9,55.2,121.9,55z M42.8,53c0.1-0.3,0.1-0.6,0.2-1c0.1-0.3,0.2-0.6,0.3-1c0.1-0.3,0.2-0.6,0.3-0.9
							c0.5-1.2,1.1-2.1,1.7-2.8c0.6-0.7,1.2-1.1,1.8-1.1c0.1,0,0.3,0,0.4,0.1c0.1,0.1,0.2,0.2,0.3,0.3c0.1,0.1,0.1,0.3,0.2,0.4
							c0,0.2,0.1,0.3,0.1,0.5c0,0.4-0.1,0.7-0.2,1.1c-0.1,0.3-0.3,0.7-0.6,1c-0.2,0.3-0.5,0.6-0.8,0.9c-0.3,0.3-0.6,0.6-0.8,0.8
							c-0.4,0.4-0.9,0.8-1.4,1.2c-0.5,0.4-1.1,0.8-1.7,1.2C42.6,53.6,42.7,53.3,42.8,53z M66.1,55c-0.6,1-1.4,2-2.2,2.8
							C63,58.6,62,59.2,61,59.7c-0.8,0.3-1.4,0.5-2,0.5c-0.2,0-0.3-0.1-0.4-0.2c-0.1-0.1-0.2-0.3-0.3-0.5c-0.1-0.2-0.1-0.4-0.1-0.6
							c0-0.2,0-0.3,0-0.5c0-0.4,0.1-0.8,0.2-1.3c0.1-0.5,0.3-0.9,0.5-1.4c0.2-0.5,0.4-1,0.7-1.5c0.3-0.5,0.5-1,0.8-1.5
							c0.3-0.5,0.6-0.9,0.9-1.3c0.3-0.4,0.6-0.7,0.8-1c0.3-0.3,0.6-0.6,1-0.9c0.3-0.3,0.7-0.5,1-0.8c0.4-0.2,0.7-0.4,1.1-0.5
							c0.4-0.1,0.8-0.2,1.2-0.2c0.2,0,0.4,0,0.5,0c0.2,0,0.3,0.1,0.5,0.3c0.1,0.2,0.2,0.4,0.2,0.7c0,0.3,0,0.5,0,0.7
							C67.5,51.7,67,53.4,66.1,55z"/>
					</g>
				</g>
			</g>
		</g>
	</g>
</g>
</svg>
